<svg width="1140" height="551" viewBox="0 0 1140 551" fill="none" xmlns="http://www.w3.org/2000/svg">
<g filter="url(#filter0_d_367_0)">
<rect x="6" y="2" width="1128" height="539" rx="16" fill="url(#paint0_linear_367_0)"/>
</g>
<g opacity="0.08" clip-path="url(#clip0_367_0)">
<mask id="mask0_367_0" style="mask-type:alpha" maskUnits="userSpaceOnUse" x="-6" y="194" width="1184" height="347">
<path d="M1177.53 194.142H-5.65674V540.046H1177.53V194.142Z" fill="white"/>
</mask>
<g mask="url(#mask0_367_0)">
<path fill-rule="evenodd" clip-rule="evenodd" d="M56.9517 497.321L39.349 527.362C37.0654 531.272 32.0224 532.608 28.1213 530.319C26.2183 529.174 24.8862 527.362 24.3153 525.264C23.7444 523.166 24.0299 520.877 25.1717 518.97L42.7744 488.928C44.2968 486.258 47.0561 484.828 49.9106 484.828C51.3378 484.828 52.7651 485.209 54.0972 485.972C56.0002 487.116 57.3323 488.928 57.9032 491.027C58.3789 493.125 58.0935 495.414 56.9517 497.321ZM55.6196 483.111C50.196 479.868 43.0598 481.776 39.9199 487.212L22.3172 517.348C20.7948 520.019 20.319 523.166 21.0802 526.122C21.8414 529.079 23.7444 531.654 26.4086 533.18C28.2164 534.229 30.2146 534.801 32.2127 534.801C36.209 534.801 40.015 532.798 42.1083 529.079L59.711 499.038C61.2334 496.367 61.7092 493.22 60.948 490.264C60.1868 487.212 58.2838 484.637 55.6196 483.111Z" fill="white"/>
<path fill-rule="evenodd" clip-rule="evenodd" d="M125.555 442.579L112.995 464.132L44.392 423.696L56.9517 402.142L125.555 442.579ZM39.9199 424.745L114.137 468.519L130.027 441.339L55.8099 397.564L39.9199 424.745Z" fill="white"/>
<path fill-rule="evenodd" clip-rule="evenodd" d="M129.741 457.552L124.032 454.118L122.415 456.979L126.792 459.554L116.23 477.675L69.9872 458.41C69.226 458.124 68.3696 458.41 67.989 459.078L55.5244 480.345L58.3789 481.966L70.0823 461.843L116.325 481.108C117.086 481.394 117.943 481.108 118.323 480.44L130.407 459.65C130.598 459.268 130.693 458.792 130.598 458.41C130.407 458.124 130.122 457.838 129.741 457.552Z" fill="white"/>
<path fill-rule="evenodd" clip-rule="evenodd" d="M146.773 241.254C147.154 239.728 148.105 238.489 149.437 237.726C150.294 237.249 151.34 236.963 152.292 236.963C152.767 236.963 153.338 237.058 153.814 237.153C156.859 238.012 158.667 241.159 157.906 244.211C157.049 247.262 153.909 249.075 150.864 248.312C149.342 247.93 148.105 246.976 147.344 245.641C146.583 244.306 146.392 242.685 146.773 241.254ZM150.008 251.459C150.769 251.649 151.626 251.745 152.387 251.745C156.383 251.745 159.999 249.075 161.141 245.069C162.473 240.205 159.618 235.246 154.766 233.911C152.482 233.243 150.008 233.625 147.915 234.769C145.822 236.009 144.299 237.916 143.728 240.301C142.396 245.164 145.155 250.124 150.008 251.459Z" fill="white"/>
<path fill-rule="evenodd" clip-rule="evenodd" d="M140.969 233.911L150.579 228.379L161.236 231.24L166.754 240.873L163.9 251.554L154.29 257.085L143.633 254.224L138.019 244.592L140.969 233.911ZM141.064 256.418C141.254 256.799 141.635 257.085 142.016 257.181L154.004 260.423C154.1 260.423 154.29 260.519 154.385 260.519C154.67 260.519 154.956 260.423 155.241 260.328L165.993 254.129C166.374 253.938 166.659 253.557 166.754 253.175L169.99 241.159C170.085 240.777 170.085 240.3 169.799 239.919L163.614 229.142C163.424 228.761 163.044 228.475 162.663 228.379L150.674 225.137C150.294 225.041 149.818 225.041 149.437 225.327L138.685 231.526C138.305 231.717 138.019 232.099 137.924 232.48L134.689 244.497C134.594 244.878 134.594 245.355 134.879 245.736L141.064 256.418Z" fill="white"/>
<path fill-rule="evenodd" clip-rule="evenodd" d="M706.063 418.26C705.207 419.976 703.684 421.216 701.781 421.884C698.07 423.123 694.074 421.311 692.742 417.878C692.552 415.398 690.458 394.036 688.175 386.978C685.416 378.586 674.664 361.801 673.332 359.798L666.1 337.291L679.897 332.618L706.539 413.11C707.11 414.731 706.919 416.543 706.063 418.26ZM658.203 336.337C658.012 336.433 657.917 336.433 657.727 336.623L639.839 349.975L629.943 320.22L675.805 304.77L683.512 327.849L681.99 328.326L672.475 331.569L658.203 336.337ZM682.942 331.473L685.986 330.424C686.367 330.329 686.748 329.947 686.938 329.566C687.128 329.185 687.128 328.708 687.033 328.326L678.279 302.195C677.994 301.337 677.042 300.86 676.186 301.146L627.279 317.645C626.898 317.74 626.518 318.122 626.328 318.503C626.137 318.885 626.137 319.361 626.232 319.743L637.365 353.122C637.555 353.599 637.936 353.981 638.412 354.171C638.602 354.267 638.697 354.267 638.887 354.267C639.268 354.267 639.553 354.171 639.839 353.981L659.345 339.389L662.865 338.245L670.287 361.133L670.382 361.324C670.477 361.515 682.18 379.54 684.94 387.932C687.223 394.894 689.412 418.069 689.412 418.355L689.507 418.736C690.934 422.933 694.93 425.603 699.212 425.603C700.354 425.603 701.496 425.412 702.638 425.031C705.302 424.172 707.49 422.265 708.727 419.881C710.059 417.401 710.25 414.635 709.393 412.06L682.942 331.473Z" fill="white"/>
<path fill-rule="evenodd" clip-rule="evenodd" d="M323.942 406.052L319.089 423.505L314.617 429.418L298.442 470.522L298.156 470.427L291.972 467.947L291.781 467.852L307.957 426.747L308.718 419.404L316.996 403.382L323.942 406.052ZM302.343 485.304L285.692 532.226C285.311 533.37 284.455 534.324 283.313 534.801C282.171 535.278 280.934 535.373 279.792 534.896L261.428 527.648C260.287 527.171 259.335 526.313 258.859 525.169C258.384 524.024 258.384 522.784 258.859 521.64L278.651 475.958C280.173 472.429 283.598 470.331 287.214 470.331C288.356 470.331 289.498 470.522 290.639 470.999L296.919 473.478C301.677 475.29 304.056 480.536 302.343 485.304ZM305.388 418.355L304.626 425.889L288.451 467.089C283.123 466.612 277.985 469.473 275.701 474.623L255.91 520.305C255.053 522.308 255.053 524.406 255.815 526.408C256.671 528.411 258.193 529.937 260.192 530.7L278.46 537.948C279.412 538.33 280.363 538.52 281.315 538.52C282.457 538.52 283.503 538.33 284.55 537.853C286.453 536.994 287.975 535.373 288.641 533.37L305.293 486.449C307.195 481.108 305.388 475.481 301.106 472.143L317.281 430.944L321.849 424.935L327.653 404.05L315.188 399.09L305.388 418.355Z" fill="white"/>
<path fill-rule="evenodd" clip-rule="evenodd" d="M285.026 480.44C284.169 480.059 283.218 480.536 282.932 481.394L267.233 521.163C266.947 522.021 267.328 522.975 268.184 523.261C268.374 523.357 268.565 523.357 268.755 523.357C269.421 523.357 269.992 522.975 270.277 522.307L285.977 482.538C286.263 481.68 285.882 480.726 285.026 480.44Z" fill="white"/>
<path fill-rule="evenodd" clip-rule="evenodd" d="M294.731 484.255C293.874 483.874 292.923 484.35 292.637 485.209L277.033 524.978C276.747 525.836 277.128 526.79 277.984 527.076C278.175 527.171 278.365 527.171 278.555 527.171C279.221 527.171 279.792 526.79 280.078 526.122L295.777 486.353C296.063 485.59 295.587 484.636 294.731 484.255Z" fill="white"/>
<path fill-rule="evenodd" clip-rule="evenodd" d="M33.1642 311.16L32.7837 312.018C32.3079 313.258 30.9758 313.83 29.7389 313.353L13.7537 306.964C12.5168 306.487 11.9459 305.152 12.4216 303.912L12.8022 303.053C12.9925 302.481 13.4683 302.004 14.0392 301.814C14.3246 301.718 14.6101 301.623 14.9907 301.623C15.2761 301.623 15.5615 301.718 15.847 301.814L23.8396 305.056L31.8322 308.299C32.4031 308.489 32.8788 308.966 33.0691 309.539C33.4497 310.015 33.4497 310.588 33.1642 311.16ZM10.9944 293.707L11.375 292.849C11.7556 291.895 12.6119 291.418 13.5634 291.418C13.8489 291.418 14.1343 291.514 14.4198 291.609L24.8862 295.805L29.3583 297.617L40.015 301.909C41.252 302.386 41.8229 303.721 41.3471 304.961L40.9665 305.819C40.7762 306.391 40.3005 306.868 39.7296 307.059C39.1587 307.345 38.4926 307.345 37.9217 307.059L12.2313 296.759C11.0895 296.282 10.5186 294.852 10.9944 293.707ZM31.9273 260.9C30.7855 260.423 29.834 259.47 29.2631 258.325C28.7874 257.181 28.7874 255.846 29.2631 254.606C30.0243 252.698 31.8322 251.554 33.7351 251.554C34.306 251.554 34.9721 251.649 35.543 251.935C38.0169 252.889 39.1587 255.75 38.2072 258.23C37.1605 260.614 34.306 261.854 31.9273 260.9ZM45.6289 261.186C46.3901 259.279 48.1979 258.134 50.1009 258.134C50.6718 258.134 51.3378 258.23 51.9087 258.516C54.3826 259.47 55.5244 262.331 54.5729 264.81C53.6214 267.29 50.7669 268.434 48.3882 267.481C45.8192 266.432 44.5822 263.666 45.6289 261.186ZM10.8992 238.298C14.5149 229.142 21.556 221.989 30.5952 218.079C39.6344 214.169 49.6252 214.074 58.7595 217.793C67.7988 221.417 74.935 228.379 78.8361 237.535C82.7373 246.595 82.8324 256.609 79.1216 265.764C73.3174 280.356 58.8547 289.702 43.2501 288.939L42.1083 288.843L38.5878 297.713L37.5411 297.331L32.0225 295.138L43.155 267.29C44.0113 268.72 45.3434 269.865 46.961 270.532C47.9125 270.914 48.9591 271.105 49.9106 271.105C53.1457 271.105 56.0953 269.197 57.4274 266.05C59.045 261.949 57.0468 257.181 52.9554 255.559C48.864 253.938 44.1065 255.941 42.4889 260.042L28.9777 293.898L27.5504 293.326L41.1568 259.374C42.7744 255.273 40.7762 250.505 36.6848 248.884C32.5934 247.262 27.8359 249.265 26.2183 253.366C24.6008 257.467 26.5989 262.235 30.6904 263.857C31.6419 264.238 32.6885 264.429 33.64 264.429C34.306 264.429 35.0672 264.333 35.7333 264.143L24.6008 291.991L18.3209 289.416L21.8414 280.546L20.9851 279.783C9.09137 269.674 5.09508 252.889 10.8992 238.298ZM35.9236 313.258L36.3042 312.4C36.5896 311.637 36.6848 310.874 36.6848 310.015L36.7799 310.111C37.446 310.397 38.112 310.492 38.8732 310.492C39.6344 310.492 40.3956 310.302 41.0617 310.015C42.3938 309.443 43.5356 308.299 44.0113 306.964L44.3919 306.105C45.5337 303.34 44.2016 300.288 41.6326 298.953L44.2968 292.181C60.8528 292.467 75.9816 282.454 82.1664 266.908C86.1626 256.895 85.9723 246.023 81.7858 236.104C77.5992 226.186 69.7969 218.556 59.9013 214.551C50.0058 210.545 39.1587 210.831 29.2631 215.028C19.3675 219.224 11.8507 227.139 7.85442 237.058C1.66969 252.603 5.76113 270.342 17.9403 281.595L15.2761 288.367C12.5168 287.508 9.47197 288.843 8.33017 291.609L7.94957 292.467C6.80777 295.329 8.23502 298.666 11.0895 299.811L11.1847 299.906C10.6138 300.478 10.138 301.146 9.85257 301.909L9.47197 302.767C8.33017 305.628 9.75742 308.966 12.6119 310.111L28.5971 316.501C29.2631 316.787 29.9292 316.882 30.6904 316.882C31.4516 316.882 32.2128 316.691 32.8788 316.405C34.306 315.738 35.3527 314.688 35.9236 313.258Z" fill="white"/>
<path fill-rule="evenodd" clip-rule="evenodd" d="M23.9347 233.338C24.4104 233.338 24.791 233.148 25.0765 232.862C30.4049 227.33 37.8265 224.183 45.5337 224.278C46.39 224.374 47.1512 223.611 47.1512 222.657C47.1512 221.799 46.4852 221.036 45.5337 220.94C36.9702 220.75 28.597 224.278 22.6977 230.477C22.1268 231.24 22.1268 232.289 22.7929 232.862C23.0783 233.148 23.5541 233.338 23.9347 233.338Z" fill="white"/>
<path fill-rule="evenodd" clip-rule="evenodd" d="M81.8809 224.755C82.2615 224.755 82.5469 224.66 82.9275 224.374L88.922 219.701C89.588 219.128 89.7783 218.079 89.2074 217.412C88.6365 216.744 87.5899 216.553 86.9238 217.126L80.9294 221.799C80.2634 222.371 80.073 223.42 80.6439 224.088C80.9294 224.469 81.4051 224.755 81.8809 224.755Z" fill="white"/>
<path fill-rule="evenodd" clip-rule="evenodd" d="M758.586 260.519L748.405 263.284L743.457 244.974L759.537 240.587L762.297 250.696L758.586 260.519ZM761.821 236.581L739.461 242.685L746.121 267.385L761.06 263.284L765.627 250.886L761.821 236.581Z" fill="white"/>
<path fill-rule="evenodd" clip-rule="evenodd" d="M737.082 276.541L736.035 272.535L739.651 271.582L730.707 238.393L767.149 228.379L772.953 250.028L764.295 269.102L737.082 276.541ZM869.626 222.085L867.532 226.472L862.489 224.469C861.728 224.183 860.777 224.565 860.396 225.327L858.017 230.287L852.974 228.284C852.213 227.998 851.262 228.379 850.881 229.142L848.502 234.101L843.459 232.099C842.698 231.813 841.747 232.194 841.366 232.957L838.987 237.916L833.944 235.913C833.183 235.627 832.232 236.009 831.851 236.772L829.472 241.731L824.429 239.728C823.668 239.442 822.717 239.824 822.336 240.587L819.957 245.546L814.914 243.543C814.153 243.257 813.202 243.638 812.821 244.401L810.442 249.361L805.4 247.358C804.638 247.072 803.687 247.453 803.306 248.216L800.927 253.175L795.885 251.173C795.123 250.886 794.172 251.268 793.791 252.031L791.412 256.99L786.37 254.987C785.608 254.701 784.657 255.083 784.276 255.846L781.898 260.805L776.855 258.802C776.093 258.516 775.142 258.898 774.761 259.66L772.383 264.62L770.575 263.952L775.808 251.268L775.998 250.791L775.808 250.219L771.526 234.197L769.814 227.998L863.155 200.341L869.626 222.085ZM769.147 266.336L772.953 267.862C773.144 267.958 773.334 267.958 773.524 267.958C774.095 267.958 774.761 267.576 774.952 267.004L777.33 262.045L782.373 264.047C783.134 264.334 784.086 263.952 784.467 263.189L786.845 258.23L791.888 260.233C792.649 260.519 793.601 260.137 793.982 259.374L796.36 254.415L801.403 256.418C802.164 256.704 803.116 256.323 803.497 255.56L805.875 250.6L810.918 252.603C811.679 252.889 812.631 252.508 813.011 251.745L815.39 246.786L820.433 248.788C821.194 249.074 822.146 248.693 822.526 247.93L824.905 242.971L829.948 244.974C830.709 245.26 831.661 244.878 832.041 244.115L834.42 239.156L839.463 241.159C840.224 241.445 841.176 241.063 841.556 240.3L843.935 235.341L848.978 237.344C849.739 237.63 850.691 237.249 851.071 236.486L853.45 231.527L858.493 233.529C859.254 233.815 860.206 233.434 860.586 232.671L862.965 227.712L868.008 229.714C868.769 230.001 869.721 229.619 870.101 228.856L873.051 222.562C873.241 222.18 873.241 221.799 873.146 221.417L866.581 197.003C866.486 196.621 866.2 196.24 865.82 195.954C865.439 195.763 864.963 195.668 864.583 195.858L768.196 224.469L726.711 236.009L735.655 269.197L732.039 270.151L734.798 280.546L766.674 271.868L769.147 266.336Z" fill="white"/>
<path fill-rule="evenodd" clip-rule="evenodd" d="M408.149 437.238C407.008 439.241 405.295 440.576 403.106 441.244C398.73 442.483 394.162 439.908 392.925 435.521C390.166 425.889 386.55 413.3 385.409 407.483C383.125 396.134 379.604 361.038 379.604 360.752C379.604 360.657 379.604 360.561 379.509 360.466L376.274 348.64L378.558 347.972C382.839 352.455 388.834 354.744 395.019 354.267L395.494 355.888C395.78 358.654 399.11 391.556 401.299 402.81C402.44 408.723 405.961 421.311 408.72 430.848C409.481 433.042 409.196 435.331 408.149 437.238ZM411.955 429.99C409.196 420.548 405.675 407.96 404.534 402.238C402.25 390.889 398.729 355.793 398.729 355.507C398.729 355.411 398.73 355.316 398.634 355.22L397.778 352.169C397.588 351.406 396.731 350.833 395.97 351.024C390.071 351.978 384.267 349.784 380.366 345.207C379.985 344.73 379.319 344.539 378.653 344.73L373.8 346.065C373.42 346.16 373.039 346.446 372.849 346.828C372.658 347.209 372.563 347.686 372.658 348.068L376.274 361.324C376.56 364.09 379.89 396.992 382.078 408.246C383.22 414.159 386.836 426.938 389.595 436.57C391.022 441.625 395.685 444.963 400.728 444.963C401.774 444.963 402.726 444.868 403.772 444.582C406.817 443.723 409.291 441.816 410.814 439.05C412.526 436.189 412.812 432.946 411.955 429.99Z" fill="white"/>
<path fill-rule="evenodd" clip-rule="evenodd" d="M413.382 338.435L416.332 337.577L419.567 349.403C419.567 349.498 419.662 349.594 419.662 349.689C419.853 349.975 434.601 381.924 438.407 392.891C440.405 398.423 443.735 411.202 446.209 420.834C447.351 425.221 444.687 429.799 440.405 430.944C438.216 431.516 435.933 431.23 434.03 430.085C432.127 428.941 430.7 427.129 430.129 424.935C427.655 415.303 424.325 402.619 422.327 396.992C418.521 386.12 404.629 356.174 403.487 353.599L403.011 351.882C408.244 349.212 412.05 344.253 413.382 338.435ZM400.442 349.594C399.681 349.88 399.3 350.738 399.491 351.501L400.347 354.648C400.347 354.743 400.442 354.839 400.442 354.934C400.632 355.22 415.381 387.169 419.187 398.137C421.09 403.668 424.515 416.257 426.894 425.794C427.655 428.845 429.558 431.325 432.317 432.946C434.125 433.995 436.123 434.472 438.121 434.472C439.168 434.472 440.215 434.377 441.166 434.091C447.256 432.374 450.871 426.08 449.349 419.976C446.875 410.248 443.45 397.469 441.452 391.747C437.646 380.875 423.754 350.929 422.612 348.354L418.996 335.097C418.901 334.716 418.616 334.334 418.235 334.144C417.854 333.953 417.379 333.858 416.998 333.953L411.479 335.479C410.909 335.67 410.433 336.146 410.338 336.814C409.386 342.536 405.58 347.305 400.442 349.594Z" fill="white"/>
<path fill-rule="evenodd" clip-rule="evenodd" d="M373.705 291.609L377.035 290.655L380.08 302.004C379.224 303.53 378.938 305.342 379.414 306.964C379.89 308.68 381.032 310.015 382.554 310.874L385.123 320.125C385.218 320.601 385.599 320.983 386.075 321.174C386.55 321.364 387.026 321.364 387.502 321.174C388.263 320.792 389.024 320.506 389.785 320.315C390.547 320.125 391.403 319.934 392.259 319.934C392.735 319.934 393.211 319.648 393.496 319.266C393.782 318.885 393.877 318.313 393.782 317.931L391.213 308.68C392.069 307.154 392.354 305.342 391.879 303.721C391.403 302.004 390.261 300.669 388.739 299.811L385.694 288.462L389.024 287.508L402.25 310.111L406.722 326.419L406.246 326.514C405.771 326.61 405.485 326.896 405.2 327.277C405.009 327.659 404.914 328.136 405.105 328.517L405.2 328.803C405.2 328.899 405.295 328.994 405.295 329.185C407.103 335.956 403.201 342.918 396.446 344.73C389.785 346.542 382.744 342.632 380.936 335.86C380.936 335.765 380.841 335.67 380.841 335.479L380.746 335.193C380.651 334.716 380.366 334.335 379.985 334.144C379.7 333.953 379.414 333.953 379.129 333.953C378.938 333.953 378.843 333.953 378.653 334.048L378.177 334.144L373.705 317.836V291.609ZM377.606 337.768L377.987 337.673C379.224 341.392 381.793 344.444 385.218 346.446C387.597 347.877 390.356 348.545 393.02 348.545C394.448 348.545 395.875 348.354 397.207 347.972C405.39 345.684 410.243 337.482 408.53 329.28L408.91 329.185C409.767 328.899 410.338 328.04 410.052 327.182L405.105 309.062C405.105 308.966 405.009 308.776 404.914 308.68L391.117 284.647C390.737 283.98 389.976 283.693 389.31 283.884L383.22 285.601C382.364 285.887 381.793 286.745 382.078 287.604L385.789 301.241C385.884 301.718 386.265 302.195 386.741 302.386C387.692 302.767 388.358 303.53 388.644 304.484C388.929 305.438 388.739 306.487 388.073 307.25C387.787 307.631 387.597 308.203 387.787 308.68L390.071 316.882C389.69 316.977 389.31 317.073 388.929 317.168C388.548 317.263 388.168 317.359 387.787 317.55L385.504 309.348C385.408 308.871 385.028 308.394 384.552 308.203C383.601 307.822 382.935 307.059 382.649 306.105C382.364 305.152 382.554 304.102 383.22 303.34C383.505 302.958 383.696 302.386 383.505 301.909L379.795 288.271C379.509 287.413 378.653 286.841 377.796 287.127L371.707 288.843C371.041 289.034 370.47 289.702 370.47 290.465L370.66 318.217C370.66 318.408 370.66 318.503 370.755 318.599L375.703 336.719C375.894 337.482 376.75 337.959 377.606 337.768Z" fill="white"/>
<path fill-rule="evenodd" clip-rule="evenodd" d="M246.3 213.025L268.279 206.73L285.882 201.676L293.208 227.807L235.928 244.115L228.602 217.984L246.3 213.025ZM248.583 208.924L248.012 207.016L263.712 202.534L264.283 204.441L252.865 207.684L248.583 208.924ZM293.399 307.536C293.779 308.68 293.589 309.92 293.018 311.064C292.447 312.113 291.496 312.876 290.259 313.258L283.027 315.261C281.886 315.547 280.649 315.451 279.602 314.879C278.555 314.307 277.794 313.258 277.509 312.113L259.621 240.873L271.514 237.439L293.399 307.536ZM233.74 248.216L256.385 241.731L274.274 312.876C274.845 314.879 276.177 316.596 277.984 317.645C279.126 318.312 280.458 318.694 281.79 318.694C282.456 318.694 283.218 318.599 283.884 318.408L291.115 316.405C293.113 315.833 294.826 314.498 295.777 312.686C296.824 310.874 297.014 308.68 296.443 306.677L274.559 236.676L297.205 230.191L288.07 197.766L267.423 203.583L265.996 198.529L244.016 204.823L245.443 209.878L224.605 215.79L233.74 248.216Z" fill="white"/>
<path fill-rule="evenodd" clip-rule="evenodd" d="M653.255 510.196L554.87 536.899L560.294 523.357C560.389 523.071 560.484 522.689 560.389 522.308L552.491 493.029C551.54 489.596 552.016 486.067 553.824 483.016C555.536 479.964 558.391 477.77 561.721 476.912L638.697 456.026C645.643 454.119 652.874 458.315 654.777 465.277L662.485 494.078C664.292 501.136 660.201 508.384 653.255 510.196ZM657.822 464.418C655.443 455.645 646.499 450.495 637.746 452.879L560.769 473.765C556.583 474.909 553.062 477.675 550.874 481.394C548.685 485.209 548.115 489.596 549.256 493.888L556.963 522.594L550.493 538.711C550.303 539.283 550.398 539.951 550.779 540.428C551.064 540.809 551.54 541 552.016 541C552.111 541 552.301 541 552.396 540.905L654.016 513.343C662.675 510.959 667.908 501.994 665.529 493.22L657.822 464.418Z" fill="white"/>
<path fill-rule="evenodd" clip-rule="evenodd" d="M574.947 505.904L572.568 506.572L573.329 509.528C573.9 511.531 573.424 513.057 571.521 513.534C569.714 514.01 568.572 513.057 568.001 510.959L564.766 498.942C564.195 496.939 564.766 495.413 566.574 494.937C568.381 494.46 569.523 495.413 570.094 497.512L570.665 499.705L573.044 499.037L572.473 497.035C571.521 493.601 569.333 491.789 565.812 492.743C562.387 493.697 561.34 496.367 562.292 499.8L565.432 511.531C566.383 514.964 568.572 516.776 571.997 515.822C575.518 514.869 576.469 512.198 575.518 508.765L574.947 505.904Z" fill="white"/>
<path fill-rule="evenodd" clip-rule="evenodd" d="M573.424 490.931L579.514 513.629L581.988 512.866L576.564 492.552L582.083 491.027L587.506 511.436L590.075 510.673L583.986 488.07L573.424 490.931Z" fill="white"/>
<path fill-rule="evenodd" clip-rule="evenodd" d="M593.691 502.471L592.645 488.738L598.734 501.136L593.691 502.471ZM590.266 486.353L592.074 510.196L594.357 509.528L593.977 504.76L599.686 503.234L601.779 507.525L604.253 506.858L593.882 485.4L590.266 486.353Z" fill="white"/>
<path fill-rule="evenodd" clip-rule="evenodd" d="M613.958 495.318L611.579 495.986L612.34 498.942C612.911 500.945 612.436 502.471 610.533 502.948C608.725 503.424 607.583 502.471 607.012 500.373L603.777 488.356C603.206 486.353 603.777 484.827 605.585 484.351C607.393 483.874 608.535 484.827 609.105 486.926L609.676 489.119L612.055 488.452L611.484 486.449C610.533 483.015 608.344 481.203 604.824 482.157C601.398 483.111 600.352 485.781 601.303 489.214L604.443 500.945C605.395 504.378 607.583 506.19 611.008 505.237C614.529 504.283 615.48 501.612 614.529 498.179L613.958 495.318Z" fill="white"/>
<path fill-rule="evenodd" clip-rule="evenodd" d="M620.238 478.247L619.477 488.928L619.096 496.653L614.624 479.773L612.341 480.345L618.43 503.043L621.094 502.28L621.57 490.931L621.951 482.729L626.803 500.754L629.087 500.182L622.997 477.484L620.238 478.247Z" fill="white"/>
<path fill-rule="evenodd" clip-rule="evenodd" d="M636.318 495.699L633.559 496.462L631.18 487.688L633.844 486.925C635.652 486.449 636.794 486.83 637.46 489.024L638.221 491.885C638.697 494.078 638.126 495.223 636.318 495.699ZM639.934 488.642C638.982 485.018 636.699 483.778 633.178 484.732L630.514 485.4L628.611 478.342L635.652 476.435L635.081 474.146L625.566 476.721L631.656 499.324L636.889 497.893C640.41 496.939 641.551 494.555 640.6 491.026L639.934 488.642Z" fill="white"/>
<path fill-rule="evenodd" clip-rule="evenodd" d="M648.973 492.552C647.165 493.029 646.024 492.076 645.453 489.977L642.218 477.961C641.647 475.958 642.218 474.432 644.025 473.955C645.833 473.479 647.07 474.432 647.546 476.53L650.781 488.547C651.257 490.645 650.781 492.076 648.973 492.552ZM650.02 476.054C649.069 472.62 646.785 470.808 643.264 471.762C639.839 472.716 638.697 475.386 639.649 478.819L642.789 490.55C643.74 493.983 646.024 495.795 649.449 494.841C652.97 493.888 654.016 491.217 653.065 487.784L650.02 476.054Z" fill="white"/>
<path fill-rule="evenodd" clip-rule="evenodd" d="M224.32 401.189L119.75 364.853L133.071 355.888C133.357 355.697 133.547 355.411 133.738 355.03L144.394 324.035C145.631 320.411 148.2 317.454 151.626 315.833C155.051 314.212 158.952 313.926 162.568 315.165L244.206 343.49C251.628 346.065 255.624 354.267 253.055 361.801L242.589 392.319C239.925 399.758 231.742 403.764 224.32 401.189ZM256.1 362.85C259.24 353.695 254.387 343.585 245.253 340.438L163.615 312.114C154.48 308.966 144.394 313.83 141.254 322.986L130.788 353.504L115.183 363.995C114.708 364.376 114.422 364.948 114.517 365.52C114.612 366.093 114.993 366.665 115.564 366.856L223.273 404.24C225.176 404.908 227.079 405.194 228.982 405.194C236.309 405.194 243.065 400.616 245.634 393.273L256.1 362.85Z" fill="white"/>
<path fill-rule="evenodd" clip-rule="evenodd" d="M154.671 330.901L146.012 356.174L148.771 357.128L156.669 334.43L162.853 336.528L154.956 359.321L157.811 360.275L166.469 335.002L154.671 330.901Z" fill="white"/>
<path fill-rule="evenodd" clip-rule="evenodd" d="M175.889 344.921L171.322 358.272C170.561 360.561 169.133 361.61 167.04 360.847C165.042 360.18 164.471 358.463 165.327 356.174L169.895 342.822C170.656 340.534 172.083 339.484 174.176 340.247C176.174 340.915 176.65 342.632 175.889 344.921ZM175.033 337.672C171.131 336.337 168.372 338.149 167.04 342.059L162.568 355.125C161.236 358.94 162.283 362.182 166.184 363.518C170.085 364.853 172.844 363.041 174.176 359.131L178.648 346.065C179.98 342.155 178.934 339.008 175.033 337.672Z" fill="white"/>
<path fill-rule="evenodd" clip-rule="evenodd" d="M192.159 343.872L188.544 354.458C187.592 356.27 186.165 356.937 184.452 356.365C182.454 355.697 181.883 353.79 182.644 351.596L186.07 341.678L183.215 340.724L179.695 350.834C178.553 354.267 179.219 357.414 182.644 358.558C184.167 359.131 185.88 358.94 187.212 357.891L183.31 369.144L186.07 370.098L194.824 344.73L192.159 343.872Z" fill="white"/>
<path fill-rule="evenodd" clip-rule="evenodd" d="M206.622 348.926L199.201 358.463L193.872 365.616L200.342 346.733L197.869 345.874L189.115 371.147L192.064 372.196L199.867 361.706L205.385 354.267L198.535 374.39L201.008 375.343L209.762 349.975L206.622 348.926Z" fill="white"/>
<path fill-rule="evenodd" clip-rule="evenodd" d="M221.561 354.076L217.66 365.52L211.475 363.327L215.376 351.978L212.617 350.929L203.863 376.297L206.622 377.251L210.618 365.902L216.803 368L212.902 379.444L215.661 380.398L224.415 355.03L221.561 354.076Z" fill="white"/>
<path fill-rule="evenodd" clip-rule="evenodd" d="M228.602 368.763L223.273 375.82L229.744 356.937L227.27 356.079L218.516 381.352L221.466 382.401L229.268 371.91L234.882 364.471L227.936 384.69L230.41 385.548L239.163 360.18L236.023 359.131L228.602 368.763Z" fill="white"/>
<path fill-rule="evenodd" clip-rule="evenodd" d="M849.834 463.179L847.075 462.225L788.843 442.102L786.084 441.148L789.414 431.516L853.069 453.546L849.834 463.179ZM823.097 527.267C822.812 528.221 822.05 528.984 821.194 529.46C820.243 529.937 819.291 529.937 818.244 529.651L770.289 513.057C769.338 512.771 768.576 512.008 768.101 511.149C767.625 510.196 767.625 509.147 767.91 508.193L789.319 445.822L844.506 464.895L823.097 527.267ZM827.855 440.862L817.008 437.143C818.815 435.808 821.194 435.331 823.383 436.094C825.666 436.857 827.284 438.669 827.855 440.862ZM831.28 442.102C831.09 438.097 828.521 434.377 824.429 433.042C820.433 431.611 816.151 432.947 813.487 435.998L788.938 427.987C788.558 427.892 788.082 427.892 787.701 428.083C787.321 428.274 787.035 428.655 786.845 429.037L782.468 441.721C782.183 442.579 782.659 443.533 783.515 443.819L786.274 444.772L764.866 507.239C764.295 509.051 764.39 510.959 765.151 512.675C766.007 514.392 767.435 515.632 769.242 516.299L817.198 532.894C817.959 533.18 818.72 533.275 819.481 533.275C820.528 533.275 821.575 532.989 822.621 532.512C824.334 531.654 825.571 530.223 826.237 528.411L847.646 465.944L850.405 466.898C850.595 466.994 850.786 466.994 850.976 466.994C851.261 466.994 851.452 466.898 851.737 466.803C852.118 466.612 852.403 466.231 852.593 465.849L856.97 453.165C857.256 452.307 856.78 451.353 855.924 451.067L831.28 442.102Z" fill="white"/>
<path fill-rule="evenodd" clip-rule="evenodd" d="M797.216 512.771C797.407 512.866 797.597 512.866 797.787 512.866C798.453 512.866 799.119 512.484 799.31 511.722L815.485 464.609C815.771 463.751 815.295 462.797 814.439 462.511C813.582 462.225 812.631 462.702 812.345 463.56L796.17 510.672C795.98 511.531 796.36 512.389 797.216 512.771Z" fill="white"/>
<path fill-rule="evenodd" clip-rule="evenodd" d="M779.043 504.664C778.757 505.522 779.233 506.476 780.09 506.762C780.28 506.858 780.47 506.858 780.661 506.858C781.327 506.858 781.993 506.476 782.183 505.713L798.358 458.601C798.644 457.742 798.168 456.789 797.312 456.503C796.455 456.217 795.504 456.693 795.218 457.552L779.043 504.664Z" fill="white"/>
<path fill-rule="evenodd" clip-rule="evenodd" d="M814.439 518.683C814.629 518.779 814.819 518.779 815.01 518.779C815.676 518.779 816.342 518.397 816.532 517.634L832.707 470.522C832.993 469.664 832.517 468.71 831.661 468.424C830.804 468.138 829.853 468.614 829.567 469.473L813.392 516.585C813.107 517.444 813.582 518.397 814.439 518.683Z" fill="white"/>
<path fill-rule="evenodd" clip-rule="evenodd" d="M547.068 398.327C543.167 388.79 552.491 383.259 548.4 373.245C547.258 370.384 545.45 368.668 542.881 368.668C541.93 368.668 540.883 368.858 539.741 369.335C535.46 371.147 534.698 374.39 536.316 378.204L537.933 382.019L532.415 384.308L530.988 380.779C528.323 374.199 530.036 368.191 538.219 364.853C540.598 363.899 542.691 363.422 544.594 363.422C549.256 363.422 552.587 366.188 554.49 370.956C558.771 381.447 549.161 387.837 552.587 396.229C552.872 396.992 553.443 397.755 553.919 398.423L548.59 400.616C547.924 400.044 547.449 399.376 547.068 398.327ZM549.732 403.668L555.06 401.475C556.012 401.093 556.773 400.235 556.963 399.281C557.249 398.232 556.964 397.183 556.297 396.42C555.917 395.943 555.631 395.466 555.441 395.085C554.394 392.51 555.156 390.126 556.583 386.406C558.2 382.019 560.199 376.679 557.439 369.907C554.87 363.708 550.303 360.37 544.499 360.37C542.12 360.37 539.551 360.943 536.887 362.087C532.129 364.09 528.989 366.951 527.467 370.575C526.04 374.008 526.23 378.109 527.943 382.21L529.37 385.739C529.655 386.502 530.322 387.169 531.178 387.551C531.558 387.741 532.034 387.837 532.415 387.837C532.795 387.837 533.271 387.741 533.652 387.551L539.17 385.262C539.932 384.976 540.598 384.308 540.978 383.45C541.359 382.687 541.359 381.733 540.978 380.97L539.361 377.155C538.219 374.294 538.98 373.341 540.978 372.578C541.739 372.292 542.31 372.101 542.881 372.101C543.357 372.101 544.404 372.101 545.45 374.676C547.068 378.586 546.021 381.542 544.784 385.262C543.357 389.363 541.74 393.94 544.213 399.758C544.689 400.902 545.26 401.951 546.116 402.905C546.782 403.668 547.639 404.145 548.685 404.145C548.876 403.954 549.351 403.859 549.732 403.668Z" fill="white"/>
<path fill-rule="evenodd" clip-rule="evenodd" d="M554.68 416.448L552.206 410.439L557.82 408.15L560.294 414.159L554.68 416.448ZM557.82 404.812C557.439 404.812 556.963 404.908 556.583 405.099L550.969 407.387C550.208 407.674 549.542 408.341 549.161 409.2C548.781 409.962 548.781 410.916 549.161 411.679L551.635 417.687C551.921 418.45 552.587 419.118 553.443 419.499C553.824 419.69 554.299 419.786 554.68 419.786C555.06 419.786 555.536 419.69 555.917 419.499L561.531 417.211C563.243 416.543 564.005 414.636 563.339 412.919L560.865 406.911C560.294 405.575 559.057 404.812 557.82 404.812Z" fill="white"/>
<path fill-rule="evenodd" clip-rule="evenodd" d="M926.43 415.78L911.777 404.05L912.919 396.134L918.247 389.363L926.049 386.12L940.702 397.851L926.43 415.78ZM854.497 344.062L856.4 341.583L914.822 388.218L910.921 393.082L852.499 346.447L854.497 344.062ZM827.95 329.089C826.903 328.231 826.332 327.087 826.142 325.847C825.952 324.512 826.332 323.272 827.189 322.223C828.045 321.174 829.187 320.506 830.424 320.411C830.614 320.411 830.805 320.411 830.995 320.411C832.137 320.411 833.183 320.792 834.04 321.46L849.264 333.572L855.068 338.245L852.023 342.06L849.073 345.779L848.978 345.874L827.95 329.089ZM829.758 355.411L809.967 339.675C799.881 331.664 798.168 316.882 806.256 306.773L807.398 305.342C815.39 295.233 830.138 293.517 840.224 301.528L859.92 317.264L849.93 329.948L836.038 318.885C834.325 317.55 832.232 316.882 830.043 317.168C827.855 317.454 825.952 318.503 824.62 320.22C823.288 321.937 822.622 324.035 822.907 326.228C823.193 328.422 824.239 330.329 825.952 331.664L839.844 342.727L829.758 355.411ZM943.938 396.229L927.286 382.878C926.811 382.496 926.145 382.401 925.669 382.687L917.486 386.12L858.493 339.008L858.588 338.912C859.159 338.245 859.064 337.196 858.303 336.624L852.499 331.95L863.536 317.931C863.821 317.55 863.917 317.168 863.917 316.691C863.821 316.215 863.631 315.833 863.346 315.642L842.223 298.953C830.709 289.797 813.963 291.705 804.829 303.244L803.687 304.675C794.553 316.215 796.456 333.095 807.969 342.25L828.997 359.035C829.282 359.226 829.663 359.417 830.043 359.417C830.138 359.417 830.138 359.417 830.234 359.417C830.709 359.321 831.09 359.131 831.28 358.845L842.318 344.825L848.122 349.498C848.407 349.689 848.788 349.88 849.168 349.88C849.264 349.88 849.264 349.88 849.359 349.88C849.834 349.785 850.215 349.594 850.405 349.308L850.501 349.212L909.493 396.325L908.256 404.717C908.161 405.289 908.447 405.862 908.827 406.243L925.479 419.595C925.764 419.786 926.145 419.976 926.525 419.976C926.62 419.976 926.62 419.976 926.715 419.976C927.191 419.881 927.572 419.69 927.762 419.404L944.033 398.804C944.794 397.851 944.604 396.802 943.938 396.229Z" fill="white"/>
<path fill-rule="evenodd" clip-rule="evenodd" d="M931.378 398.9L925.288 406.529L919.008 401.475L919.484 398.232L921.863 395.18L925.098 393.845L931.378 398.9ZM924.812 390.507L920.34 392.415C920.055 392.51 919.864 392.701 919.674 392.891L916.725 396.611C916.534 396.802 916.439 397.088 916.344 397.374L915.678 401.951C915.583 402.524 915.868 403.096 916.249 403.477L924.527 410.058C924.812 410.249 925.193 410.439 925.574 410.439C925.669 410.439 925.669 410.439 925.764 410.439C926.24 410.344 926.62 410.153 926.81 409.867L934.898 399.663C935.469 398.995 935.374 397.946 934.613 397.374L926.335 390.793C925.954 390.316 925.288 390.221 924.812 390.507Z" fill="white"/>
<path fill-rule="evenodd" clip-rule="evenodd" d="M662.199 217.221L660.486 221.513L651.637 220.75L654.206 214.074L662.199 217.221ZM647.356 207.207C647.165 206.635 647.07 206.063 647.356 205.586L649.734 199.292L658.108 202.534L657.917 203.106C657.632 203.965 658.013 204.918 658.869 205.204L664.863 207.493C665.244 207.684 665.72 207.684 666.1 207.493C666.481 207.303 666.766 207.016 666.957 206.54L667.147 205.967L675.52 209.21L673.141 215.504C672.666 216.649 671.429 217.221 670.382 216.744L664.958 214.646L653.921 210.45L648.498 208.352C647.927 208.161 647.546 207.684 647.356 207.207ZM650.401 223.992L659.249 224.755L658.012 228.093L649.164 227.33L650.401 223.992ZM647.927 230.477L656.776 231.24L654.968 236.009L646.119 235.246L647.927 230.477ZM650.305 248.025L644.977 250.028L642.408 244.878L644.882 238.298L653.731 239.061L650.305 248.025ZM642.693 252.889C642.979 253.461 643.55 253.747 644.121 253.747C644.311 253.747 644.501 253.747 644.692 253.652L652.113 250.791C652.589 250.6 652.874 250.314 653.065 249.837L665.244 218.27L669.145 219.796C669.811 220.082 670.477 220.177 671.048 220.177C673.236 220.177 675.235 218.842 676.091 216.649L679.136 208.829C679.421 207.97 679.041 207.016 678.184 206.73L666.766 202.248C666.386 202.057 665.91 202.057 665.529 202.248C665.149 202.439 664.863 202.725 664.673 203.202L664.483 203.774L661.533 202.629L661.723 202.057C662.009 201.199 661.628 200.245 660.772 199.959L649.354 195.477C648.973 195.286 648.498 195.286 648.117 195.477C647.736 195.668 647.451 195.954 647.261 196.43L644.216 204.251C643.74 205.586 643.74 207.112 644.311 208.447C644.882 209.782 645.928 210.831 647.356 211.308L651.257 212.834L639.078 244.401C638.887 244.878 638.887 245.355 639.173 245.736L642.693 252.889Z" fill="white"/>
<path fill-rule="evenodd" clip-rule="evenodd" d="M504.06 309.443C503.68 309.252 503.584 308.871 503.679 308.68C503.775 308.489 503.775 308.108 504.25 308.013L514.051 305.724L526.325 275.11L501.015 262.712C498.351 261.377 496.353 259.088 495.402 256.227C494.45 253.366 494.64 250.314 495.972 247.644L497.019 245.45L485.982 240.014L492.452 226.853L495.782 220.082L568.572 256.036C568.952 256.227 568.952 256.704 568.952 256.799C568.952 256.895 568.857 257.467 568.286 257.562L559.913 259.47L558.105 258.611L532.415 323.462L504.06 309.443ZM516.43 277.494L517.476 274.538L522.043 276.827L519.189 283.979C517.096 282.072 515.573 279.211 516.43 277.494ZM484.364 235.627L480.939 233.911L482.937 229.81L487.98 219.605L491.405 221.322L488.551 227.139L484.364 235.627ZM459.911 219.51L461.814 215.6L463.717 211.69L470.187 208.924L485.696 216.649L482.842 222.466L477.133 234.101L461.719 226.376L459.911 219.51ZM430.414 200.15L433.745 199.196L438.312 201.485L440.405 207.779L431.651 203.392L430.414 200.15ZM450.015 212.452L444.592 209.782L442.498 203.488L447.922 206.158L450.015 212.452ZM457.913 216.267L454.202 214.455L452.108 208.161L460.006 212.071L457.913 216.267ZM560.008 262.998L569.142 260.9C570.855 260.519 572.092 259.088 572.282 257.276C572.473 255.559 571.616 253.938 570.094 253.175L494.26 215.6L492.832 218.461L489.407 216.744L490.168 215.218L470.282 205.395L461.433 209.21L434.125 195.667L426.133 197.956L429.177 205.777L456.485 219.319L458.864 228.665L478.655 238.488L479.416 236.962L482.842 238.679L481.415 241.54L492.547 247.072C491.12 250.409 491.025 254.034 492.166 257.467C493.403 261.186 495.972 264.143 499.493 265.859L514.527 273.298L513.48 276.35C511.672 280.165 514.717 284.838 517.952 287.317L511.577 303.149L503.489 305.056C501.777 305.438 500.635 306.773 500.444 308.489C500.254 310.206 501.11 311.827 502.633 312.59L534.223 328.231L560.008 262.998Z" fill="white"/>
<path fill-rule="evenodd" clip-rule="evenodd" d="M456.39 473.86C446.59 469.95 435.457 474.814 431.556 484.637L418.14 518.588C416.713 522.212 416.713 526.313 418.33 529.937C419.853 533.561 422.802 536.327 426.418 537.853C428.131 538.52 430.034 538.902 431.842 538.902C433.84 538.902 435.838 538.52 437.646 537.662C441.261 536.136 444.021 533.18 445.448 529.556L459.054 495.032C460.101 492.362 460.101 489.405 458.959 486.735C457.817 484.064 455.724 482.062 453.06 481.013H452.965C450.301 479.963 447.351 479.963 444.687 481.108C442.023 482.252 440.024 484.35 438.978 487.021L429.843 510.1L432.888 511.34L442.023 488.261C442.784 486.353 444.211 484.923 446.019 484.16C447.827 483.397 449.92 483.301 451.728 484.064H451.823C453.726 484.827 455.153 486.258 455.914 488.07C456.676 489.882 456.771 491.98 456.01 493.887L442.403 528.411C440.12 534.324 433.459 537.185 427.56 534.896C424.705 533.752 422.517 531.558 421.28 528.793C420.043 525.932 420.043 522.88 421.185 520.019L434.601 486.067C437.836 477.865 447.066 473.86 455.153 477.102C462.86 480.154 466 488.642 462.575 497.13L453.916 519.065L456.961 520.305L465.62 498.37C469.711 487.879 465.81 477.675 456.39 473.86Z" fill="white"/>
<path fill-rule="evenodd" clip-rule="evenodd" d="M1018.34 502.471L1000.74 532.512C998.458 536.422 993.415 537.757 989.514 535.468C987.611 534.324 986.279 532.512 985.708 530.414C985.137 528.316 985.423 526.027 986.564 524.12L1004.17 494.078C1005.69 491.408 1008.45 489.977 1011.3 489.977C1012.73 489.977 1014.16 490.359 1015.49 491.122C1017.39 492.266 1018.73 494.078 1019.3 496.176C1019.77 498.37 1019.49 500.563 1018.34 502.471ZM1017.01 488.356C1011.59 485.113 1004.45 487.021 1001.31 492.457L983.71 522.498C982.188 525.169 981.712 528.316 982.473 531.272C983.234 534.229 985.137 536.804 987.801 538.33C989.609 539.379 991.607 539.951 993.606 539.951C997.602 539.951 1001.41 537.948 1003.5 534.229L1021.1 504.187C1022.63 501.517 1023.1 498.37 1022.34 495.413C1021.58 492.362 1019.68 489.882 1017.01 488.356Z" fill="white"/>
<path fill-rule="evenodd" clip-rule="evenodd" d="M1086.95 447.729L1074.39 469.282L1005.78 428.846L1018.34 407.292L1086.95 447.729ZM1001.31 429.99L1075.53 473.765L1091.42 446.584L1017.2 402.81L1001.31 429.99Z" fill="white"/>
<path fill-rule="evenodd" clip-rule="evenodd" d="M1091.13 462.797L1085.42 459.364L1083.81 462.225L1088.18 464.8L1077.62 482.92L1031.38 463.655C1030.62 463.369 1029.76 463.655 1029.38 464.323L1016.92 485.59L1019.77 487.212L1031.47 467.089L1077.72 486.353C1078.48 486.639 1079.34 486.353 1079.72 485.686L1091.8 464.895C1091.99 464.514 1092.09 464.037 1091.99 463.655C1091.9 463.274 1091.51 462.988 1091.13 462.797Z" fill="white"/>
<path fill-rule="evenodd" clip-rule="evenodd" d="M1109.78 249.456C1110.16 247.93 1111.12 246.69 1112.45 245.927C1113.3 245.45 1114.35 245.164 1115.3 245.164C1115.78 245.164 1116.35 245.26 1116.82 245.355C1119.87 246.213 1121.68 249.361 1120.92 252.412C1120.06 255.464 1116.92 257.276 1113.87 256.513C1112.35 256.132 1111.12 255.178 1110.35 253.843C1109.59 252.508 1109.4 250.982 1109.78 249.456ZM1113.02 259.756C1113.78 259.947 1114.64 260.042 1115.4 260.042C1119.39 260.042 1123.01 257.372 1124.15 253.366C1125.48 248.502 1122.63 243.543 1117.78 242.208C1115.49 241.54 1113.02 241.922 1110.92 243.066C1108.83 244.306 1107.31 246.213 1106.74 248.598C1105.31 253.366 1108.17 258.421 1113.02 259.756Z" fill="white"/>
<path fill-rule="evenodd" clip-rule="evenodd" d="M1103.98 242.113L1113.59 236.581L1124.25 239.442L1129.76 249.074L1126.91 259.756L1117.3 265.287L1106.64 262.426L1101.12 252.794L1103.98 242.113ZM1104.07 264.62C1104.26 265.001 1104.65 265.287 1105.03 265.383L1117.01 268.625C1117.11 268.625 1117.3 268.721 1117.4 268.721C1117.68 268.721 1117.97 268.625 1118.25 268.53L1129 262.331C1129.38 262.14 1129.67 261.759 1129.76 261.377L1133 249.361C1133.1 248.979 1133.1 248.502 1132.81 248.121L1126.62 237.344C1126.43 236.963 1126.05 236.676 1125.67 236.581L1113.68 233.339C1113.3 233.243 1112.83 233.243 1112.45 233.529L1101.7 239.728C1101.32 239.919 1101.03 240.3 1100.93 240.682L1097.7 252.699C1097.6 253.08 1097.6 253.557 1097.89 253.938L1104.07 264.62Z" fill="white"/>
<path fill-rule="evenodd" clip-rule="evenodd" d="M980.665 319.457L980.285 320.315C979.809 321.555 978.477 322.127 977.24 321.65L961.255 315.261C960.018 314.784 959.447 313.449 959.922 312.209L960.303 311.351C960.493 310.778 960.969 310.302 961.54 310.111C961.825 310.015 962.111 309.92 962.492 309.92C962.777 309.92 963.062 310.015 963.348 310.111L971.34 313.353L979.333 316.596C979.904 316.787 980.38 317.263 980.57 317.836C980.855 318.217 980.855 318.885 980.665 319.457ZM958.495 301.909L958.876 301.051C959.256 300.097 960.113 299.62 961.064 299.62C961.35 299.62 961.635 299.716 961.921 299.811L972.387 304.007L976.859 305.819L987.516 310.111C988.753 310.588 989.324 311.923 988.848 313.163L988.467 314.021C988.277 314.593 987.801 315.07 987.231 315.261C986.66 315.547 985.994 315.547 985.423 315.261L959.732 304.961C958.59 304.484 958.019 303.149 958.495 301.909ZM979.333 269.102C978.191 268.625 977.24 267.671 976.669 266.527C976.193 265.383 976.193 264.047 976.669 262.808C977.43 260.9 979.238 259.756 981.141 259.756C981.712 259.756 982.378 259.851 982.949 260.137C985.423 261.091 986.564 263.952 985.613 266.432C984.566 268.911 981.807 270.056 979.333 269.102ZM993.035 269.483C993.796 267.576 995.604 266.432 997.507 266.432C998.078 266.432 998.744 266.527 999.314 266.813C1001.79 267.767 1002.93 270.628 1001.98 273.107C1001.03 275.587 998.173 276.731 995.794 275.778C993.225 274.729 992.083 271.868 993.035 269.483ZM958.305 246.499C961.921 237.344 968.962 230.191 978.001 226.281C987.04 222.371 997.031 222.276 1006.17 225.995C1015.3 229.619 1022.44 236.676 1026.34 245.736C1030.24 254.797 1030.33 264.81 1026.62 273.966C1020.82 288.557 1006.36 297.904 990.751 297.141L989.609 297.045L986.089 305.915L985.042 305.533L979.523 303.34L990.656 275.492C991.512 276.922 992.844 278.067 994.462 278.734C995.413 279.116 996.46 279.306 997.412 279.306C1000.65 279.306 1003.6 277.399 1004.93 274.252C1006.55 270.151 1004.55 265.383 1000.46 263.761C996.365 262.14 991.607 264.143 989.99 268.244L976.479 302.1L975.051 301.528L988.563 267.671C990.18 263.571 988.182 258.802 984.091 257.181C979.999 255.56 975.242 257.562 973.624 261.663C972.007 265.764 974.005 270.532 978.096 272.154C979.048 272.535 980.094 272.726 981.046 272.726C981.712 272.726 982.473 272.631 983.139 272.44L972.007 300.288L965.727 297.713L969.247 288.843L968.391 288.08C956.592 277.876 952.501 261.091 958.305 246.499ZM983.329 321.555L983.71 320.697C983.995 319.934 984.091 319.171 984.091 318.313L984.186 318.408C984.852 318.694 985.518 318.789 986.279 318.789C987.04 318.789 987.801 318.599 988.467 318.313C989.8 317.74 990.941 316.596 991.417 315.261L991.798 314.402C992.939 311.637 991.607 308.585 989.038 307.25L991.703 300.478C1008.26 300.765 1023.39 290.751 1029.57 275.206C1033.57 265.192 1033.38 254.32 1029.19 244.401C1025 234.483 1017.2 226.853 1007.31 222.848C997.412 218.842 986.469 218.938 976.669 223.229C966.868 227.426 959.256 235.246 955.26 245.26C949.075 260.805 953.167 278.544 965.346 289.797L962.682 296.568C959.923 295.71 956.878 297.045 955.736 299.811L955.355 300.669C954.214 303.53 955.641 306.868 958.495 308.013L958.59 308.108C958.02 308.68 957.544 309.348 957.258 310.111L956.878 310.969C955.736 313.83 957.163 317.168 960.018 318.313L976.003 324.702C976.669 324.988 977.335 325.084 978.096 325.084C978.857 325.084 979.619 324.893 980.285 324.607C981.712 324.035 982.758 322.89 983.329 321.555Z" fill="white"/>
<path fill-rule="evenodd" clip-rule="evenodd" d="M971.341 241.54C971.816 241.54 972.197 241.35 972.482 241.064C977.811 235.532 985.233 232.385 992.94 232.48C993.796 232.576 994.557 231.813 994.557 230.859C994.557 230.001 993.891 229.238 992.94 229.142C984.376 228.952 976.003 232.48 970.104 238.679C969.438 239.347 969.533 240.396 970.199 240.968C970.579 241.445 970.96 241.54 971.341 241.54Z" fill="white"/>
<path fill-rule="evenodd" clip-rule="evenodd" d="M1029.29 232.957C1029.67 232.957 1029.95 232.862 1030.33 232.575L1036.33 227.902C1036.99 227.33 1037.18 226.281 1036.61 225.613C1036.04 224.946 1035 224.755 1034.33 225.327L1028.34 230C1027.67 230.573 1027.48 231.622 1028.05 232.289C1028.34 232.766 1028.81 232.957 1029.29 232.957Z" fill="white"/>
<path fill-rule="evenodd" clip-rule="evenodd" d="M61.8995 209.687C62.0898 209.782 62.2801 209.782 62.4704 209.782C63.1364 209.782 63.7073 209.401 63.9928 208.733L68.5599 197.193C68.9405 196.335 68.4648 195.381 67.6084 195.095C66.7521 194.714 65.8006 195.191 65.5151 196.049L60.948 207.589C60.6625 208.447 61.0431 209.401 61.8995 209.687Z" fill="white"/>
<path fill-rule="evenodd" clip-rule="evenodd" d="M36.6849 205.777C36.78 206.635 37.5412 207.207 38.3024 207.207C38.3976 207.207 38.4927 207.207 38.5879 207.207C39.4442 207.112 40.1102 206.254 40.0151 205.3L38.8733 197.766C38.7782 196.907 37.9218 196.24 37.0655 196.335C36.2091 196.431 35.5431 197.289 35.6382 198.243L36.6849 205.777Z" fill="white"/>
<path fill-rule="evenodd" clip-rule="evenodd" d="M1011.02 217.126C1011.21 217.221 1011.4 217.221 1011.59 217.221C1012.25 217.221 1012.83 216.839 1013.11 216.172L1017.68 204.632C1018.06 203.774 1017.58 202.82 1016.73 202.534C1015.87 202.153 1014.92 202.629 1014.63 203.488L1010.07 215.027C1009.78 215.79 1010.16 216.744 1011.02 217.126Z" fill="white"/>
<path fill-rule="evenodd" clip-rule="evenodd" d="M985.613 213.502C985.708 214.36 986.469 214.932 987.23 214.932C987.326 214.932 987.421 214.932 987.516 214.932C988.372 214.837 989.038 213.979 988.943 213.025L987.801 205.491C987.706 204.632 986.85 203.965 985.993 204.06C985.137 204.155 984.471 205.014 984.566 205.967L985.613 213.502Z" fill="white"/>
</g>
</g>
<defs>
<filter id="filter0_d_367_0" x="0" y="0" width="1140" height="551" filterUnits="userSpaceOnUse" color-interpolation-filters="sRGB">
<feFlood flood-opacity="0" result="BackgroundImageFix"/>
<feColorMatrix in="SourceAlpha" type="matrix" values="0 0 0 0 0 0 0 0 0 0 0 0 0 0 0 0 0 0 127 0" result="hardAlpha"/>
<feOffset dy="4"/>
<feGaussianBlur stdDeviation="3"/>
<feColorMatrix type="matrix" values="0 0 0 0 0.0666667 0 0 0 0 0.0666667 0 0 0 0 0.0666667 0 0 0 0.1 0"/>
<feBlend mode="normal" in2="BackgroundImageFix" result="effect1_dropShadow_367_0"/>
<feBlend mode="normal" in="SourceGraphic" in2="effect1_dropShadow_367_0" result="shape"/>
</filter>
<linearGradient id="paint0_linear_367_0" x1="25.5" y1="462.196" x2="973.984" y2="36.8503" gradientUnits="userSpaceOnUse">
<stop stop-color="#15CF74"/>
<stop offset="1" stop-color="#15CF9D"/>
</linearGradient>
<clipPath id="clip0_367_0">
<rect width="1128" height="346" fill="white" transform="translate(5 195)"/>
</clipPath>
</defs>
</svg>
