<svg width="22" height="20" viewBox="0 0 22 20" fill="none" xmlns="http://www.w3.org/2000/svg">
<path d="M14.1321 1.66669C14.6177 1.6668 15.0147 2.04158 15.0149 2.49969V3.33368H15.8987C17.3594 3.33385 18.5481 4.45545 18.5481 5.83368V15.8337C18.5479 17.2118 17.3593 18.3335 15.8987 18.3337H5.29907C3.83845 18.3335 2.64984 17.2118 2.64966 15.8337V5.83368C2.64966 4.45545 3.83833 3.33385 5.29907 3.33368H6.18286V2.49969C6.18305 2.04158 6.5801 1.6668 7.06567 1.66669C7.55134 1.66669 7.94928 2.04151 7.94946 2.49969V3.33368H13.2483V2.49969C13.2485 2.04151 13.6464 1.66669 14.1321 1.66669ZM4.41626 10.8337V15.8337C4.41645 16.2926 4.81267 16.6665 5.29907 16.6667H15.8987C16.3851 16.6665 16.7813 16.2926 16.7815 15.8337V10.8337H4.41626ZM7.06567 12.4997C7.55118 12.4998 7.94811 12.8747 7.94849 13.3327C7.94849 13.791 7.55141 14.1666 7.06567 14.1667C6.58004 14.1665 6.18188 13.7909 6.18188 13.3327C6.18226 12.8748 6.58027 12.4999 7.06567 12.4997ZM14.1311 12.4997C14.6167 12.4997 15.0145 12.8747 15.0149 13.3327C15.0149 13.791 14.6169 14.1667 14.1311 14.1667H10.5989C10.1132 14.1665 9.71509 13.7909 9.71509 13.3327C9.71546 12.8748 10.1135 12.4999 10.5989 12.4997H14.1311ZM5.29907 4.99969C4.81255 4.99986 4.41626 5.37461 4.41626 5.83368V9.16669H16.7815V5.83368C16.7815 5.37461 16.3852 4.99986 15.8987 4.99969H15.0149V5.83368C15.0147 6.2918 14.6177 6.66658 14.1321 6.66669C13.6464 6.66669 13.2485 6.29186 13.2483 5.83368V4.99969H7.94946V5.83368C7.94927 6.29186 7.55134 6.66669 7.06567 6.66669C6.5801 6.66658 6.18305 6.2918 6.18286 5.83368V4.99969H5.29907Z" fill="#2E3A59"/>
</svg>
