<svg width="22" height="20" viewBox="0 0 22 20" fill="none" xmlns="http://www.w3.org/2000/svg">
<path fill-rule="evenodd" clip-rule="evenodd" d="M13.2174 6.99581L9.8752 11.1366L8.43286 9.3983C8.13255 9.03497 7.57611 8.97164 7.19278 9.25581C6.80857 9.53914 6.74056 10.0633 7.04174 10.425L9.18892 13.0141C9.35673 13.2158 9.61287 13.3333 9.88491 13.3333H9.8911C10.164 13.3325 10.4219 13.2108 10.5871 13.005L14.6226 8.00497C14.9185 7.63831 14.8435 7.11664 14.4548 6.83747C14.0653 6.55831 13.5124 6.62997 13.2174 6.99581ZM10.8293 16.6676C6.9333 16.6676 3.76332 13.6767 3.76332 10.0009C3.76332 6.32508 6.9333 3.33425 10.8293 3.33425C14.7253 3.33425 17.8953 6.32508 17.8953 10.0009C17.8953 13.6767 14.7253 16.6676 10.8293 16.6676ZM10.8288 1.66711C5.95063 1.66711 1.99634 5.39878 1.99634 10.0004C1.99634 14.6021 5.95063 18.3338 10.8288 18.3338C15.707 18.3338 19.6613 14.6021 19.6613 10.0004C19.6613 5.39878 15.707 1.66711 10.8288 1.66711Z" fill="#FF9914"/>
</svg>
