<svg width="17" height="17" viewBox="0 0 17 17" fill="none" xmlns="http://www.w3.org/2000/svg">
<mask id="path-1-outside-1_421_5486" maskUnits="userSpaceOnUse" x="1.11035" y="1.16653" width="15" height="14" fill="black">
<rect fill="white" x="1.11035" y="1.16653" width="15" height="14"/>
<path d="M8.25977 14.1665C7.65013 14.1665 6.67898 13.2019 6.67871 12.0591C6.67871 11.3382 6.93738 10.4403 7.09863 9.95071L3.84277 9.95071C3.13371 9.95057 2.53056 9.42593 2.46875 8.75637C2.43451 8.38083 2.55979 8.01975 2.80566 7.75051C2.58856 7.53286 2.46289 7.23714 2.46289 6.92043C2.46295 6.46361 2.72442 6.06176 3.11328 5.86574C3.03274 5.70456 2.99024 5.52583 2.99024 5.33938C2.99034 4.8827 3.25193 4.48119 3.64063 4.28567C3.52048 4.04536 3.4853 3.76778 3.5459 3.4927C3.6641 2.95963 4.16651 2.57278 4.74024 2.57278L9.57715 2.57278C9.94338 2.57279 10.5333 2.692 10.9717 2.9175C11.1551 2.41004 11.6423 2.04644 12.2119 2.04641L13.793 2.04641C14.5196 2.04644 15.1104 2.6371 15.1104 3.36379L15.1104 7.57961C15.1102 8.30615 14.5195 8.89694 13.793 8.897L11.1582 8.897C11.0128 8.897 10.8946 8.77875 10.8945 8.63332L10.8945 8.53274L10.832 8.56496L9.31348 11.853L9.31348 13.6392C9.31348 13.7191 9.27734 13.7952 9.21484 13.8452C9.19852 13.8579 8.80671 14.1665 8.25977 14.1665ZM13.793 8.36965C14.2287 8.36962 14.5829 8.01528 14.583 7.57961L14.583 3.36379C14.583 2.92799 14.2288 2.57281 13.793 2.57278L12.2119 2.57278C11.7761 2.57281 11.4219 2.928 11.4219 3.36379L11.4219 8.36965L13.793 8.36965ZM8.25977 13.6392C8.48683 13.6392 8.6775 13.5572 8.78711 13.4966L8.78711 11.7954C8.78711 11.7575 8.79474 11.7189 8.81055 11.6841L10.3916 8.2593C10.4169 8.20513 10.4596 8.16067 10.5127 8.1343L10.8945 7.94387L10.8945 3.48977C10.5984 3.27077 9.96806 3.10014 9.57715 3.10012L4.74024 3.10012C4.4114 3.10012 4.12537 3.3129 4.06055 3.60696C4.0084 3.84299 4.07769 4.07252 4.25098 4.23586C4.32567 4.30636 4.35317 4.41291 4.32129 4.51028C4.28863 4.60777 4.20229 4.67686 4.10059 4.68899C3.76821 4.72747 3.51675 5.00702 3.5166 5.33938C3.5166 5.52065 3.59077 5.69096 3.72461 5.81692C3.79933 5.88744 3.82685 5.99394 3.79492 6.09133C3.76227 6.18883 3.67592 6.25791 3.57422 6.27004C3.24123 6.30851 2.99029 6.588 2.99023 6.92043C2.99023 7.16585 3.12791 7.38909 3.35059 7.50246C3.43481 7.54617 3.49036 7.63182 3.49414 7.72707C3.49781 7.82226 3.44949 7.91186 3.36914 7.96145C3.11043 8.12111 2.96525 8.40719 2.99316 8.70754C3.03004 9.10901 3.40339 9.42323 3.84277 9.42336L7.46875 9.42336C7.55516 9.42336 7.637 9.46648 7.68652 9.53762C7.73543 9.60924 7.74535 9.70023 7.71484 9.78078C7.7101 9.79397 7.20605 11.1316 7.20605 12.0591C7.20634 12.9221 7.97103 13.6392 8.25977 13.6392Z"/>
</mask>
<path d="M8.25977 14.1665C7.65013 14.1665 6.67898 13.2019 6.67871 12.0591C6.67871 11.3382 6.93738 10.4403 7.09863 9.95071L3.84277 9.95071C3.13371 9.95057 2.53056 9.42593 2.46875 8.75637C2.43451 8.38083 2.55979 8.01975 2.80566 7.75051C2.58856 7.53286 2.46289 7.23714 2.46289 6.92043C2.46295 6.46361 2.72442 6.06176 3.11328 5.86574C3.03274 5.70456 2.99024 5.52583 2.99024 5.33938C2.99034 4.8827 3.25193 4.48119 3.64063 4.28567C3.52048 4.04536 3.4853 3.76778 3.5459 3.4927C3.6641 2.95963 4.16651 2.57278 4.74024 2.57278L9.57715 2.57278C9.94338 2.57279 10.5333 2.692 10.9717 2.9175C11.1551 2.41004 11.6423 2.04644 12.2119 2.04641L13.793 2.04641C14.5196 2.04644 15.1104 2.6371 15.1104 3.36379L15.1104 7.57961C15.1102 8.30615 14.5195 8.89694 13.793 8.897L11.1582 8.897C11.0128 8.897 10.8946 8.77875 10.8945 8.63332L10.8945 8.53274L10.832 8.56496L9.31348 11.853L9.31348 13.6392C9.31348 13.7191 9.27734 13.7952 9.21484 13.8452C9.19852 13.8579 8.80671 14.1665 8.25977 14.1665ZM13.793 8.36965C14.2287 8.36962 14.5829 8.01528 14.583 7.57961L14.583 3.36379C14.583 2.92799 14.2288 2.57281 13.793 2.57278L12.2119 2.57278C11.7761 2.57281 11.4219 2.928 11.4219 3.36379L11.4219 8.36965L13.793 8.36965ZM8.25977 13.6392C8.48683 13.6392 8.6775 13.5572 8.78711 13.4966L8.78711 11.7954C8.78711 11.7575 8.79474 11.7189 8.81055 11.6841L10.3916 8.2593C10.4169 8.20513 10.4596 8.16067 10.5127 8.1343L10.8945 7.94387L10.8945 3.48977C10.5984 3.27077 9.96806 3.10014 9.57715 3.10012L4.74024 3.10012C4.4114 3.10012 4.12537 3.3129 4.06055 3.60696C4.0084 3.84299 4.07769 4.07252 4.25098 4.23586C4.32567 4.30636 4.35317 4.41291 4.32129 4.51028C4.28863 4.60777 4.20229 4.67686 4.10059 4.68899C3.76821 4.72747 3.51675 5.00702 3.5166 5.33938C3.5166 5.52065 3.59077 5.69096 3.72461 5.81692C3.79933 5.88744 3.82685 5.99394 3.79492 6.09133C3.76227 6.18883 3.67592 6.25791 3.57422 6.27004C3.24123 6.30851 2.99029 6.588 2.99023 6.92043C2.99023 7.16585 3.12791 7.38909 3.35059 7.50246C3.43481 7.54617 3.49036 7.63182 3.49414 7.72707C3.49781 7.82226 3.44949 7.91186 3.36914 7.96145C3.11043 8.12111 2.96525 8.40719 2.99316 8.70754C3.03004 9.10901 3.40339 9.42323 3.84277 9.42336L7.46875 9.42336C7.55516 9.42336 7.637 9.46648 7.68652 9.53762C7.73543 9.60924 7.74535 9.70023 7.71484 9.78078C7.7101 9.79397 7.20605 11.1316 7.20605 12.0591C7.20634 12.9221 7.97103 13.6392 8.25977 13.6392Z" fill="#FF7A7A"/>
<path d="M8.25977 14.1665L8.25977 14.6665L8.2598 14.6665L8.25977 14.1665ZM6.67871 12.0591L6.17871 12.0591L6.17871 12.0592L6.67871 12.0591ZM7.09863 9.95071L7.57353 10.1071L7.78975 9.45071L7.09863 9.45071L7.09863 9.95071ZM3.84277 9.95071L3.84268 10.4507L3.84277 10.4507L3.84277 9.95071ZM2.46875 8.75637L1.97082 8.80178L1.97087 8.80233L2.46875 8.75637ZM2.80566 7.75051L3.17487 8.08768L3.4967 7.73528L3.15966 7.3974L2.80566 7.75051ZM2.46289 6.92043L1.96289 6.92036L1.96289 6.92043L2.46289 6.92043ZM3.11328 5.86574L3.33834 6.31223L3.78327 6.08796L3.56055 5.64225L3.11328 5.86574ZM2.99024 5.33938L2.49024 5.33926L2.49024 5.33938L2.99024 5.33938ZM3.64063 4.28567L3.86531 4.73234L4.31091 4.50819L4.08784 4.06206L3.64063 4.28567ZM3.5459 3.4927L3.05775 3.38446L3.05761 3.38514L3.5459 3.4927ZM4.74024 2.57278L4.74024 3.07278L4.74024 2.57278ZM9.57715 2.57278L9.57717 2.07278L9.57715 2.07278L9.57715 2.57278ZM10.9717 2.9175L10.743 3.36214L11.2487 3.62223L11.4419 3.08743L10.9717 2.9175ZM12.2119 2.04641L12.2119 1.54641L12.2119 1.54641L12.2119 2.04641ZM13.793 2.04641L13.793 1.54641L13.793 1.54641L13.793 2.04641ZM15.1104 3.36379L15.6104 3.36379L15.1104 3.36379ZM15.1104 7.57961L15.6104 7.57972L15.6104 7.57961L15.1104 7.57961ZM13.793 8.897L13.793 9.397L13.793 9.397L13.793 8.897ZM11.1582 8.897L11.1582 9.397L11.1582 8.897ZM10.8945 8.63332L10.3945 8.63332L10.3945 8.63339L10.8945 8.63332ZM10.8945 8.53274L11.3945 8.53274L11.3945 7.71237L10.6654 8.08834L10.8945 8.53274ZM10.832 8.56496L10.6029 8.12056L10.4502 8.19932L10.3781 8.35532L10.832 8.56496ZM9.31348 11.853L8.85955 11.6434L8.81348 11.7432L8.81348 11.853L9.31348 11.853ZM9.31348 13.6392L8.81348 13.6392L9.31348 13.6392ZM9.21484 13.8452L9.52107 14.2406L9.52748 14.2354L9.21484 13.8452ZM13.793 8.36965L13.793 8.86965L13.793 8.86965L13.793 8.36965ZM14.583 7.57961L15.083 7.57979L15.083 7.57961L14.583 7.57961ZM14.583 3.36379L15.083 3.36379L14.583 3.36379ZM13.793 2.57278L13.793 2.07278L13.793 2.07278L13.793 2.57278ZM12.2119 2.57278L12.2119 2.07278L12.2119 2.07278L12.2119 2.57278ZM11.4219 3.36379L11.9219 3.36379L11.4219 3.36379ZM11.4219 8.36965L10.9219 8.36965L10.9219 8.86965L11.4219 8.86965L11.4219 8.36965ZM8.25977 13.6392L8.25977 14.1392L8.25982 14.1392L8.25977 13.6392ZM8.78711 13.4966L9.02898 13.9342L9.28711 13.7915L9.28711 13.4966L8.78711 13.4966ZM8.78711 11.7954L9.28711 11.7954L8.78711 11.7954ZM8.81055 11.6841L8.35658 11.4745L8.35536 11.4772L8.81055 11.6841ZM10.3916 8.2593L9.93841 8.04807L9.93764 8.04973L10.3916 8.2593ZM10.5127 8.1343L10.7351 8.5821L10.7358 8.58174L10.5127 8.1343ZM10.8945 7.94387L11.1177 8.39131L11.3945 8.25324L11.3945 7.94387L10.8945 7.94387ZM10.8945 3.48977L11.3945 3.48977L11.3945 3.23766L11.1918 3.08776L10.8945 3.48977ZM9.57715 3.10012L9.57717 2.60012L9.57715 2.60012L9.57715 3.10012ZM4.74024 3.10012L4.74024 3.60012L4.74024 3.10012ZM4.06055 3.60696L4.54877 3.71482L4.54883 3.71459L4.06055 3.60696ZM4.25098 4.23586L4.59418 3.87225L4.59394 3.87203L4.25098 4.23586ZM4.32129 4.51028L4.79541 4.66908L4.79647 4.66586L4.32129 4.51028ZM4.10059 4.68899L4.1581 5.18567L4.1598 5.18547L4.10059 4.68899ZM3.5166 5.33938L3.0166 5.33916L3.0166 5.33938L3.5166 5.33938ZM3.72461 5.81692L4.06781 5.45331L4.06728 5.4528L3.72461 5.81692ZM3.79492 6.09133L4.26905 6.25013L4.27004 6.24709L3.79492 6.09133ZM3.57422 6.27004L3.63161 6.76674L3.63343 6.76652L3.57422 6.27004ZM2.99023 6.92043L2.49023 6.92035L2.49023 6.92043L2.99023 6.92043ZM3.35059 7.50246L3.58088 7.05864L3.57744 7.05689L3.35059 7.50246ZM3.49414 7.72707L3.99377 7.70779L3.99375 7.70724L3.49414 7.72707ZM3.36914 7.96145L3.63173 8.38694L3.36914 7.96145ZM2.99316 8.70754L3.49107 8.66181L3.49102 8.66127L2.99316 8.70754ZM3.84277 9.42336L3.84262 9.92336L3.84277 9.92336L3.84277 9.42336ZM7.46875 9.42336L7.46875 8.92336L7.46875 9.42336ZM7.68652 9.53762L8.09945 9.25564L8.09687 9.25194L7.68652 9.53762ZM7.71484 9.78078L7.24718 9.60369L7.24433 9.61161L7.71484 9.78078ZM7.20605 12.0591L6.70605 12.0591L6.70605 12.0593L7.20605 12.0591ZM8.25977 14.1665L8.25977 13.6665C8.23121 13.6665 8.14721 13.6515 8.01675 13.5716C7.8924 13.4954 7.75438 13.3772 7.62532 13.2219C7.36458 12.908 7.17881 12.4906 7.17871 12.059L6.67871 12.0591L6.17871 12.0592C6.17888 12.7704 6.47882 13.4067 6.85613 13.8609C7.0461 14.0895 7.26519 14.2839 7.4944 14.4243C7.7175 14.561 7.98351 14.6665 8.25977 14.6665L8.25977 14.1665ZM6.67871 12.0591L7.17871 12.0591C7.17871 11.4255 7.41302 10.5944 7.57353 10.1071L7.09863 9.95071L6.62373 9.79428C6.46173 10.2861 6.17871 11.2509 6.17871 12.0591L6.67871 12.0591ZM7.09863 9.95071L7.09863 9.45071L3.84277 9.45071L3.84277 9.95071L3.84277 10.4507L7.09863 10.4507L7.09863 9.95071ZM3.84277 9.95071L3.84287 9.45071C3.37034 9.45061 3.00275 9.10165 2.96663 8.71041L2.46875 8.75637L1.97087 8.80233C2.05837 9.7502 2.89708 10.4505 3.84268 10.4507L3.84277 9.95071ZM2.46875 8.75637L2.96668 8.71096C2.9453 8.47646 3.02303 8.25395 3.17487 8.08768L2.80566 7.75051L2.43645 7.41334C2.09655 7.78554 1.92371 8.28521 1.97082 8.80178L2.46875 8.75637ZM2.80566 7.75051L3.15966 7.3974C3.03491 7.27234 2.96289 7.10314 2.96289 6.92043L2.46289 6.92043L1.96289 6.92043C1.96289 7.37113 2.1422 7.79338 2.45167 8.10362L2.80566 7.75051ZM2.46289 6.92043L2.96289 6.9205C2.96293 6.65816 3.11289 6.42587 3.33834 6.31223L3.11328 5.86574L2.88822 5.41926C2.33594 5.69765 1.96298 6.26906 1.96289 6.92036L2.46289 6.92043ZM3.11328 5.86574L3.56055 5.64225C3.51502 5.55112 3.49024 5.449 3.49024 5.33938L2.99024 5.33938L2.49024 5.33938C2.49024 5.60266 2.55046 5.85799 2.66601 6.08924L3.11328 5.86574ZM2.99024 5.33938L3.49024 5.3395C3.4903 5.07744 3.64022 4.84557 3.86531 4.73234L3.64063 4.28567L3.41594 3.83899C2.86365 4.11681 2.49039 4.68797 2.49024 5.33926L2.99024 5.33938ZM3.64063 4.28567L4.08784 4.06206C4.01974 3.92587 3.99783 3.76536 4.03419 3.60026L3.5459 3.4927L3.05761 3.38514C2.97278 3.7702 3.02121 4.16486 3.19341 4.50927L3.64063 4.28567ZM3.5459 3.4927L4.03404 3.60094C4.09784 3.31324 4.38363 3.07278 4.74024 3.07278L4.74024 2.57278L4.74024 2.07278C3.9494 2.07278 3.23036 2.60602 3.05776 3.38446L3.5459 3.4927ZM4.74024 2.57278L4.74024 3.07278L9.57715 3.07278L9.57715 2.57278L9.57715 2.07278L4.74024 2.07278L4.74024 2.57278ZM9.57715 2.57278L9.57713 3.07278C9.86931 3.07279 10.38 3.17545 10.743 3.36214L10.9717 2.9175L11.2004 2.47287C10.6865 2.20855 10.0174 2.07279 9.57717 2.07278L9.57715 2.57278ZM10.9717 2.9175L11.4419 3.08743C11.5561 2.77149 11.8598 2.54643 12.2119 2.54641L12.2119 2.04641L12.2119 1.54641C11.4248 1.54645 10.754 2.0486 10.5014 2.74757L10.9717 2.9175ZM12.2119 2.04641L12.2119 2.54641L13.793 2.54641L13.793 2.04641L13.793 1.54641L12.2119 1.54641L12.2119 2.04641ZM13.793 2.04641L13.793 2.54641C14.2435 2.54643 14.6104 2.91327 14.6104 3.36379L15.1104 3.36379L15.6104 3.36379C15.6104 2.36093 14.7958 1.54645 13.793 1.54641L13.793 2.04641ZM15.1104 3.36379L14.6104 3.36379L14.6104 7.57961L15.1104 7.57961L15.6104 7.57961L15.6104 3.36379L15.1104 3.36379ZM15.1104 7.57961L14.6104 7.57951C14.6103 8.03006 14.2433 8.39696 13.7929 8.397L13.793 8.897L13.793 9.397C14.7958 9.39692 15.6101 8.58224 15.6104 7.57972L15.1104 7.57961ZM13.793 8.897L13.793 8.397L11.1582 8.397L11.1582 8.897L11.1582 9.397L13.793 9.397L13.793 8.897ZM11.1582 8.897L11.1582 8.397C11.289 8.397 11.3945 8.50266 11.3945 8.63326L10.8945 8.63332L10.3945 8.63339C10.3946 9.05484 10.7366 9.397 11.1582 9.397L11.1582 8.897ZM10.8945 8.63332L11.3945 8.63332L11.3945 8.53274L10.8945 8.53274L10.3945 8.53274L10.3945 8.63332L10.8945 8.63332ZM10.8945 8.53274L10.6654 8.08834L10.6029 8.12056L10.832 8.56496L11.0612 9.00937L11.1237 8.97714L10.8945 8.53274ZM10.832 8.56496L10.3781 8.35532L8.85955 11.6434L9.31348 11.853L9.76741 12.0627L11.286 8.7746L10.832 8.56496ZM9.31348 11.853L8.81348 11.853L8.81348 13.6392L9.31348 13.6392L9.81348 13.6392L9.81348 11.853L9.31348 11.853ZM9.31348 13.6392L8.81348 13.6392C8.81348 13.5688 8.84512 13.5008 8.9022 13.455L9.21484 13.8452L9.52748 14.2354C9.70956 14.0896 9.81348 13.8694 9.81348 13.6392L9.31348 13.6392ZM9.21484 13.8452L8.90866 13.45C8.90734 13.451 8.90487 13.4529 8.89858 13.4575C8.89172 13.4625 8.88021 13.4705 8.86447 13.4807C8.83272 13.5012 8.78497 13.5294 8.72447 13.5577C8.60143 13.6152 8.43993 13.6665 8.25973 13.6665L8.25977 14.1665L8.2598 14.6665C8.62654 14.6665 8.93442 14.5635 9.1481 14.4635C9.25596 14.4131 9.34341 14.3618 9.40681 14.3208C9.43864 14.3003 9.46469 14.2822 9.48452 14.2679C9.49445 14.2607 9.50276 14.2545 9.50939 14.2495C9.51599 14.2445 9.52121 14.2404 9.52103 14.2405L9.21484 13.8452ZM13.793 8.36965L13.793 8.86965C14.505 8.86961 15.0828 8.29132 15.083 7.57979L14.583 7.57961L14.083 7.57943C14.083 7.73925 13.9524 7.86964 13.7929 7.86965L13.793 8.36965ZM14.583 7.57961L15.083 7.57961L15.083 3.36379L14.583 3.36379L14.083 3.36379L14.083 7.57961L14.583 7.57961ZM14.583 3.36379L15.083 3.36379C15.083 2.65262 14.5057 2.07282 13.793 2.07278L13.793 2.57278L13.7929 3.07278C13.9518 3.07279 14.083 3.20336 14.083 3.36379L14.583 3.36379ZM13.793 2.57278L13.793 2.07278L12.2119 2.07278L12.2119 2.57278L12.2119 3.07278L13.793 3.07278L13.793 2.57278ZM12.2119 2.57278L12.2119 2.07278C11.4992 2.07284 10.9219 2.65262 10.9219 3.36379L11.4219 3.36379L11.9219 3.36379C11.9219 3.20338 12.053 3.07279 12.212 3.07278L12.2119 2.57278ZM11.4219 3.36379L10.9219 3.36379L10.9219 8.36965L11.4219 8.36965L11.9219 8.36965L11.9219 3.36379L11.4219 3.36379ZM11.4219 8.36965L11.4219 8.86965L13.793 8.86965L13.793 8.36965L13.793 7.86965L11.4219 7.86965L11.4219 8.36965ZM8.25977 13.6392L8.25982 14.1392C8.60286 14.1391 8.87879 14.0172 9.02898 13.9342L8.78711 13.4966L8.54523 13.059C8.47621 13.0972 8.37079 13.1392 8.25971 13.1392L8.25977 13.6392ZM8.78711 13.4966L9.28711 13.4966L9.28711 11.7954L8.78711 11.7954L8.28711 11.7954L8.28711 13.4966L8.78711 13.4966ZM8.78711 11.7954L9.28711 11.7954C9.28711 11.8226 9.28195 11.8553 9.26573 11.891L8.81055 11.6841L8.35536 11.4772C8.30753 11.5824 8.28711 11.6924 8.28711 11.7954L8.78711 11.7954ZM8.81055 11.6841L9.26451 11.8937L10.8456 8.46887L10.3916 8.2593L9.93764 8.04973L8.35659 11.4745L8.81055 11.6841ZM10.3916 8.2593L10.8448 8.47053C10.8235 8.51625 10.7863 8.55668 10.7351 8.5821L10.5127 8.1343L10.2903 7.6865C10.1329 7.76467 10.0102 7.89401 9.93841 8.04807L10.3916 8.2593ZM10.5127 8.1343L10.7358 8.58174L11.1177 8.39131L10.8945 7.94387L10.6714 7.49643L10.2895 7.68686L10.5127 8.1343ZM10.8945 7.94387L11.3945 7.94387L11.3945 3.48977L10.8945 3.48977L10.3945 3.48977L10.3945 7.94387L10.8945 7.94387ZM10.8945 3.48977L11.1918 3.08776C10.9741 2.92677 10.6769 2.8092 10.4096 2.73231C10.1366 2.65379 9.8331 2.60013 9.57717 2.60012L9.57715 3.10012L9.57713 3.60012C9.71211 3.60013 9.91919 3.63179 10.1332 3.69334C10.3528 3.75653 10.5188 3.83377 10.5972 3.89178L10.8945 3.48977ZM9.57715 3.10012L9.57715 2.60012L4.74024 2.60012L4.74024 3.10012L4.74024 3.60012L9.57715 3.60012L9.57715 3.10012ZM4.74024 3.10012L4.74024 2.60012C4.20867 2.60012 3.69417 2.9463 3.57227 3.49932L4.06055 3.60696L4.54883 3.71459C4.55288 3.69621 4.56611 3.66955 4.60014 3.6442C4.6344 3.61867 4.6833 3.60012 4.74024 3.60012L4.74024 3.10012ZM4.06055 3.60696L3.57232 3.49909C3.48303 3.90326 3.60393 4.31306 3.90801 4.5997L4.25098 4.23586L4.59394 3.87203C4.55146 3.83198 4.53377 3.78273 4.54877 3.71482L4.06055 3.60696ZM4.25098 4.23586L3.90777 4.59947C3.84304 4.53837 3.81715 4.44314 3.84611 4.35469L4.32129 4.51028L4.79647 4.66586C4.88919 4.38268 4.80831 4.07436 4.59418 3.87225L4.25098 4.23586ZM4.32129 4.51028L3.84718 4.35148C3.87695 4.26258 3.95439 4.20288 4.04138 4.1925L4.10059 4.68899L4.1598 5.18547C4.45018 5.15084 4.70032 4.95297 4.7954 4.66907L4.32129 4.51028ZM4.10059 4.68899L4.04307 4.19231C3.46209 4.25958 3.01686 4.74947 3.0166 5.33916L3.5166 5.33938L4.0166 5.33959C4.01663 5.26456 4.07433 5.19537 4.1581 5.18567L4.10059 4.68899ZM3.5166 5.33938L3.0166 5.33938C3.0166 5.66063 3.14925 5.96205 3.38194 6.18103L3.72461 5.81692L4.06728 5.4528C4.0323 5.41988 4.0166 5.38067 4.0166 5.33938L3.5166 5.33938ZM3.72461 5.81692L3.38141 6.18053C3.3168 6.11954 3.29073 6.02424 3.3198 5.93557L3.79492 6.09133L4.27004 6.24709C4.36297 5.96364 4.28186 5.65534 4.06781 5.45331L3.72461 5.81692ZM3.79492 6.09133L3.32081 5.93253C3.35058 5.84363 3.42802 5.78393 3.51501 5.77356L3.57422 6.27004L3.63343 6.76652C3.92382 6.73189 4.17395 6.53402 4.26904 6.25013L3.79492 6.09133ZM3.57422 6.27004L3.51683 5.77335C2.93489 5.84058 2.49034 6.33073 2.49023 6.92035L2.99023 6.92043L3.49023 6.92052C3.49025 6.84527 3.54758 6.77645 3.63161 6.76674L3.57422 6.27004ZM2.99023 6.92043L2.49023 6.92043C2.49023 7.357 2.7362 7.75074 3.12374 7.94804L3.35059 7.50246L3.57744 7.05689C3.51961 7.02745 3.49023 6.97471 3.49023 6.92043L2.99023 6.92043ZM3.35059 7.50246L3.1203 7.94627C3.04831 7.90892 2.99802 7.83464 2.99454 7.74691L3.49414 7.72707L3.99375 7.70724C3.9827 7.429 3.82131 7.18341 3.58088 7.05865L3.35059 7.50246ZM3.49414 7.72707L2.99451 7.74635C2.99119 7.66015 3.03454 7.5804 3.10655 7.53595L3.36914 7.96145L3.63173 8.38694C3.86444 8.24333 4.00444 7.98437 3.99377 7.70779L3.49414 7.72707ZM3.36914 7.96145L3.10655 7.53595C2.68949 7.79334 2.44946 8.26041 2.49531 8.75381L2.99316 8.70754L3.49102 8.66127C3.48105 8.55397 3.53137 8.44888 3.63173 8.38694L3.36914 7.96145ZM2.99316 8.70754L2.49526 8.75327C2.55897 9.44698 3.18155 9.92316 3.84262 9.92336L3.84277 9.42336L3.84292 8.92336C3.62524 8.9233 3.5011 8.77105 3.49107 8.66181L2.99316 8.70754ZM3.84277 9.42336L3.84277 9.92336L7.46875 9.92336L7.46875 9.42336L7.46875 8.92336L3.84277 8.92336L3.84277 9.42336ZM7.46875 9.42336L7.46875 9.92336C7.3898 9.92336 7.31912 9.88499 7.27617 9.8233L7.68652 9.53762L8.09687 9.25194C7.95487 9.04797 7.72052 8.92336 7.46875 8.92336L7.46875 9.42336ZM7.68652 9.53762L7.27362 9.81959C7.22845 9.75345 7.22115 9.67264 7.24725 9.60371L7.71484 9.78078L8.18244 9.95786C8.26955 9.72782 8.24242 9.46503 8.09943 9.25565L7.68652 9.53762ZM7.71484 9.78078L7.24433 9.61161C7.24511 9.60945 7.20964 9.70399 7.15968 9.85178C7.10964 9.9998 7.04341 10.2059 6.9772 10.4422C6.8481 10.9031 6.70605 11.5239 6.70605 12.0591L7.20605 12.0591L7.70605 12.0591C7.70605 11.6668 7.81603 11.155 7.94014 10.7119C8.06118 10.2798 8.18235 9.95832 8.18536 9.94996L7.71484 9.78078ZM7.20605 12.0591L6.70605 12.0593C6.70624 12.6356 6.9586 13.1368 7.2327 13.4831C7.37156 13.6585 7.52712 13.8087 7.68154 13.9197C7.81194 14.0134 8.02295 14.1392 8.25977 14.1392L8.25977 13.6392L8.25977 13.1392C8.35221 13.1392 8.35936 13.1753 8.26517 13.1076C8.19499 13.0572 8.10522 12.9742 8.01678 12.8624C7.83628 12.6344 7.70615 12.3456 7.70605 12.0589L7.20605 12.0591Z" fill="#FF7A7A" mask="url(#path-1-outside-1_421_5486)"/>
</svg>
