<svg width="27" height="27" viewBox="0 0 27 27" fill="none" xmlns="http://www.w3.org/2000/svg">
<path fill-rule="evenodd" clip-rule="evenodd" d="M8.12206 6.75C7.15006 6.75 6.23881 7.12575 5.55706 7.80862C4.14181 9.22612 4.14181 11.5335 5.55819 12.9532L13.4996 20.9081L21.4421 12.9532C22.8584 11.5335 22.8584 9.22612 21.4421 7.80862C20.0786 6.44175 17.6756 6.444 16.3121 7.80862L14.2961 9.828C13.8731 10.2521 13.1261 10.2521 12.7031 9.828L10.6871 7.8075C10.0053 7.12575 9.09519 6.75 8.12206 6.75ZM13.4996 23.625C13.2014 23.625 12.9146 23.5069 12.7042 23.2942L3.96519 14.5417C1.67469 12.2467 1.67469 8.51288 3.96519 6.21788C5.07219 5.11087 6.54819 4.5 8.12206 4.5C9.69594 4.5 11.1731 5.11087 12.2789 6.21788L13.4996 7.44075L14.7202 6.219C15.8272 5.11088 17.3032 4.5 18.8782 4.5C20.4509 4.5 21.9281 5.11087 23.0339 6.21788C25.3256 8.51288 25.3256 12.2467 23.0351 14.5417L14.2961 23.2954C14.0846 23.5069 13.7988 23.625 13.4996 23.625Z" fill="#2E3A59"/>
</svg>
