<svg width="1440" height="250" viewBox="0 0 1440 250" fill="none" xmlns="http://www.w3.org/2000/svg">
<g opacity="0.07" clip-path="url(#clip0_201_4)">
<mask id="mask0_201_4" style="mask-type:alpha" maskUnits="userSpaceOnUse" x="-375" y="-1" width="862" height="251">
<path d="M486.988 -0.620162H-374.762V249.311H486.988V-0.620162Z" fill="white"/>
</mask>
<g mask="url(#mask0_201_4)">
<path fill-rule="evenodd" clip-rule="evenodd" d="M143.605 161.315C142.981 162.555 141.872 163.451 140.486 163.933C137.784 164.829 134.873 163.52 133.903 161.039C133.764 159.248 132.24 143.812 130.577 138.713C128.567 132.649 120.736 120.521 119.766 119.074L114.499 102.811L124.547 99.435L143.952 157.594C144.367 158.765 144.229 160.074 143.605 161.315ZM108.747 102.122C108.608 102.191 108.539 102.191 108.4 102.329L95.372 111.976L88.1647 90.4768L121.568 79.3137L127.181 95.9895L126.072 96.3341L119.142 98.677L108.747 102.122ZM126.765 98.6081L128.983 97.8501C129.26 97.7811 129.537 97.5055 129.676 97.2299C129.814 96.9542 129.814 96.6097 129.745 96.3341L123.369 77.4531C123.161 76.833 122.468 76.4884 121.845 76.6951L86.2243 88.6163C85.9471 88.6852 85.6699 88.9609 85.5313 89.2365C85.3927 89.5121 85.3927 89.8567 85.462 90.1323L93.5701 114.25C93.7087 114.595 93.986 114.87 94.3325 115.008C94.4711 115.077 94.5404 115.077 94.679 115.077C94.9562 115.077 95.1641 115.008 95.372 114.87L109.579 104.327L112.143 103.501L117.548 120.039L117.617 120.176C117.687 120.314 126.211 133.338 128.22 139.402C129.884 144.432 131.477 161.177 131.477 161.384L131.547 161.659C132.586 164.691 135.497 166.621 138.615 166.621C139.447 166.621 140.279 166.483 141.11 166.207C143.051 165.587 144.645 164.209 145.545 162.486C146.516 160.695 146.654 158.696 146.031 156.836L126.765 98.6081Z" fill="black"/>
<path fill-rule="evenodd" clip-rule="evenodd" d="M181.859 47.3401L174.444 49.3385L170.84 36.1081L182.552 32.9383L184.562 40.2426L181.859 47.3401ZM184.215 30.0441L167.929 34.4543L172.781 52.3016L183.661 49.3385L186.987 40.3804L184.215 30.0441Z" fill="black"/>
<path fill-rule="evenodd" clip-rule="evenodd" d="M166.197 58.9168L165.434 56.0226L168.068 55.3335L161.554 31.3534L188.096 24.118L192.323 39.7602L186.017 53.5419L166.197 58.9168ZM262.732 19.57L261.208 22.7398L257.535 21.2927C256.98 21.086 256.287 21.3616 256.01 21.9129L254.278 25.4962L250.605 24.0491C250.05 23.8424 249.357 24.118 249.08 24.6693L247.348 28.2525L243.675 26.8054C243.12 26.5987 242.427 26.8743 242.15 27.4256L240.417 31.0088L236.745 29.5618C236.19 29.355 235.497 29.6307 235.22 30.1819L233.487 33.7652L229.815 32.3181C229.26 32.1114 228.567 32.387 228.29 32.9383L226.557 36.5215L222.885 35.0744C222.33 34.8677 221.637 35.1434 221.36 35.6946L219.627 39.2779L215.954 37.8308C215.4 37.6241 214.707 37.8997 214.43 38.451L212.697 42.0342L209.024 40.5871C208.47 40.3804 207.777 40.656 207.5 41.2073L205.767 44.7905L202.094 43.3435C201.54 43.1367 200.847 43.4124 200.57 43.9636L198.837 47.5469L195.164 46.0998C194.61 45.8931 193.917 46.1687 193.64 46.72L191.907 50.3032L190.591 49.8209L194.402 40.656L194.541 40.3115L194.402 39.898L191.284 28.3214L190.036 23.8424L258.02 3.85889L262.732 19.57ZM189.551 51.5436L192.323 52.6461C192.462 52.715 192.6 52.715 192.739 52.715C193.155 52.715 193.64 52.4394 193.778 52.0259L195.511 48.4427L199.184 49.8898C199.738 50.0965 200.431 49.8209 200.708 49.2696L202.441 45.6863L206.114 47.1334C206.668 47.3402 207.361 47.0645 207.638 46.5132L209.371 42.93L213.044 44.3771C213.598 44.5838 214.291 44.3082 214.568 43.7569L216.301 40.1737L219.974 41.6207C220.528 41.8275 221.221 41.5518 221.499 41.0006L223.231 37.4173L226.904 38.8644C227.458 39.0711 228.151 38.7955 228.429 38.2442L230.161 34.661L233.834 36.1081C234.388 36.3148 235.081 36.0392 235.359 35.4879L237.091 31.9047L240.764 33.3517C241.318 33.5585 242.011 33.2828 242.289 32.7316L244.021 29.1483L247.694 30.5954C248.248 30.8021 248.941 30.5265 249.219 29.9752L250.951 26.392L254.624 27.839C255.178 28.0458 255.871 27.7701 256.149 27.2189L257.881 23.6356L261.554 25.0827C262.109 25.2894 262.802 25.0138 263.079 24.4625L265.227 19.9146C265.366 19.6389 265.366 19.3633 265.296 19.0877L260.515 1.44709C260.445 1.17146 260.237 0.895826 259.96 0.6891C259.683 0.551283 259.337 0.482374 259.059 0.620191L188.858 21.2927L158.643 29.6307L165.157 53.6108L162.524 54.2999L164.534 61.8109L187.749 55.5403L189.551 51.5436Z" fill="black"/>
<path fill-rule="evenodd" clip-rule="evenodd" d="M105.143 227.743L33.4866 247.037L37.4367 237.252C37.506 237.045 37.5753 236.77 37.506 236.494L31.7541 215.339C31.0611 212.858 31.4076 210.309 32.7243 208.104C33.9717 205.899 36.0507 204.314 38.4762 203.694L94.5402 188.603C99.5992 187.224 104.866 190.256 106.252 195.287L111.865 216.097C113.182 221.196 110.202 226.433 105.143 227.743ZM108.47 194.666C106.737 188.327 100.223 184.606 93.8472 186.329L37.7832 201.42C34.734 202.246 32.1699 204.245 30.576 206.932C28.9821 209.689 28.5663 212.858 29.3979 215.959L35.0112 236.701L30.2988 248.346C30.1602 248.76 30.2295 249.242 30.5067 249.587C30.7146 249.862 31.0611 250 31.4076 250C31.4769 250 31.6155 250 31.6848 249.931L105.698 230.017C112.004 228.294 115.815 221.816 114.083 215.477L108.47 194.666Z" fill="black"/>
<path fill-rule="evenodd" clip-rule="evenodd" d="M48.109 224.642L46.3765 225.124L46.9309 227.26C47.3467 228.707 47.0002 229.81 45.6142 230.154C44.2975 230.499 43.4659 229.81 43.0501 228.294L40.6939 219.611C40.2781 218.164 40.6939 217.062 42.0106 216.717C43.3273 216.373 44.1589 217.062 44.5747 218.578L44.9905 220.163L46.723 219.68L46.3072 218.233C45.6142 215.753 44.0203 214.443 41.4562 215.132C38.9614 215.821 38.1991 217.751 38.8921 220.232L41.179 228.707C41.872 231.188 43.4659 232.497 45.9607 231.808C48.5248 231.119 49.2178 229.19 48.5248 226.709L48.109 224.642Z" fill="black"/>
<path fill-rule="evenodd" clip-rule="evenodd" d="M47.0002 213.823L51.4354 230.223L53.2373 229.672L49.2871 214.995L53.3065 213.892L57.2567 228.638L59.1278 228.087L54.6925 211.756L47.0002 213.823Z" fill="black"/>
<path fill-rule="evenodd" clip-rule="evenodd" d="M61.7612 222.161L60.9989 212.238L65.4341 221.196L61.7612 222.161ZM59.2664 210.515L60.5831 227.743L62.2463 227.26L61.9691 223.815L66.1271 222.712L67.6517 225.813L69.4535 225.331L61.8998 209.826L59.2664 210.515Z" fill="black"/>
<path fill-rule="evenodd" clip-rule="evenodd" d="M76.5224 216.993L74.7898 217.475L75.3442 219.611C75.76 221.058 75.4136 222.161 74.0276 222.506C72.7109 222.85 71.8792 222.161 71.4634 220.645L69.1072 211.963C68.6914 210.515 69.1072 209.413 70.4239 209.068C71.7406 208.724 72.5722 209.413 72.9881 210.929L73.4038 212.514L75.1363 212.031L74.7206 210.584C74.0276 208.104 72.4336 206.794 69.8695 207.483C67.3747 208.173 66.6124 210.102 67.3054 212.583L69.5923 221.058C70.2853 223.539 71.8792 224.848 74.3741 224.159C76.9382 223.47 77.6312 221.541 76.9381 219.06L76.5224 216.993Z" fill="black"/>
<path fill-rule="evenodd" clip-rule="evenodd" d="M81.0962 204.658L80.5418 212.376L80.2646 217.958L77.0075 205.761L75.3442 206.174L79.7795 222.574L81.7199 222.023L82.0664 213.823L82.3436 207.897L85.8779 220.921L87.5411 220.507L83.1059 204.107L81.0962 204.658Z" fill="black"/>
<path fill-rule="evenodd" clip-rule="evenodd" d="M92.8079 217.268L90.7982 217.82L89.0657 211.48L91.0062 210.929C92.3229 210.584 93.1545 210.86 93.6396 212.445L94.1939 214.512C94.5404 216.097 94.1246 216.924 92.8079 217.268ZM95.4413 212.169C94.7483 209.551 93.0852 208.655 90.5211 209.344L88.5807 209.826L87.1947 204.727L92.3228 203.349L91.9071 201.695L84.9771 203.556L89.4122 219.887L93.2237 218.853C95.7878 218.164 96.6194 216.442 95.9264 213.892L95.4413 212.169Z" fill="black"/>
<path fill-rule="evenodd" clip-rule="evenodd" d="M102.025 214.995C100.708 215.339 99.8763 214.65 99.4605 213.134L97.1043 204.452C96.6885 203.004 97.1043 201.902 98.421 201.557C99.7377 201.213 100.639 201.902 100.985 203.418L103.341 212.1C103.688 213.616 103.341 214.65 102.025 214.995ZM102.787 203.073C102.094 200.593 100.431 199.283 97.8666 199.972C95.3718 200.662 94.5402 202.591 95.2332 205.072L97.5201 213.547C98.2131 216.028 99.8763 217.337 102.371 216.648C104.935 215.959 105.698 214.03 105.005 211.549L102.787 203.073Z" fill="black"/>
<path fill-rule="evenodd" clip-rule="evenodd" d="M248.318 193.771L246.308 193.082L203.896 178.542L201.887 177.853L204.312 170.893L250.674 186.811L248.318 193.771ZM228.844 240.077C228.636 240.766 228.082 241.318 227.458 241.662C226.765 242.007 226.072 242.007 225.31 241.8L190.383 229.81C189.69 229.603 189.135 229.052 188.789 228.432C188.442 227.743 188.442 226.985 188.65 226.296L204.243 181.229L244.437 195.011L228.844 240.077ZM232.309 177.646L224.409 174.959C225.726 173.994 227.458 173.649 229.052 174.201C230.715 174.752 231.894 176.061 232.309 177.646ZM234.804 178.542C234.666 175.648 232.794 172.96 229.815 171.996C226.904 170.962 223.785 171.927 221.845 174.132L203.966 168.343C203.688 168.275 203.342 168.275 203.065 168.412C202.787 168.55 202.58 168.826 202.441 169.101L199.253 178.266C199.045 178.886 199.392 179.576 200.015 179.782L202.025 180.471L186.433 225.606C186.017 226.916 186.086 228.294 186.641 229.534C187.264 230.775 188.304 231.67 189.62 232.153L224.548 244.143C225.102 244.35 225.657 244.418 226.211 244.418C226.973 244.418 227.736 244.212 228.498 243.867C229.745 243.247 230.646 242.213 231.131 240.904L246.724 195.769L248.734 196.458C248.872 196.527 249.011 196.527 249.149 196.527C249.357 196.527 249.496 196.458 249.704 196.389C249.981 196.251 250.189 195.976 250.327 195.7L253.515 186.535C253.723 185.915 253.377 185.226 252.753 185.019L234.804 178.542Z" fill="black"/>
<path fill-rule="evenodd" clip-rule="evenodd" d="M209.995 229.603C210.133 229.672 210.272 229.672 210.411 229.672C210.896 229.672 211.381 229.396 211.519 228.845L223.3 194.804C223.508 194.184 223.162 193.495 222.538 193.288C221.914 193.082 221.221 193.426 221.014 194.046L209.232 228.087C209.094 228.707 209.371 229.327 209.995 229.603Z" fill="black"/>
<path fill-rule="evenodd" clip-rule="evenodd" d="M196.758 223.746C196.55 224.366 196.897 225.055 197.52 225.262C197.659 225.331 197.798 225.331 197.936 225.331C198.421 225.331 198.907 225.055 199.045 224.504L210.826 190.463C211.034 189.843 210.688 189.154 210.064 188.947C209.44 188.74 208.747 189.085 208.539 189.705L196.758 223.746Z" fill="black"/>
<path fill-rule="evenodd" clip-rule="evenodd" d="M222.538 233.875C222.677 233.944 222.815 233.944 222.954 233.944C223.439 233.944 223.924 233.669 224.063 233.117L235.844 199.077C236.052 198.456 235.705 197.767 235.081 197.561C234.458 197.354 233.765 197.698 233.557 198.319L221.776 232.359C221.568 232.98 221.914 233.669 222.538 233.875Z" fill="black"/>
<path fill-rule="evenodd" clip-rule="evenodd" d="M27.8041 146.913C24.9628 140.022 31.7542 136.025 28.7743 128.79C27.9427 126.723 26.626 125.482 24.7549 125.482C24.0619 125.482 23.2996 125.62 22.468 125.965C19.3495 127.274 18.7951 129.617 19.9732 132.373L21.1513 135.13L17.1318 136.783L16.0923 134.234C14.1519 129.479 15.3994 125.138 21.3592 122.726C23.0917 122.037 24.6163 121.692 26.0023 121.692C29.398 121.692 31.8235 123.691 33.2096 127.136C36.3281 134.716 29.3287 139.333 31.8235 145.397C32.0314 145.948 32.4473 146.499 32.7938 146.982L28.9129 148.567C28.4278 148.153 28.0813 147.671 27.8041 146.913ZM29.7445 150.772L33.6253 149.187C34.3183 148.911 34.8727 148.291 35.0113 147.602C35.2192 146.844 35.0114 146.086 34.5263 145.535C34.2491 145.19 34.0412 144.846 33.9026 144.57C33.1403 142.71 33.6947 140.987 34.7342 138.299C35.9123 135.13 37.3676 131.271 35.3578 126.378C33.4867 121.899 30.1603 119.487 25.933 119.487C24.2005 119.487 22.3294 119.901 20.389 120.728C16.9239 122.175 14.637 124.242 13.5282 126.861C12.4887 129.341 12.6273 132.304 13.8747 135.267L14.9142 137.817C15.1221 138.368 15.6072 138.851 16.2309 139.126C16.5081 139.264 16.8546 139.333 17.1318 139.333C17.409 139.333 17.7555 139.264 18.0327 139.126L22.0522 137.472C22.6066 137.266 23.0917 136.783 23.3689 136.163C23.6461 135.612 23.6461 134.923 23.3689 134.372L22.1908 131.615C21.3592 129.548 21.9136 128.859 23.3689 128.308C23.9233 128.101 24.3391 127.963 24.7549 127.963C25.1014 127.963 25.8637 127.963 26.626 129.824C27.8041 132.649 27.0418 134.785 26.1409 137.472C25.1014 140.436 23.9233 143.743 25.7251 147.947C26.0716 148.773 26.4874 149.531 27.1111 150.221C27.5962 150.772 28.2199 151.116 28.9822 151.116C29.1208 150.979 29.4673 150.91 29.7445 150.772Z" fill="black"/>
<path fill-rule="evenodd" clip-rule="evenodd" d="M33.3482 160.006L31.5463 155.664L35.6351 154.01L37.4369 158.352L33.3482 160.006ZM35.6351 151.599C35.3579 151.599 35.0114 151.668 34.7342 151.805L30.6454 153.459C30.091 153.666 29.606 154.148 29.3288 154.768C29.0515 155.32 29.0515 156.009 29.3288 156.56L31.1306 160.901C31.3385 161.453 31.8236 161.935 32.4473 162.211C32.7245 162.348 33.071 162.417 33.3482 162.417C33.6254 162.417 33.9719 162.348 34.2491 162.211L38.3378 160.557C39.5853 160.074 40.1396 158.696 39.6545 157.456L37.8527 153.115C37.4369 152.15 36.536 151.599 35.6351 151.599Z" fill="black"/>
<path fill-rule="evenodd" clip-rule="evenodd" d="M304.105 159.523L293.433 151.047L294.264 145.328L298.145 140.436L303.828 138.093L314.5 146.568L304.105 159.523ZM251.714 107.704L253.1 105.912L295.65 139.609L292.809 143.123L250.258 109.427L251.714 107.704ZM232.379 96.8854C231.617 96.2652 231.201 95.4383 231.062 94.5425C230.924 93.5777 231.201 92.6819 231.824 91.9239C232.448 91.1659 233.28 90.6836 234.181 90.6147C234.319 90.6147 234.458 90.6147 234.597 90.6147C235.428 90.6147 236.19 90.8903 236.814 91.3727L247.902 100.124L252.13 103.501L249.912 106.257L247.764 108.944L247.694 109.013L232.379 96.8854ZM233.696 115.904L219.281 104.534C211.935 98.7459 210.688 88.0651 216.578 80.7608L217.41 79.7271C223.231 72.4228 233.973 71.1825 241.319 76.9708L255.664 88.3407L248.387 97.5055L238.269 89.5121C237.022 88.5474 235.497 88.0651 233.904 88.2718C232.31 88.4785 230.924 89.2365 229.953 90.4769C228.983 91.7172 228.498 93.2332 228.706 94.8181C228.914 96.403 229.676 97.7812 230.924 98.7459L241.041 106.739L233.696 115.904ZM316.856 145.397L304.728 135.75C304.382 135.474 303.897 135.405 303.55 135.612L297.591 138.093L254.624 104.052L254.694 103.983C255.109 103.501 255.04 102.743 254.486 102.329L250.258 98.9526L258.297 88.8231C258.505 88.5474 258.574 88.2718 258.574 87.9273C258.505 87.5827 258.367 87.3071 258.159 87.1693L242.774 75.1103C234.389 68.4951 222.192 69.8732 215.539 78.2112L214.707 79.2448C208.055 87.5827 209.441 99.7795 217.826 106.395L233.141 118.523C233.349 118.66 233.626 118.798 233.904 118.798C233.973 118.798 233.973 118.798 234.042 118.798C234.389 118.729 234.666 118.592 234.804 118.385L242.843 108.255L247.071 111.632C247.278 111.77 247.556 111.907 247.833 111.907C247.902 111.907 247.902 111.907 247.972 111.907C248.318 111.838 248.595 111.701 248.734 111.494L248.803 111.425L291.769 145.466L290.868 151.53C290.799 151.943 291.007 152.357 291.284 152.632L303.412 162.28C303.62 162.417 303.897 162.555 304.174 162.555C304.243 162.555 304.243 162.555 304.313 162.555C304.659 162.486 304.936 162.348 305.075 162.142L316.925 147.257C317.48 146.568 317.341 145.81 316.856 145.397Z" fill="black"/>
<path fill-rule="evenodd" clip-rule="evenodd" d="M307.708 147.326L303.273 152.839L298.699 149.187L299.046 146.844L300.778 144.639L303.134 143.674L307.708 147.326ZM302.927 141.262L299.669 142.641C299.462 142.709 299.323 142.847 299.184 142.985L297.036 145.673C296.897 145.81 296.828 146.017 296.759 146.224L296.274 149.531C296.204 149.945 296.412 150.358 296.69 150.634L302.719 155.389C302.927 155.526 303.204 155.664 303.481 155.664C303.55 155.664 303.55 155.664 303.62 155.664C303.966 155.595 304.243 155.458 304.382 155.251L310.272 147.878C310.688 147.395 310.619 146.637 310.065 146.224L304.035 141.469C303.758 141.125 303.273 141.056 302.927 141.262Z" fill="black"/>
<path fill-rule="evenodd" clip-rule="evenodd" d="M111.658 16.0557L110.41 19.1566L103.965 18.6053L105.836 13.7817L111.658 16.0557ZM100.847 8.8203C100.708 8.40685 100.639 7.9934 100.847 7.64886L102.579 3.1009L108.678 5.44379L108.539 5.85724C108.331 6.47741 108.608 7.1665 109.232 7.37322L113.598 9.02703C113.875 9.16484 114.222 9.16484 114.499 9.02703C114.776 8.88921 114.984 8.68248 115.123 8.33794L115.261 7.92449L121.36 10.2674L119.627 14.8153C119.281 15.6422 118.38 16.0557 117.617 15.7112L113.667 14.1952L105.628 11.1632L101.678 9.6472C101.262 9.50939 100.985 9.16484 100.847 8.8203ZM103.064 20.9482L109.509 21.4995L108.608 23.9113L102.163 23.36L103.064 20.9482ZM101.262 25.634L107.707 26.1852L106.391 29.6307L99.9458 29.0794L101.262 25.634ZM102.995 38.3131L99.1142 39.7602L97.2431 36.0392L99.0449 31.2845L105.49 31.8357L102.995 38.3131ZM97.451 41.8275C97.6589 42.2409 98.0747 42.4476 98.4905 42.4476C98.6291 42.4476 98.7677 42.4476 98.9063 42.3787L104.312 40.3115C104.658 40.1737 104.866 39.9669 105.005 39.6224L113.875 16.8137L116.717 17.9162C117.202 18.1229 117.687 18.1919 118.103 18.1919C119.696 18.1919 121.152 17.2271 121.775 15.6422L123.993 9.99175C124.201 9.37157 123.924 8.68248 123.3 8.47576L114.984 5.23706C114.707 5.09924 114.36 5.09924 114.083 5.23706C113.806 5.37488 113.598 5.5816 113.459 5.92614L113.321 6.3396L111.172 5.51269L111.311 5.09924C111.519 4.47907 111.242 3.78998 110.618 3.58326L102.302 0.344557C102.025 0.20674 101.678 0.20674 101.401 0.344557C101.124 0.482374 100.916 0.689099 100.777 1.03364L98.5598 6.68414C98.2133 7.64886 98.2133 8.75139 98.6291 9.71611C99.0449 10.6808 99.8072 11.4388 100.847 11.7834L103.688 12.8859L94.8176 35.6946C94.6789 36.0392 94.6789 36.3837 94.8868 36.6593L97.451 41.8275Z" fill="black"/>
<path fill-rule="evenodd" clip-rule="evenodd" d="M-3.51965 82.6902C-3.79685 82.5524 -3.86617 82.2768 -3.79686 82.1389C-3.72756 82.0011 -3.72754 81.7255 -3.38103 81.6566L3.75689 80.0028L12.6966 57.8832L-5.73726 48.9251C-7.67767 47.9603 -9.13295 46.3065 -9.82596 44.2393C-10.519 42.172 -10.3804 39.9669 -9.41018 38.0375L-8.64789 36.4526L-16.6867 32.5248L-11.9743 23.0155L-9.54878 18.123L43.466 44.1015C43.7432 44.2393 43.7432 44.5838 43.7432 44.6527C43.7432 44.7216 43.6739 45.1351 43.2581 45.204L37.1597 46.5822L35.8429 45.962L17.1318 92.8198L-3.51965 82.6902ZM5.4894 59.6059L6.25169 57.4697L9.57813 59.1235L7.49912 64.2916C5.97452 62.9135 4.86569 60.8462 5.4894 59.6059ZM-17.8648 29.355L-20.3596 28.1147L-18.9043 25.1516L-15.2314 17.7784L-12.7366 19.0188L-14.8156 23.2222L-17.8648 29.355ZM-35.675 17.7095L-34.289 14.8843L-32.903 12.059L-28.1906 10.0607L-16.8946 15.6422L-18.9736 19.8457L-23.1316 28.2525L-34.3583 22.6709L-35.675 17.7095ZM-57.1581 3.72108L-54.7326 3.032L-51.4062 4.6858L-49.8816 9.23376L-56.2572 6.06397L-57.1581 3.72108ZM-42.8822 12.6103L-46.8324 10.6808L-48.357 6.13288L-44.4068 8.06232L-42.8822 12.6103ZM-37.1303 15.3666L-39.833 14.0574L-41.3576 9.50939L-35.6057 12.3346L-37.1303 15.3666ZM37.2289 49.1318L43.8818 47.6158C45.1292 47.3402 46.0301 46.3065 46.1687 44.9973C46.3073 43.7569 45.6836 42.5855 44.5748 42.0342L-10.6576 14.8843L-11.6971 16.9515L-14.1919 15.7112L-13.6375 14.6086L-28.1213 7.51105L-34.5662 10.2674L-54.4554 0.482382L-60.2766 2.13619L-58.059 7.78668L-38.1698 17.5717L-36.4373 24.3247L-22.0228 31.4223L-21.4684 30.3198L-18.9736 31.5601L-20.0131 33.6274L-11.905 37.6241C-12.9445 40.0359 -13.0138 42.6544 -12.1822 45.1351C-11.2813 47.8225 -9.41016 49.9587 -6.84605 51.199L4.10339 56.5739L3.3411 58.779C2.0244 61.5353 4.24197 64.9118 6.59818 66.7034L1.9551 78.1422L-3.93543 79.5204C-5.18283 79.796 -6.01445 80.7608 -6.15305 82.0011C-6.29165 83.2415 -5.66796 84.4129 -4.55915 84.9642L18.4486 96.2652L37.2289 49.1318Z" fill="black"/>
<path fill-rule="evenodd" clip-rule="evenodd" d="M371.049 222.161L358.228 243.867C356.565 246.692 352.892 247.657 350.051 246.003C348.665 245.176 347.695 243.867 347.279 242.351C346.863 240.835 347.071 239.181 347.903 237.803L360.723 216.097C361.832 214.168 363.842 213.134 365.921 213.134C366.96 213.134 368 213.41 368.97 213.961C370.356 214.788 371.326 216.097 371.742 217.613C372.088 219.198 371.881 220.783 371.049 222.161ZM370.079 211.963C366.129 209.62 360.931 210.998 358.644 214.926L345.824 236.632C344.715 238.561 344.368 240.835 344.923 242.971C345.477 245.108 346.863 246.968 348.803 248.071C350.12 248.829 351.575 249.242 353.031 249.242C355.941 249.242 358.713 247.795 360.238 245.108L373.059 223.401C374.167 221.472 374.514 219.198 373.959 217.062C373.405 214.857 372.019 213.065 370.079 211.963Z" fill="black"/>
<path fill-rule="evenodd" clip-rule="evenodd" d="M421.014 182.608L411.867 198.181L361.901 168.964L371.049 153.39L421.014 182.608ZM358.644 169.791L412.698 201.42L424.272 181.781L370.217 150.152L358.644 169.791Z" fill="black"/>
<path fill-rule="evenodd" clip-rule="evenodd" d="M424.064 193.495L419.906 191.014L418.727 193.082L421.915 194.942L414.223 208.035L380.543 194.115C379.989 193.909 379.365 194.115 379.088 194.598L370.009 209.964L372.088 211.136L380.612 196.596L414.292 210.515C414.847 210.722 415.47 210.515 415.748 210.033L424.549 195.011C424.687 194.735 424.757 194.391 424.687 194.115C424.618 193.84 424.341 193.633 424.064 193.495Z" fill="black"/>
<path fill-rule="evenodd" clip-rule="evenodd" d="M437.646 39.3468C437.924 38.2442 438.617 37.3484 439.587 36.7972C440.211 36.4526 440.973 36.2459 441.666 36.2459C442.012 36.2459 442.428 36.3148 442.775 36.3837C444.992 37.0039 446.309 39.2779 445.755 41.4829C445.131 43.688 442.844 44.9973 440.626 44.446C439.518 44.1704 438.617 43.4813 438.062 42.5166C437.508 41.5518 437.369 40.4493 437.646 39.3468ZM440.003 46.7889C440.557 46.9267 441.181 46.9956 441.735 46.9956C444.646 46.9956 447.279 45.0662 448.111 42.172C449.081 38.6577 447.002 35.0744 443.468 34.1097C441.804 33.6274 440.003 33.903 438.478 34.7299C436.953 35.6257 435.845 37.0039 435.429 38.7266C434.389 42.172 436.468 45.8242 440.003 46.7889Z" fill="black"/>
<path fill-rule="evenodd" clip-rule="evenodd" d="M433.419 34.0408L440.418 30.0441L448.18 32.1114L452.199 39.0711L450.12 46.7889L443.121 50.7856L435.359 48.7183L431.34 41.7586L433.419 34.0408ZM433.488 50.3032C433.627 50.5789 433.904 50.7856 434.181 50.8545L442.913 53.1974C442.982 53.1974 443.121 53.2663 443.19 53.2663C443.398 53.2663 443.606 53.1974 443.814 53.1285L451.645 48.6494C451.922 48.5116 452.13 48.236 452.199 47.9603L454.556 39.2779C454.625 39.0022 454.625 38.6577 454.417 38.3821L449.912 30.5954C449.774 30.3198 449.497 30.113 449.219 30.0441L440.488 27.7012C440.21 27.6323 439.864 27.6323 439.587 27.8391L431.756 32.3181C431.479 32.4559 431.271 32.7316 431.201 33.0072L428.845 41.6897C428.776 41.9653 428.776 42.3098 428.984 42.5855L433.488 50.3032Z" fill="black"/>
<path fill-rule="evenodd" clip-rule="evenodd" d="M343.606 89.9256L343.329 90.5458C342.982 91.4416 342.012 91.855 341.111 91.5105L329.469 86.8936C328.568 86.5491 328.152 85.5844 328.498 84.6885L328.776 84.0684C328.914 83.6549 329.261 83.3104 329.676 83.1726C329.884 83.1036 330.092 83.0347 330.369 83.0347C330.577 83.0347 330.785 83.1036 330.993 83.1726L336.814 85.5154L342.636 87.8583C343.051 87.9962 343.398 88.3407 343.537 88.7542C343.744 89.0298 343.744 89.5121 343.606 89.9256ZM327.459 77.2464L327.736 76.6263C328.013 75.9372 328.637 75.5926 329.33 75.5926C329.538 75.5926 329.746 75.6615 329.954 75.7304L337.577 78.7624L340.834 80.0717L348.595 83.1726C349.496 83.5171 349.912 84.4818 349.566 85.3776L349.288 85.9978C349.15 86.4113 348.803 86.7558 348.388 86.8936C347.972 87.1003 347.487 87.1003 347.071 86.8936L328.36 79.4515C327.528 79.107 327.112 78.1422 327.459 77.2464ZM342.636 53.5419C341.804 53.1974 341.111 52.5083 340.695 51.6814C340.349 50.8545 340.349 49.8898 340.695 48.9939C341.25 47.6158 342.566 46.7889 343.952 46.7889C344.368 46.7889 344.853 46.8578 345.269 47.0645C347.071 47.7536 347.902 49.8209 347.209 51.6125C346.447 53.4041 344.437 54.231 342.636 53.5419ZM352.615 53.8175C353.169 52.4394 354.486 51.6125 355.872 51.6125C356.288 51.6125 356.773 51.6814 357.189 51.8881C358.991 52.5772 359.822 54.6444 359.129 56.4361C358.436 58.2277 356.357 59.0546 354.625 58.3655C352.754 57.6075 351.922 55.5403 352.615 53.8175ZM327.32 37.2106C329.954 30.5954 335.082 25.4272 341.665 22.602C348.249 19.7768 355.525 19.7078 362.178 22.3953C368.831 25.0138 374.029 30.113 376.87 36.6593C379.711 43.2056 379.781 50.441 377.078 57.0562C372.851 67.5992 362.317 74.3523 350.952 73.801L350.12 73.7321L347.556 80.1406L346.794 79.8649L342.774 78.2801L350.882 58.1588C351.506 59.1924 352.476 60.0193 353.654 60.5017C354.347 60.7773 355.11 60.9151 355.803 60.9151C358.159 60.9151 360.307 59.5369 361.277 57.263C362.456 54.2999 361 50.8545 358.02 49.683C355.04 48.5116 351.575 49.9587 350.397 52.9217L340.557 77.3842L339.517 76.9708L349.358 52.5083C350.536 49.5452 349.081 46.0998 346.101 44.9283C343.121 43.7569 339.656 45.204 338.478 48.1671C337.3 51.1301 338.755 54.5755 341.735 55.747C342.428 56.0226 343.19 56.1604 343.883 56.1604C344.368 56.1604 344.923 56.0915 345.408 55.9537L337.299 76.075L332.726 74.2145L335.29 67.806L334.666 67.2547C326.073 59.8815 323.093 47.7536 327.32 37.2106ZM345.546 91.4416L345.823 90.8214C346.031 90.2701 346.101 89.7189 346.101 89.0987L346.17 89.1676C346.655 89.3743 347.14 89.4432 347.695 89.4432C348.249 89.4432 348.803 89.3054 349.288 89.0987C350.259 88.6852 351.09 87.8583 351.437 86.8936L351.714 86.2734C352.546 84.2751 351.575 82.07 349.704 81.1053L351.645 76.2128C363.703 76.4195 374.722 69.1841 379.226 57.9521C382.137 50.7167 381.998 42.8611 378.949 35.6946C375.9 28.5281 370.217 23.0155 363.01 20.1213C355.803 17.2271 347.833 17.296 340.695 20.3969C333.557 23.4289 328.013 29.0794 325.103 36.3148C320.598 47.5469 323.578 60.3639 332.448 68.4951L330.508 73.3876C328.498 72.7674 326.281 73.7321 325.449 75.7304L325.172 76.3506C324.34 78.4179 325.38 80.8297 327.459 81.6566L327.528 81.7255C327.112 82.1389 326.766 82.6213 326.558 83.1726L326.281 83.7927C325.449 85.86 326.489 88.2718 328.568 89.0987L340.21 93.7156C340.695 93.9223 341.18 93.9912 341.735 93.9912C342.289 93.9912 342.844 93.8534 343.329 93.6466C344.368 93.2332 345.13 92.4063 345.546 91.4416Z" fill="black"/>
<path fill-rule="evenodd" clip-rule="evenodd" d="M336.814 33.6274C337.161 33.6274 337.438 33.4896 337.646 33.2828C341.527 29.2861 346.932 27.0122 352.546 27.0811C353.169 27.15 353.724 26.5987 353.724 25.9096C353.724 25.2894 353.239 24.7382 352.546 24.6693C346.309 24.5314 340.21 27.0811 335.914 31.5601C335.428 32.0425 335.498 32.8005 335.983 33.2139C336.26 33.5585 336.537 33.6274 336.814 33.6274Z" fill="black"/>
<path fill-rule="evenodd" clip-rule="evenodd" d="M379.018 27.4256C379.295 27.4256 379.503 27.3567 379.781 27.15L384.147 23.7734C384.632 23.36 384.77 22.602 384.354 22.1196C383.939 21.6373 383.176 21.4995 382.691 21.9129L378.325 25.2894C377.84 25.7029 377.701 26.4609 378.117 26.9432C378.325 27.2878 378.672 27.4256 379.018 27.4256Z" fill="black"/>
<path fill-rule="evenodd" clip-rule="evenodd" d="M365.713 15.9868C365.851 16.0557 365.99 16.0557 366.128 16.0557C366.614 16.0557 367.029 15.7801 367.237 15.2977L370.564 6.95978C370.841 6.3396 370.494 5.65052 369.871 5.44379C369.247 5.16816 368.554 5.5127 368.346 6.13288L365.02 14.4708C364.812 15.0221 365.089 15.7112 365.713 15.9868Z" fill="black"/>
<path fill-rule="evenodd" clip-rule="evenodd" d="M347.209 13.3683C347.279 13.9884 347.833 14.4019 348.387 14.4019C348.457 14.4019 348.526 14.4019 348.595 14.4019C349.219 14.333 349.704 13.7128 349.635 13.0237L348.803 7.57994C348.734 6.95976 348.11 6.4774 347.487 6.54631C346.863 6.61522 346.378 7.2354 346.447 7.92448L347.209 13.3683Z" fill="black"/>
</g>
</g>
<g opacity="0.07" clip-path="url(#clip1_201_4)">
<mask id="mask1_201_4" style="mask-type:alpha" maskUnits="userSpaceOnUse" x="967" y="-1" width="863" height="251">
<path d="M1829.43 -0.620162H967.683V249.311H1829.43V-0.620162Z" fill="white"/>
</mask>
<g mask="url(#mask1_201_4)">
<path fill-rule="evenodd" clip-rule="evenodd" d="M1013.28 218.44L1000.46 240.146C998.799 242.971 995.126 243.936 992.284 242.282C990.898 241.455 989.928 240.146 989.512 238.63C989.096 237.114 989.304 235.46 990.136 234.082L1002.96 212.376C1004.07 210.447 1006.08 209.413 1008.15 209.413C1009.19 209.413 1010.23 209.689 1011.2 210.24C1012.59 211.067 1013.56 212.376 1013.98 213.892C1014.32 215.408 1014.11 217.062 1013.28 218.44ZM1012.31 208.173C1008.36 205.83 1003.16 207.208 1000.88 211.136L988.057 232.911C986.948 234.84 986.602 237.114 987.156 239.25C987.71 241.386 989.096 243.247 991.037 244.35C992.354 245.108 993.809 245.521 995.264 245.521C998.175 245.521 1000.95 244.074 1002.47 241.386L1015.29 219.68C1016.4 217.751 1016.75 215.477 1016.19 213.341C1015.64 211.136 1014.25 209.275 1012.31 208.173Z" fill="black"/>
<path fill-rule="evenodd" clip-rule="evenodd" d="M1063.25 178.886L1054.1 194.46L1004.13 165.243L1013.28 149.669L1063.25 178.886ZM1000.88 166.001L1054.93 197.63L1066.5 177.991L1012.45 146.362L1000.88 166.001Z" fill="black"/>
<path fill-rule="evenodd" clip-rule="evenodd" d="M1066.3 189.705L1062.14 187.224L1060.96 189.292L1064.15 191.152L1056.46 204.245L1022.78 190.325C1022.22 190.119 1021.6 190.325 1021.32 190.808L1012.24 206.174L1014.32 207.346L1022.85 192.806L1056.53 206.726C1057.08 206.932 1057.7 206.725 1057.98 206.243L1066.78 191.221C1066.92 190.945 1066.99 190.601 1066.92 190.325C1066.78 190.119 1066.57 189.912 1066.3 189.705Z" fill="black"/>
<path fill-rule="evenodd" clip-rule="evenodd" d="M1078.7 33.4206C1078.98 32.3181 1079.67 31.4223 1080.64 30.871C1081.27 30.5265 1082.03 30.3198 1082.72 30.3198C1083.07 30.3198 1083.48 30.3887 1083.83 30.4576C1086.05 31.0778 1087.36 33.3517 1086.81 35.5568C1086.19 37.7619 1083.9 39.0711 1081.68 38.5199C1080.57 38.2442 1079.67 37.5552 1079.12 36.5904C1078.56 35.6257 1078.42 34.4543 1078.7 33.4206ZM1081.06 40.7939C1081.61 40.9317 1082.24 41.0006 1082.79 41.0006C1085.7 41.0006 1088.33 39.0711 1089.17 36.177C1090.14 32.6627 1088.06 29.0794 1084.52 28.1147C1082.86 27.6323 1081.06 27.908 1079.53 28.7349C1078.01 29.6307 1076.9 31.0088 1076.48 32.7316C1075.51 36.2459 1077.52 39.8291 1081.06 40.7939Z" fill="black"/>
<path fill-rule="evenodd" clip-rule="evenodd" d="M1074.47 28.1147L1081.47 24.118L1089.24 26.1852L1093.25 33.145L1091.18 40.8628L1084.18 44.8594L1076.41 42.7922L1072.33 35.8324L1074.47 28.1147ZM1074.54 44.3771C1074.68 44.6527 1074.96 44.8594 1075.24 44.9284L1083.97 47.2712C1084.04 47.2712 1084.18 47.3401 1084.25 47.3401C1084.45 47.3401 1084.66 47.2712 1084.87 47.2023L1092.7 42.7233C1092.98 42.5855 1093.19 42.3098 1093.25 42.0342L1095.61 33.3517C1095.68 33.0761 1095.68 32.7315 1095.47 32.4559L1090.97 24.6693C1090.83 24.3936 1090.55 24.1869 1090.27 24.118L1081.54 21.7751C1081.27 21.7062 1080.92 21.7062 1080.64 21.9129L1072.81 26.392C1072.53 26.5298 1072.33 26.8054 1072.26 27.0811L1069.9 35.7635C1069.83 36.0392 1069.83 36.3837 1070.04 36.6593L1074.54 44.3771Z" fill="black"/>
<path fill-rule="evenodd" clip-rule="evenodd" d="M1486.05 161.315C1485.43 162.555 1484.32 163.451 1482.93 163.933C1480.23 164.829 1477.32 163.52 1476.35 161.039C1476.21 159.248 1474.68 143.812 1473.02 138.713C1471.01 132.649 1463.18 120.521 1462.21 119.074L1456.94 102.811L1466.99 99.435L1486.4 157.594C1486.81 158.765 1486.67 160.074 1486.05 161.315ZM1451.19 102.122C1451.05 102.191 1450.98 102.191 1450.84 102.329L1437.82 111.976L1430.61 90.4768L1464.01 79.3137L1469.63 95.9895L1468.52 96.3341L1461.59 98.677L1451.19 102.122ZM1469.21 98.6081L1471.43 97.8501C1471.7 97.7811 1471.98 97.5055 1472.12 97.2299C1472.26 96.9542 1472.26 96.6097 1472.19 96.3341L1465.81 77.4531C1465.61 76.833 1464.91 76.4884 1464.29 76.6951L1428.67 88.6163C1428.39 88.6852 1428.11 88.9609 1427.98 89.2365C1427.84 89.5121 1427.84 89.8567 1427.91 90.1323L1436.01 114.25C1436.15 114.595 1436.43 114.87 1436.78 115.008C1436.92 115.077 1436.98 115.077 1437.12 115.077C1437.4 115.077 1437.61 115.008 1437.82 114.87L1452.02 104.327L1454.59 103.501L1459.99 120.039L1460.06 120.176C1460.13 120.314 1468.65 133.338 1470.66 139.402C1472.33 144.432 1473.92 161.177 1473.92 161.384L1473.99 161.659C1475.03 164.691 1477.94 166.621 1481.06 166.621C1481.89 166.621 1482.72 166.483 1483.55 166.207C1485.49 165.587 1487.09 164.209 1487.99 162.486C1488.96 160.695 1489.1 158.696 1488.47 156.836L1469.21 98.6081Z" fill="black"/>
<path fill-rule="evenodd" clip-rule="evenodd" d="M1207.74 152.494L1204.2 165.105L1200.95 169.377L1189.17 199.077L1188.96 199.008L1184.45 197.216L1184.32 197.147L1196.1 167.448L1196.65 162.142L1202.68 150.565L1207.74 152.494ZM1192.01 209.757L1179.88 243.66C1179.6 244.487 1178.98 245.176 1178.15 245.521C1177.32 245.865 1176.42 245.934 1175.58 245.59L1162.21 240.353C1161.38 240.008 1160.68 239.388 1160.34 238.561C1159.99 237.734 1159.99 236.838 1160.34 236.012L1174.75 203.004C1175.86 200.455 1178.36 198.939 1180.99 198.939C1181.82 198.939 1182.65 199.077 1183.48 199.421L1188.06 201.213C1191.52 202.522 1193.26 206.312 1192.01 209.757ZM1194.23 161.384L1193.67 166.827L1181.89 196.596C1178.01 196.251 1174.27 198.319 1172.6 202.04L1158.19 235.047C1157.57 236.494 1157.57 238.01 1158.12 239.457C1158.74 240.904 1159.85 242.007 1161.31 242.558L1174.61 247.795C1175.31 248.071 1176 248.208 1176.69 248.208C1177.52 248.208 1178.29 248.071 1179.05 247.726C1180.43 247.106 1181.54 245.934 1182.03 244.487L1194.16 210.584C1195.54 206.725 1194.23 202.66 1191.11 200.248L1202.89 170.48L1206.21 166.138L1210.44 151.047L1201.36 147.464L1194.23 161.384Z" fill="black"/>
<path fill-rule="evenodd" clip-rule="evenodd" d="M1179.4 206.243C1178.77 205.967 1178.08 206.312 1177.87 206.932L1166.44 235.667C1166.23 236.287 1166.51 236.976 1167.13 237.183C1167.27 237.252 1167.41 237.252 1167.54 237.252C1168.03 237.252 1168.45 236.976 1168.65 236.494L1180.09 207.759C1180.3 207.139 1180.02 206.45 1179.4 206.243Z" fill="black"/>
<path fill-rule="evenodd" clip-rule="evenodd" d="M1186.46 208.999C1185.84 208.724 1185.15 209.068 1184.94 209.689L1173.57 238.423C1173.37 239.044 1173.64 239.733 1174.27 239.939C1174.41 240.008 1174.54 240.008 1174.68 240.008C1175.17 240.008 1175.58 239.733 1175.79 239.25L1187.23 210.515C1187.43 209.964 1187.09 209.275 1186.46 208.999Z" fill="black"/>
<path fill-rule="evenodd" clip-rule="evenodd" d="M995.957 83.9306L995.68 84.5507C995.333 85.4466 994.363 85.86 993.462 85.5155L981.82 80.8986C980.919 80.554 980.503 79.5893 980.85 78.6935L981.127 78.0733C981.266 77.6599 981.612 77.3153 982.028 77.1775C982.236 77.1086 982.444 77.0397 982.721 77.0397C982.929 77.0397 983.137 77.1086 983.345 77.1775L989.166 79.5204L994.987 81.8633C995.403 82.0011 995.749 82.3457 995.888 82.7591C996.165 83.1037 996.165 83.5171 995.957 83.9306ZM979.81 71.3203L980.087 70.7001C980.365 70.0111 980.988 69.6665 981.681 69.6665C981.889 69.6665 982.097 69.7354 982.305 69.8043L989.928 72.8363L993.185 74.1456L1000.95 77.2464C1001.85 77.591 1002.26 78.5557 1001.92 79.4515L1001.64 80.0717C1001.5 80.4851 1001.15 80.8297 1000.74 80.9675C1000.32 81.1742 999.838 81.1742 999.422 80.9675L980.711 73.5254C979.88 73.1808 979.464 72.1472 979.81 71.3203ZM995.056 47.6158C994.225 47.2712 993.532 46.5822 993.116 45.7553C992.769 44.9284 992.769 43.9636 993.116 43.0678C993.67 41.6897 994.987 40.8628 996.373 40.8628C996.789 40.8628 997.274 40.9317 997.69 41.1384C999.492 41.8275 1000.32 43.8947 999.63 45.6864C998.868 47.4091 996.789 48.3049 995.056 47.6158ZM1005.04 47.8225C1005.59 46.4443 1006.91 45.6174 1008.29 45.6174C1008.71 45.6174 1009.19 45.6863 1009.61 45.8931C1011.41 46.5822 1012.24 48.6494 1011.55 50.441C1010.86 52.2327 1008.78 53.0596 1007.05 52.3705C1005.17 51.6125 1004.27 49.6141 1005.04 47.8225ZM979.741 31.2845C982.374 24.6693 987.503 19.5011 994.086 16.6759C1000.67 13.8506 1007.95 13.7817 1014.6 16.4691C1021.18 19.0877 1026.38 24.118 1029.22 30.7332C1032.06 37.2795 1032.13 44.5149 1029.43 51.1301C1025.2 61.6731 1014.67 68.4262 1003.3 67.8749L1002.47 67.806L999.907 74.2145L999.145 73.9388L995.126 72.3539L1003.23 52.2327C1003.86 53.2663 1004.83 54.0932 1006.01 54.5755C1006.7 54.8512 1007.46 54.989 1008.15 54.989C1010.51 54.989 1012.66 53.6108 1013.63 51.3368C1014.81 48.3738 1013.35 44.9284 1010.37 43.7569C1007.39 42.5855 1003.93 44.0325 1002.75 46.9956L992.908 71.4581L991.868 71.0447L1001.78 46.5132C1002.96 43.5502 1001.5 40.1048 998.521 38.9333C995.541 37.7619 992.076 39.2089 990.898 42.172C989.72 45.1351 991.175 48.5805 994.155 49.7519C994.848 50.0276 995.611 50.1654 996.304 50.1654C996.789 50.1654 997.343 50.0965 997.828 49.9587L989.72 70.08L985.146 68.2194L987.71 61.8109L987.087 61.2597C978.424 53.9554 975.514 41.8275 979.741 31.2845ZM997.967 85.4466L998.244 84.8264C998.452 84.2751 998.521 83.7238 998.521 83.1037L998.591 83.1726C999.076 83.3793 999.561 83.4482 1000.12 83.4482C1000.67 83.4482 1001.22 83.3104 1001.71 83.1037C1002.68 82.6902 1003.51 81.8633 1003.86 80.8986L1004.13 80.2784C1004.97 78.2801 1004 76.075 1002.12 75.1103L1004.07 70.2178C1016.12 70.4245 1027.14 63.1891 1031.65 51.957C1034.56 44.7216 1034.42 36.8661 1031.37 29.6996C1028.32 22.5331 1022.64 17.0204 1015.43 14.1263C1008.22 11.2321 1000.32 11.4388 993.116 14.4708C985.909 17.5028 980.434 23.2222 977.523 30.3887C973.019 41.6207 975.999 54.4377 984.869 62.5689L982.929 67.4614C980.919 66.8413 978.701 67.806 977.87 69.8043L977.593 70.4245C976.761 72.4918 977.8 74.9035 979.88 75.7304L979.949 75.7994C979.533 76.2128 979.187 76.6952 978.979 77.2464L978.701 77.8666C977.87 79.9339 978.909 82.3457 980.988 83.1726L992.631 87.7894C993.116 87.9962 993.601 88.0651 994.155 88.0651C994.71 88.0651 995.264 87.9273 995.749 87.7205C996.789 87.2382 997.551 86.4802 997.967 85.4466Z" fill="black"/>
<path fill-rule="evenodd" clip-rule="evenodd" d="M989.235 27.7012C989.582 27.7012 989.859 27.5634 990.067 27.3567C993.948 23.36 999.353 21.086 1004.97 21.1549C1005.59 21.2238 1006.14 20.6726 1006.14 19.9835C1006.14 19.3633 1005.66 18.812 1004.97 18.7431C998.729 18.6053 992.631 21.1549 988.334 25.634C987.918 26.1852 987.918 26.9432 988.404 27.3567C988.611 27.5634 988.958 27.7012 989.235 27.7012Z" fill="black"/>
<path fill-rule="evenodd" clip-rule="evenodd" d="M1031.44 21.4995C1031.72 21.4995 1031.92 21.4305 1032.2 21.2238L1036.57 17.8473C1037.05 17.4339 1037.19 16.6759 1036.77 16.1935C1036.36 15.7111 1035.6 15.5733 1035.11 15.9868L1030.75 19.3633C1030.26 19.7767 1030.12 20.5347 1030.54 21.0171C1030.75 21.2927 1031.09 21.4995 1031.44 21.4995Z" fill="black"/>
<path fill-rule="evenodd" clip-rule="evenodd" d="M1269.07 175.028C1268.24 176.475 1266.99 177.439 1265.4 177.922C1262.21 178.818 1258.88 176.957 1257.98 173.787C1255.97 166.827 1253.34 157.732 1252.51 153.528C1250.84 145.328 1248.28 119.97 1248.28 119.763C1248.28 119.694 1248.28 119.625 1248.21 119.556L1245.85 111.012L1247.52 110.529C1250.64 113.768 1255 115.422 1259.51 115.077L1259.85 116.249C1260.06 118.247 1262.49 142.02 1264.08 150.152C1264.91 154.424 1267.48 163.52 1269.49 170.411C1270.04 171.996 1269.83 173.649 1269.07 175.028ZM1271.84 169.791C1269.83 162.969 1267.27 153.873 1266.44 149.738C1264.77 141.538 1262.21 116.18 1262.21 115.973C1262.21 115.904 1262.21 115.835 1262.14 115.766L1261.52 113.561C1261.38 113.01 1260.75 112.596 1260.2 112.734C1255.9 113.423 1251.68 111.838 1248.83 108.531C1248.56 108.186 1248.07 108.049 1247.59 108.186L1244.05 109.151C1243.78 109.22 1243.5 109.427 1243.36 109.702C1243.22 109.978 1243.15 110.322 1243.22 110.598L1245.85 120.176C1246.06 122.175 1248.49 145.948 1250.08 154.079C1250.91 158.352 1253.55 167.585 1255.56 174.545C1256.6 178.197 1259.99 180.609 1263.66 180.609C1264.43 180.609 1265.12 180.54 1265.88 180.334C1268.1 179.713 1269.9 178.335 1271.01 176.337C1272.26 174.27 1272.47 171.927 1271.84 169.791Z" fill="black"/>
<path fill-rule="evenodd" clip-rule="evenodd" d="M1272.88 103.638L1275.03 103.018L1277.39 111.563C1277.39 111.632 1277.46 111.701 1277.46 111.77C1277.59 111.976 1288.34 135.061 1291.11 142.985C1292.56 146.982 1294.99 156.216 1296.79 163.175C1297.62 166.345 1295.68 169.653 1292.56 170.48C1290.97 170.893 1289.31 170.686 1287.92 169.859C1286.53 169.033 1285.49 167.723 1285.08 166.138C1283.28 159.179 1280.85 150.014 1279.4 145.948C1276.62 138.093 1266.51 116.455 1265.67 114.595L1265.33 113.354C1269.14 111.425 1271.91 107.842 1272.88 103.638ZM1263.46 111.701C1262.9 111.907 1262.63 112.528 1262.76 113.079L1263.39 115.353C1263.39 115.422 1263.46 115.491 1263.46 115.56C1263.6 115.766 1274.34 138.851 1277.11 146.775C1278.49 150.772 1280.99 159.868 1282.72 166.759C1283.28 168.964 1284.66 170.755 1286.67 171.927C1287.99 172.685 1289.44 173.029 1290.9 173.029C1291.66 173.029 1292.42 172.96 1293.12 172.754C1297.55 171.513 1300.19 166.965 1299.08 162.555C1297.28 155.526 1294.78 146.293 1293.33 142.158C1290.55 134.303 1280.44 112.665 1279.6 110.805L1276.97 101.227C1276.9 100.951 1276.69 100.675 1276.42 100.537C1276.14 100.4 1275.79 100.331 1275.52 100.4L1271.5 101.502C1271.08 101.64 1270.73 101.985 1270.66 102.467C1269.97 106.601 1267.2 110.047 1263.46 111.701Z" fill="black"/>
<path fill-rule="evenodd" clip-rule="evenodd" d="M1243.98 69.8043L1246.41 69.1152L1248.63 77.3153C1248 78.4179 1247.79 79.7271 1248.14 80.8986C1248.49 82.1389 1249.32 83.1037 1250.43 83.7238L1252.3 90.408C1252.37 90.7525 1252.65 91.0281 1252.99 91.166C1253.34 91.3038 1253.69 91.3038 1254.03 91.166C1254.59 90.8903 1255.14 90.6836 1255.69 90.5458C1256.25 90.408 1256.87 90.2701 1257.5 90.2701C1257.84 90.2701 1258.19 90.0634 1258.4 89.7878C1258.61 89.5121 1258.67 89.0987 1258.61 88.8231L1256.73 82.1389C1257.36 81.0364 1257.57 79.7271 1257.22 78.5557C1256.87 77.3153 1256.04 76.3506 1254.93 75.7304L1252.72 67.5303L1255.14 66.8413L1264.77 83.1726L1268.03 94.9559L1267.68 95.0248C1267.34 95.0937 1267.13 95.3005 1266.92 95.5761C1266.78 95.8517 1266.71 96.1963 1266.85 96.4719L1266.92 96.6786C1266.92 96.7475 1266.99 96.8164 1266.99 96.9543C1268.31 101.847 1265.47 106.877 1260.55 108.186C1255.69 109.496 1250.57 106.67 1249.25 101.778C1249.25 101.709 1249.18 101.64 1249.18 101.502L1249.11 101.295C1249.04 100.951 1248.83 100.675 1248.56 100.537C1248.35 100.4 1248.14 100.4 1247.93 100.4C1247.79 100.4 1247.73 100.4 1247.59 100.469L1247.24 100.537L1243.98 88.7542V69.8043ZM1246.82 103.156L1247.1 103.087C1248 105.775 1249.87 107.98 1252.37 109.427C1254.1 110.46 1256.11 110.943 1258.05 110.943C1259.09 110.943 1260.13 110.805 1261.1 110.529C1267.06 108.875 1270.59 102.949 1269.35 97.0232L1269.62 96.9543C1270.25 96.7475 1270.66 96.1274 1270.46 95.5072L1266.85 82.4146C1266.85 82.3457 1266.78 82.2078 1266.71 82.1389L1256.67 64.774C1256.39 64.2916 1255.83 64.0849 1255.35 64.2227L1250.91 65.4631C1250.29 65.6698 1249.87 66.29 1250.08 66.9102L1252.78 76.7641C1252.85 77.1086 1253.13 77.4532 1253.48 77.591C1254.17 77.8666 1254.66 78.4179 1254.86 79.107C1255.07 79.7961 1254.93 80.554 1254.45 81.1053C1254.24 81.3809 1254.1 81.7944 1254.24 82.1389L1255.9 88.0651C1255.63 88.134 1255.35 88.2029 1255.07 88.2718C1254.79 88.3407 1254.52 88.4096 1254.24 88.5474L1252.58 82.6213C1252.51 82.2768 1252.23 81.9322 1251.88 81.7944C1251.19 81.5188 1250.71 80.9675 1250.5 80.2784C1250.29 79.5893 1250.43 78.8313 1250.91 78.2801C1251.12 78.0044 1251.26 77.591 1251.12 77.2464L1248.42 67.3925C1248.21 66.7723 1247.59 66.3589 1246.96 66.5656L1242.53 67.806C1242.04 67.9438 1241.63 68.4261 1241.63 68.9774L1241.77 89.0298C1241.77 89.1676 1241.77 89.2365 1241.83 89.3054L1245.44 102.398C1245.58 102.949 1246.2 103.294 1246.82 103.156Z" fill="black"/>
<path fill-rule="evenodd" clip-rule="evenodd" d="M1151.19 13.0237L1167.2 8.47576L1180.02 4.82361L1185.35 23.7045L1143.64 35.4879L1138.3 16.607L1151.19 13.0237ZM1152.85 10.0607L1152.44 8.68249L1163.87 5.44379L1164.29 6.82196L1155.97 9.16485L1152.85 10.0607ZM1185.49 81.312C1185.77 82.1389 1185.63 83.0347 1185.22 83.8616C1184.8 84.6196 1184.11 85.1709 1183.21 85.4465L1177.94 86.8936C1177.11 87.1004 1176.21 87.0314 1175.45 86.618C1174.68 86.2045 1174.13 85.4465 1173.92 84.6196L1160.89 33.145L1169.55 30.6643L1185.49 81.312ZM1142.04 38.451L1158.54 33.7652L1171.56 85.1709C1171.98 86.618 1172.95 87.8583 1174.27 88.6163C1175.1 89.0987 1176.07 89.3743 1177.04 89.3743C1177.52 89.3743 1178.08 89.3054 1178.56 89.1676L1183.83 87.7205C1185.29 87.3071 1186.53 86.3424 1187.23 85.0331C1187.99 83.7238 1188.13 82.1389 1187.71 80.6919L1171.77 30.113L1188.27 25.4273L1181.61 1.99836L1166.57 6.20178L1165.54 2.54963L1149.53 7.09759L1150.57 10.7497L1135.39 15.0221L1142.04 38.451Z" fill="black"/>
<path fill-rule="evenodd" clip-rule="evenodd" d="M1447.59 227.743L1375.93 247.037L1379.88 237.252C1379.95 237.045 1380.02 236.77 1379.95 236.494L1374.2 215.339C1373.51 212.858 1373.85 210.309 1375.17 208.104C1376.42 205.899 1378.5 204.314 1380.92 203.694L1436.98 188.603C1442.04 187.224 1447.31 190.256 1448.7 195.287L1454.31 216.097C1455.63 221.196 1452.65 226.433 1447.59 227.743ZM1450.91 194.666C1449.18 188.327 1442.67 184.606 1436.29 186.329L1380.23 201.42C1377.18 202.246 1374.61 204.245 1373.02 206.932C1371.43 209.689 1371.01 212.858 1371.84 215.959L1377.46 236.701L1372.74 248.346C1372.6 248.76 1372.67 249.242 1372.95 249.587C1373.16 249.862 1373.51 250 1373.85 250C1373.92 250 1374.06 250 1374.13 249.931L1448.14 230.017C1454.45 228.294 1458.26 221.816 1456.53 215.477L1450.91 194.666Z" fill="black"/>
<path fill-rule="evenodd" clip-rule="evenodd" d="M1390.55 224.642L1388.82 225.124L1389.38 227.26C1389.79 228.707 1389.44 229.81 1388.06 230.154C1386.74 230.499 1385.91 229.81 1385.49 228.294L1383.14 219.611C1382.72 218.164 1383.14 217.062 1384.46 216.717C1385.77 216.373 1386.6 217.062 1387.02 218.578L1387.44 220.163L1389.17 219.68L1388.75 218.233C1388.06 215.753 1386.46 214.443 1383.9 215.132C1381.41 215.821 1380.64 217.751 1381.34 220.232L1383.62 228.707C1384.32 231.188 1385.91 232.497 1388.41 231.808C1390.97 231.119 1391.66 229.19 1390.97 226.709L1390.55 224.642Z" fill="black"/>
<path fill-rule="evenodd" clip-rule="evenodd" d="M1389.44 213.823L1393.88 230.223L1395.68 229.672L1391.73 214.995L1395.75 213.892L1399.7 228.638L1401.57 228.087L1397.14 211.756L1389.44 213.823Z" fill="black"/>
<path fill-rule="evenodd" clip-rule="evenodd" d="M1404.21 222.161L1403.44 212.238L1407.88 221.196L1404.21 222.161ZM1401.71 210.515L1403.03 227.743L1404.69 227.26L1404.41 223.815L1408.57 222.712L1410.1 225.813L1411.9 225.331L1404.34 209.826L1401.71 210.515Z" fill="black"/>
<path fill-rule="evenodd" clip-rule="evenodd" d="M1418.97 216.993L1417.23 217.475L1417.79 219.611C1418.2 221.058 1417.86 222.161 1416.47 222.506C1415.16 222.85 1414.32 222.161 1413.91 220.645L1411.55 211.963C1411.14 210.515 1411.55 209.413 1412.87 209.068C1414.18 208.724 1415.02 209.413 1415.43 210.929L1415.85 212.514L1417.58 212.031L1417.16 210.584C1416.47 208.104 1414.88 206.794 1412.31 207.483C1409.82 208.173 1409.06 210.102 1409.75 212.583L1412.04 221.058C1412.73 223.539 1414.32 224.848 1416.82 224.159C1419.38 223.47 1420.08 221.541 1419.38 219.06L1418.97 216.993Z" fill="black"/>
<path fill-rule="evenodd" clip-rule="evenodd" d="M1423.54 204.658L1422.99 212.376L1422.71 217.958L1419.45 205.761L1417.79 206.174L1422.22 222.574L1424.16 222.023L1424.51 213.823L1424.79 207.897L1428.32 220.921L1429.99 220.507L1425.55 204.107L1423.54 204.658Z" fill="black"/>
<path fill-rule="evenodd" clip-rule="evenodd" d="M1435.25 217.268L1433.24 217.82L1431.51 211.48L1433.45 210.929C1434.77 210.584 1435.6 210.86 1436.08 212.445L1436.64 214.512C1436.98 216.097 1436.57 216.924 1435.25 217.268ZM1437.89 212.169C1437.19 209.551 1435.53 208.655 1432.97 209.344L1431.02 209.826L1429.64 204.727L1434.77 203.349L1434.35 201.695L1427.42 203.556L1431.86 219.887L1435.67 218.853C1438.23 218.164 1439.06 216.442 1438.37 213.892L1437.89 212.169Z" fill="black"/>
<path fill-rule="evenodd" clip-rule="evenodd" d="M1444.47 214.995C1443.15 215.339 1442.32 214.65 1441.9 213.134L1439.55 204.452C1439.13 203.004 1439.55 201.902 1440.87 201.557C1442.18 201.213 1443.08 201.902 1443.43 203.418L1445.79 212.1C1446.13 213.616 1445.79 214.65 1444.47 214.995ZM1445.23 203.073C1444.54 200.593 1442.88 199.283 1440.31 199.972C1437.82 200.662 1436.98 202.591 1437.68 205.072L1439.96 213.547C1440.66 216.028 1442.32 217.337 1444.82 216.648C1447.38 215.959 1448.14 214.03 1447.45 211.549L1445.23 203.073Z" fill="black"/>
<path fill-rule="evenodd" clip-rule="evenodd" d="M1135.18 148.98L1059.02 122.726L1068.72 116.249C1068.93 116.111 1069.07 115.904 1069.21 115.628L1076.97 93.2332C1077.87 90.6147 1079.74 88.4785 1082.24 87.3071C1084.73 86.1356 1087.57 85.9289 1090.21 86.8247L1149.67 107.291C1155.07 109.151 1157.98 115.077 1156.11 120.521L1148.49 142.572C1146.55 147.947 1140.59 150.841 1135.18 148.98ZM1158.33 121.279C1160.61 114.664 1157.08 107.359 1150.43 105.085L1090.97 84.6196C1084.32 82.3457 1076.97 85.86 1074.68 92.4752L1067.06 114.526L1055.69 122.106C1055.35 122.381 1055.14 122.795 1055.21 123.208C1055.28 123.622 1055.56 124.035 1055.97 124.173L1134.42 151.185C1135.81 151.668 1137.19 151.874 1138.58 151.874C1143.91 151.874 1148.83 148.567 1150.7 143.261L1158.33 121.279Z" fill="black"/>
<path fill-rule="evenodd" clip-rule="evenodd" d="M1084.45 98.1946L1078.15 116.455L1080.16 117.144L1085.91 100.744L1090.41 102.26L1084.66 118.729L1086.74 119.418L1093.05 101.158L1084.45 98.1946Z" fill="black"/>
<path fill-rule="evenodd" clip-rule="evenodd" d="M1099.91 108.324L1096.58 117.971C1096.03 119.625 1094.99 120.383 1093.46 119.832C1092.01 119.35 1091.59 118.109 1092.22 116.455L1095.54 106.808C1096.1 105.154 1097.14 104.396 1098.66 104.948C1100.12 105.43 1100.46 106.67 1099.91 108.324ZM1099.28 103.087C1096.44 102.122 1094.43 103.432 1093.46 106.257L1090.21 115.697C1089.24 118.454 1090 120.797 1092.84 121.761C1095.68 122.726 1097.69 121.417 1098.66 118.592L1101.92 109.151C1102.89 106.326 1102.13 104.052 1099.28 103.087Z" fill="black"/>
<path fill-rule="evenodd" clip-rule="evenodd" d="M1111.76 107.566L1109.12 115.215C1108.43 116.524 1107.39 117.007 1106.14 116.593C1104.69 116.111 1104.27 114.733 1104.83 113.148L1107.32 105.981L1105.24 105.292L1102.68 112.596C1101.85 115.077 1102.33 117.351 1104.83 118.178C1105.94 118.592 1107.18 118.454 1108.15 117.696L1105.31 125.827L1107.32 126.516L1113.7 108.186L1111.76 107.566Z" fill="black"/>
<path fill-rule="evenodd" clip-rule="evenodd" d="M1122.29 111.218L1116.89 118.109L1113.01 123.277L1117.72 109.633L1115.92 109.013L1109.54 127.274L1111.69 128.032L1117.37 120.452L1121.39 115.077L1116.4 129.617L1118.2 130.306L1124.58 111.976L1122.29 111.218Z" fill="black"/>
<path fill-rule="evenodd" clip-rule="evenodd" d="M1133.17 114.939L1130.33 123.208L1125.83 121.623L1128.67 113.423L1126.66 112.665L1120.28 130.995L1122.29 131.684L1125.2 123.484L1129.71 125L1126.87 133.269L1128.88 133.958L1135.25 115.628L1133.17 114.939Z" fill="black"/>
<path fill-rule="evenodd" clip-rule="evenodd" d="M1138.3 125.551L1134.42 130.651L1139.13 117.007L1137.33 116.386L1130.95 134.647L1133.1 135.405L1138.79 127.825L1142.87 122.45L1137.82 137.059L1139.62 137.679L1145.99 119.35L1143.71 118.592L1138.3 125.551Z" fill="black"/>
<path fill-rule="evenodd" clip-rule="evenodd" d="M1370.25 146.913C1367.41 140.022 1374.2 136.025 1371.22 128.79C1370.39 126.723 1369.07 125.482 1367.2 125.482C1366.51 125.482 1365.74 125.62 1364.91 125.965C1361.79 127.274 1361.24 129.617 1362.42 132.373L1363.6 135.13L1359.58 136.783L1358.54 134.234C1356.6 129.479 1357.84 125.138 1363.8 122.726C1365.54 122.037 1367.06 121.692 1368.45 121.692C1371.84 121.692 1374.27 123.691 1375.65 127.136C1378.77 134.716 1371.77 139.333 1374.27 145.397C1374.48 145.948 1374.89 146.499 1375.24 146.982L1371.36 148.567C1370.87 148.153 1370.53 147.671 1370.25 146.913ZM1372.19 150.772L1376.07 149.187C1376.76 148.911 1377.32 148.291 1377.46 147.602C1377.66 146.844 1377.46 146.086 1376.97 145.535C1376.69 145.19 1376.49 144.846 1376.35 144.57C1375.58 142.71 1376.14 140.987 1377.18 138.299C1378.36 135.13 1379.81 131.271 1377.8 126.378C1375.93 121.899 1372.6 119.487 1368.38 119.487C1366.64 119.487 1364.77 119.901 1362.83 120.728C1359.37 122.175 1357.08 124.242 1355.97 126.861C1354.93 129.341 1355.07 132.304 1356.32 135.267L1357.36 137.817C1357.57 138.368 1358.05 138.851 1358.68 139.126C1358.95 139.264 1359.3 139.333 1359.58 139.333C1359.85 139.333 1360.2 139.264 1360.48 139.126L1364.5 137.472C1365.05 137.266 1365.54 136.783 1365.81 136.163C1366.09 135.612 1366.09 134.923 1365.81 134.372L1364.63 131.615C1363.8 129.548 1364.36 128.859 1365.81 128.308C1366.37 128.101 1366.78 127.963 1367.2 127.963C1367.55 127.963 1368.31 127.963 1369.07 129.824C1370.25 132.649 1369.49 134.785 1368.58 137.472C1367.55 140.436 1366.37 143.743 1368.17 147.947C1368.52 148.773 1368.93 149.531 1369.56 150.221C1370.04 150.772 1370.66 151.116 1371.43 151.116C1371.56 150.979 1371.91 150.91 1372.19 150.772Z" fill="black"/>
<path fill-rule="evenodd" clip-rule="evenodd" d="M1375.79 160.006L1373.99 155.664L1378.08 154.01L1379.88 158.352L1375.79 160.006ZM1378.08 151.599C1377.8 151.599 1377.46 151.668 1377.18 151.805L1373.09 153.459C1372.54 153.666 1372.05 154.148 1371.77 154.768C1371.5 155.32 1371.5 156.009 1371.77 156.56L1373.57 160.901C1373.78 161.453 1374.27 161.935 1374.89 162.211C1375.17 162.348 1375.52 162.417 1375.79 162.417C1376.07 162.417 1376.42 162.348 1376.69 162.211L1380.78 160.557C1382.03 160.074 1382.58 158.696 1382.1 157.456L1380.3 153.115C1379.88 152.15 1378.98 151.599 1378.08 151.599Z" fill="black"/>
<path fill-rule="evenodd" clip-rule="evenodd" d="M1454.1 16.0557L1452.85 19.1566L1446.41 18.6053L1448.28 13.7817L1454.1 16.0557ZM1443.29 8.8203C1443.15 8.40685 1443.08 7.9934 1443.29 7.64886L1445.02 3.1009L1451.12 5.44379L1450.98 5.85724C1450.78 6.47741 1451.05 7.1665 1451.68 7.37322L1456.04 9.02703C1456.32 9.16484 1456.67 9.16484 1456.94 9.02703C1457.22 8.88921 1457.43 8.68248 1457.57 8.33794L1457.71 7.92449L1463.8 10.2674L1462.07 14.8153C1461.72 15.6422 1460.82 16.0557 1460.06 15.7112L1456.11 14.1952L1448.07 11.1632L1444.12 9.6472C1443.71 9.50939 1443.43 9.16484 1443.29 8.8203ZM1445.51 20.9482L1451.95 21.4995L1451.05 23.9113L1444.61 23.36L1445.51 20.9482ZM1443.71 25.634L1450.15 26.1852L1448.83 29.6307L1442.39 29.0794L1443.71 25.634ZM1445.44 38.3131L1441.56 39.7602L1439.69 36.0392L1441.49 31.2845L1447.93 31.8357L1445.44 38.3131ZM1439.9 41.8275C1440.1 42.2409 1440.52 42.4476 1440.93 42.4476C1441.07 42.4476 1441.21 42.4476 1441.35 42.3787L1446.76 40.3115C1447.1 40.1737 1447.31 39.9669 1447.45 39.6224L1456.32 16.8137L1459.16 17.9162C1459.65 18.1229 1460.13 18.1919 1460.55 18.1919C1462.14 18.1919 1463.6 17.2271 1464.22 15.6422L1466.44 9.99175C1466.65 9.37157 1466.37 8.68248 1465.74 8.47576L1457.43 5.23706C1457.15 5.09924 1456.8 5.09924 1456.53 5.23706C1456.25 5.37488 1456.04 5.5816 1455.9 5.92614L1455.76 6.3396L1453.62 5.51269L1453.76 5.09924C1453.96 4.47907 1453.69 3.78998 1453.06 3.58326L1444.75 0.344557C1444.47 0.20674 1444.12 0.20674 1443.85 0.344557C1443.57 0.482374 1443.36 0.689099 1443.22 1.03364L1441 6.68414C1440.66 7.64886 1440.66 8.75139 1441.07 9.71611C1441.49 10.6808 1442.25 11.4388 1443.29 11.7834L1446.13 12.8859L1437.26 35.6946C1437.12 36.0392 1437.12 36.3837 1437.33 36.6593L1439.9 41.8275Z" fill="black"/>
<path fill-rule="evenodd" clip-rule="evenodd" d="M1338.92 82.6902C1338.65 82.5524 1338.58 82.2768 1338.65 82.1389C1338.72 82.0011 1338.72 81.7255 1339.06 81.6566L1346.2 80.0028L1355.14 57.8832L1336.71 48.9251C1334.77 47.9603 1333.31 46.3065 1332.62 44.2393C1331.93 42.172 1332.06 39.9669 1333.03 38.0375L1333.8 36.4526L1325.76 32.5248L1330.47 23.0155L1332.9 18.123L1385.91 44.1015C1386.19 44.2393 1386.19 44.5838 1386.19 44.6527C1386.19 44.7216 1386.12 45.1351 1385.7 45.204L1379.6 46.5822L1378.29 45.962L1359.58 92.8198L1338.92 82.6902ZM1347.93 59.6059L1348.7 57.4697L1352.02 59.1235L1349.94 64.2916C1348.42 62.9135 1347.31 60.8462 1347.93 59.6059ZM1324.58 29.355L1322.08 28.1147L1323.54 25.1516L1327.21 17.7784L1329.71 19.0188L1327.63 23.2222L1324.58 29.355ZM1306.77 17.7095L1308.16 14.8843L1309.54 12.059L1314.25 10.0607L1325.55 15.6422L1323.47 19.8457L1319.31 28.2525L1308.09 22.6709L1306.77 17.7095ZM1285.29 3.72108L1287.71 3.032L1291.04 4.6858L1292.56 9.23376L1286.19 6.06397L1285.29 3.72108ZM1299.56 12.6103L1295.61 10.6808L1294.09 6.13288L1298.04 8.06232L1299.56 12.6103ZM1305.31 15.3666L1302.61 14.0574L1301.09 9.50939L1306.84 12.3346L1305.31 15.3666ZM1379.67 49.1318L1386.33 47.6158C1387.57 47.3402 1388.47 46.3065 1388.61 44.9973C1388.75 43.7569 1388.13 42.5855 1387.02 42.0342L1331.79 14.8843L1330.75 16.9515L1328.25 15.7112L1328.81 14.6086L1314.32 7.51105L1307.88 10.2674L1287.99 0.482382L1282.17 2.13619L1284.39 7.78668L1304.27 17.5717L1306.01 24.3247L1320.42 31.4223L1320.98 30.3198L1323.47 31.5601L1322.43 33.6274L1330.54 37.6241C1329.5 40.0359 1329.43 42.6544 1330.26 45.1351C1331.16 47.8225 1333.03 49.9587 1335.6 51.199L1346.55 56.5739L1345.79 58.779C1344.47 61.5353 1346.69 64.9118 1349.04 66.7034L1344.4 78.1422L1338.51 79.5204C1337.26 79.796 1336.43 80.7608 1336.29 82.0011C1336.15 83.2415 1336.78 84.4129 1337.88 84.9642L1360.89 96.2652L1379.67 49.1318Z" fill="black"/>
<path fill-rule="evenodd" clip-rule="evenodd" d="M1304.21 201.488C1297.07 198.663 1288.96 202.178 1286.12 209.275L1276.35 233.806C1275.31 236.425 1275.31 239.388 1276.49 242.007C1277.59 244.625 1279.74 246.623 1282.38 247.726C1283.62 248.208 1285.01 248.484 1286.33 248.484C1287.78 248.484 1289.24 248.208 1290.55 247.588C1293.19 246.486 1295.2 244.349 1296.24 241.731L1306.15 216.786C1306.91 214.857 1306.91 212.721 1306.08 210.791C1305.24 208.862 1303.72 207.415 1301.78 206.657H1301.71C1299.77 205.899 1297.62 205.899 1295.68 206.725C1293.74 207.552 1292.29 209.068 1291.52 210.998L1284.87 227.674L1287.09 228.569L1293.74 211.894C1294.3 210.515 1295.33 209.482 1296.65 208.931C1297.97 208.379 1299.49 208.31 1300.81 208.862H1300.88C1302.26 209.413 1303.3 210.447 1303.86 211.756C1304.41 213.065 1304.48 214.581 1303.93 215.959L1294.02 240.904C1292.35 245.176 1287.5 247.244 1283.21 245.59C1281.13 244.763 1279.53 243.178 1278.63 241.18C1277.73 239.112 1277.73 236.907 1278.56 234.84L1288.34 210.309C1290.69 204.383 1297.41 201.488 1303.3 203.831C1308.92 206.036 1311.2 212.169 1308.71 218.302L1302.4 234.151L1304.62 235.047L1310.93 219.198C1313.91 211.618 1311.07 204.245 1304.21 201.488Z" fill="black"/>
<path fill-rule="evenodd" clip-rule="evenodd" d="M1016.89 10.6119C1017.02 10.6808 1017.16 10.6808 1017.3 10.6808C1017.79 10.6808 1018.2 10.4052 1018.41 9.92284L1021.74 1.58491C1022.01 0.964732 1021.67 0.275648 1021.04 0.0689225C1020.42 -0.206711 1019.73 0.137831 1019.52 0.758007L1016.19 9.09593C1015.99 9.71611 1016.26 10.4052 1016.89 10.6119Z" fill="black"/>
<path fill-rule="evenodd" clip-rule="evenodd" d="M998.521 7.78667C998.591 8.40685 999.145 8.8203 999.699 8.8203C999.769 8.8203 999.838 8.8203 999.907 8.8203C1000.53 8.75139 1001.02 8.13122 1000.95 7.44213L1000.12 1.99836C1000.05 1.37819 999.422 0.895826 998.799 0.964735C998.175 1.03364 997.69 1.65382 997.759 2.3429L998.521 7.78667Z" fill="black"/>
</g>
</g>
<defs>
<clipPath id="clip0_201_4">
<rect width="821.556" height="250" fill="white" transform="translate(-367)"/>
</clipPath>
<clipPath id="clip1_201_4">
<rect width="821.556" height="250" fill="white" transform="translate(975.444)"/>
</clipPath>
</defs>
</svg>
