<svg width="135" height="135" viewBox="0 0 135 135" fill="none" xmlns="http://www.w3.org/2000/svg">
<g clip-path="url(#clip0_201_571)">
<path d="M20.5693 14.758C-0.38995 30.2361 -3.03828 60.8161 2.53459 81.5136C10.1384 109.77 37.9703 137.814 73.6984 134.771C108.046 131.826 136.511 101.278 134.951 68.2606C133.067 28.7472 89.3935 11.3057 67.3619 7.39528C58.4908 5.8082 37.6778 2.11047 20.5693 14.758Z" fill="#F4F7FA"/>
<path d="M40.5212 97.8264C48.7497 97.8264 55.4201 87.3584 55.4201 74.4455C55.4201 61.5326 48.7497 51.0647 40.5212 51.0647C32.2928 51.0647 25.6223 61.5326 25.6223 74.4455C25.6223 87.3584 32.2928 97.8264 40.5212 97.8264Z" fill="white"/>
<path d="M32.3974 87.2075C36.884 87.2075 40.5211 81.4937 40.5211 74.4454C40.5211 67.3971 36.884 61.6833 32.3974 61.6833C27.9108 61.6833 24.2737 67.3971 24.2737 74.4454C24.2737 81.4937 27.9108 87.2075 32.3974 87.2075Z" fill="url(#paint0_linear_201_571)"/>
<path d="M41.5285 50.9993C42.4871 52.2755 43.0395 53.5026 43.3482 54.5988C44.648 59.1146 42.0322 61.5853 43.7544 66.052C45.5579 70.7314 49.3273 70.3551 51.1308 74.2819C53.6816 79.8449 49.7497 88.4674 44.2094 92.9178C41.886 94.783 39.1239 96.0429 36.1506 96.6483C37.5642 97.3355 39.0589 97.7118 40.6187 97.7118C48.8399 97.7118 55.5176 87.2403 55.5176 74.331C55.5176 61.8961 49.3436 51.7355 41.5285 50.9993Z" fill="#D8DEE8"/>
<g opacity="0.3">
<path opacity="0.3" d="M32.3975 61.6997C30.4478 61.6997 28.6443 62.7796 27.2471 64.5794C31.0977 63.8922 32.6087 64.3339 33.0799 65.152C34.1522 67.05 29.1155 70.2568 29.6842 75.1981C30.1554 79.2557 33.941 80.4829 33.6811 82.6262C33.5348 83.7552 32.3163 84.9169 28.9368 85.9967C29.9929 86.7821 31.1627 87.2075 32.3975 87.2075C36.8818 87.2075 40.5212 81.4973 40.5212 74.4454C40.5212 67.3936 36.8818 61.6997 32.3975 61.6997Z" fill="url(#paint1_linear_201_571)"/>
</g>
<path d="M56.4274 127.425C52.7555 127.425 49.181 126.77 45.7528 125.461C41.9509 124.021 38.5227 121.845 35.5494 119.015C32.5761 116.184 30.2528 112.846 28.6118 109.1C26.9058 105.205 26.0447 101.066 26.0447 96.7792V40.3315C26.0447 30.9727 29.5216 22.0556 35.8256 15.1837C42.1296 8.32815 50.7083 4.13957 59.9693 3.43602L74.3483 2.32342C79.5638 1.91438 84.6654 2.60157 89.5397 4.35227C94.2352 6.03752 98.4758 8.63902 102.148 12.0586C105.82 15.4782 108.712 19.5359 110.743 24.1171C112.855 28.8784 113.927 33.9505 113.927 39.2189V67.4755C113.927 68.1464 113.391 68.6863 112.725 68.6863C112.059 68.6863 111.522 68.1464 111.522 67.4755V39.2353C111.522 29.4838 107.607 20.4685 100.507 13.842C93.4228 7.21556 84.1943 3.99231 74.5433 4.72859L60.1643 5.84118C42.3734 7.21556 28.4493 22.3664 28.4493 40.3315V96.7792C28.4493 104.6 31.5526 111.881 37.2067 117.264C42.8445 122.647 50.2371 125.379 57.9871 124.954L71.505 124.218C72.1712 124.185 72.7236 124.692 72.7723 125.363C72.8048 126.034 72.3011 126.59 71.635 126.639L58.1171 127.376C57.5485 127.408 56.9798 127.425 56.4274 127.425Z" fill="url(#paint2_linear_201_571)"/>
<path d="M107.087 81.3994C111.573 81.3994 115.211 75.6856 115.211 68.6373C115.211 61.589 111.573 55.8752 107.087 55.8752C102.6 55.8752 98.9631 61.589 98.9631 68.6373C98.9631 75.6856 102.6 81.3994 107.087 81.3994Z" fill="url(#paint3_linear_201_571)"/>
<path d="M97.1596 92.0179C105.388 92.0179 112.059 81.55 112.059 68.6371C112.059 55.7243 105.388 45.2563 97.1596 45.2563C88.9312 45.2563 82.2607 55.7243 82.2607 68.6371C82.2607 81.55 88.9312 92.0179 97.1596 92.0179Z" fill="#D8DEE8"/>
<path opacity="0.3" d="M94.5274 81.1866C98.9423 81.1866 102.521 75.5681 102.521 68.6373C102.521 61.7064 98.9423 56.0879 94.5274 56.0879C90.1126 56.0879 86.5337 61.7064 86.5337 68.6373C86.5337 75.5681 90.1126 81.1866 94.5274 81.1866Z" fill="url(#paint4_linear_201_571)"/>
<path opacity="0.3" d="M95.7786 79.2233C99.5025 79.2233 102.521 74.4837 102.521 68.6373C102.521 62.7908 99.5025 58.0513 95.7786 58.0513C92.0547 58.0513 89.0359 62.7908 89.0359 68.6373C89.0359 74.4837 92.0547 79.2233 95.7786 79.2233Z" fill="url(#paint5_linear_201_571)"/>
<path d="M27.2469 78.9777C28.8711 78.9777 30.1877 76.9485 30.1877 74.4455C30.1877 71.9424 28.8711 69.9133 27.2469 69.9133C25.6228 69.9133 24.3062 71.9424 24.3062 74.4455C24.3062 76.9485 25.6228 78.9777 27.2469 78.9777Z" fill="url(#paint6_linear_201_571)"/>
<path d="M80.8636 130.141L67.6869 131.204C63.8688 131.515 60.603 128.472 60.603 124.611C60.603 121.158 63.2351 118.295 66.6471 118.017L79.8238 116.953C83.6419 116.642 86.9077 119.686 86.9077 123.547C86.9077 126.999 84.2756 129.879 80.8636 130.141Z" fill="url(#paint7_linear_201_571)"/>
<g opacity="0.3">
<path opacity="0.3" d="M78.4265 126.443C74.6408 126.181 73.1461 123.04 68.2718 121.305C66.1922 120.569 64.1125 120.307 62.1628 120.34C61.1879 121.502 60.603 122.991 60.603 124.61C60.603 128.472 63.8688 131.499 67.6869 131.204L80.8636 130.141C84.2756 129.863 86.9077 126.999 86.9077 123.547C86.9077 123.154 86.8752 122.778 86.8102 122.402C83.2682 125.87 80.4737 126.59 78.4265 126.443Z" fill="url(#paint8_linear_201_571)"/>
</g>
<path d="M90.222 21.3521H63.7549C61.724 21.3521 60.083 23.0046 60.083 25.0498V38.1555C60.083 40.2007 61.724 41.8532 63.7549 41.8532H90.222C92.2529 41.8532 93.8939 40.2007 93.8939 38.1555V25.0498C93.8939 23.0046 92.2529 21.3521 90.222 21.3521Z" fill="url(#paint9_linear_201_571)"/>
<path d="M62.2602 35.3904L53.5028 41.3624C53.2916 41.5096 53.3891 41.8532 53.649 41.8532H66.2245L62.2602 35.3904Z" fill="url(#paint10_linear_201_571)"/>
<path d="M133.798 28.8292L124.39 22.3991V3.69773C124.39 1.65253 122.749 0 120.718 0H79.2874C77.2565 0 75.6155 1.65253 75.6155 3.69773V25.8841C75.6155 27.9293 77.2565 29.5819 79.2874 29.5819H115.519H120.702H133.554C133.96 29.5819 134.123 29.0583 133.798 28.8292Z" fill="url(#paint11_linear_201_571)"/>
<path d="M90.5468 16.4273C91.8479 16.4273 92.9027 15.3651 92.9027 14.0548C92.9027 12.7446 91.8479 11.6824 90.5468 11.6824C89.2457 11.6824 88.1909 12.7446 88.1909 14.0548C88.1909 15.3651 89.2457 16.4273 90.5468 16.4273Z" fill="white"/>
<path d="M98.6379 16.4273C99.939 16.4273 100.994 15.3651 100.994 14.0548C100.994 12.7446 99.939 11.6824 98.6379 11.6824C97.3367 11.6824 96.282 12.7446 96.282 14.0548C96.282 15.3651 97.3367 16.4273 98.6379 16.4273Z" fill="white"/>
<path d="M106.713 16.4273C108.014 16.4273 109.069 15.3651 109.069 14.0548C109.069 12.7446 108.014 11.6824 106.713 11.6824C105.412 11.6824 104.357 12.7446 104.357 14.0548C104.357 15.3651 105.412 16.4273 106.713 16.4273Z" fill="white"/>
</g>
<defs>
<linearGradient id="paint0_linear_201_571" x1="24.2658" y1="74.447" x2="40.5193" y2="74.447" gradientUnits="userSpaceOnUse">
<stop stop-color="#FFC444"/>
<stop offset="0.9964" stop-color="#F36F56"/>
</linearGradient>
<linearGradient id="paint1_linear_201_571" x1="24.2659" y1="74.447" x2="40.5194" y2="74.447" gradientUnits="userSpaceOnUse">
<stop stop-color="#FFC444"/>
<stop offset="0.9964" stop-color="#F36F56"/>
</linearGradient>
<linearGradient id="paint2_linear_201_571" x1="111.897" y1="23.6166" x2="18.5874" y2="98.2826" gradientUnits="userSpaceOnUse">
<stop stop-color="#444B8C"/>
<stop offset="0.9964" stop-color="#3E4177"/>
</linearGradient>
<linearGradient id="paint3_linear_201_571" x1="115.221" y1="68.6322" x2="98.9674" y2="68.6322" gradientUnits="userSpaceOnUse">
<stop stop-color="#FFC444"/>
<stop offset="0.9964" stop-color="#F36F56"/>
</linearGradient>
<linearGradient id="paint4_linear_201_571" x1="110.802" y1="55.4248" x2="94.1619" y2="68.7405" gradientUnits="userSpaceOnUse">
<stop stop-color="#444B8C"/>
<stop offset="0.9964" stop-color="#3E4177"/>
</linearGradient>
<linearGradient id="paint5_linear_201_571" x1="109.5" y1="57.5039" x2="95.4787" y2="68.7235" gradientUnits="userSpaceOnUse">
<stop stop-color="#444B8C"/>
<stop offset="0.9964" stop-color="#3E4177"/>
</linearGradient>
<linearGradient id="paint6_linear_201_571" x1="24.2989" y1="74.4471" x2="30.1929" y2="74.4471" gradientUnits="userSpaceOnUse">
<stop stop-color="#444B8C"/>
<stop offset="0.9964" stop-color="#3E4177"/>
</linearGradient>
<linearGradient id="paint7_linear_201_571" x1="60.5981" y1="124.088" x2="86.9018" y2="124.088" gradientUnits="userSpaceOnUse">
<stop stop-color="#444B8C"/>
<stop offset="0.9964" stop-color="#3E4177"/>
</linearGradient>
<linearGradient id="paint8_linear_201_571" x1="60.5981" y1="125.782" x2="86.9018" y2="125.782" gradientUnits="userSpaceOnUse">
<stop stop-color="#444B8C"/>
<stop offset="0.9964" stop-color="#3E4177"/>
</linearGradient>
<linearGradient id="paint9_linear_201_571" x1="74.0557" y1="24.4794" x2="96.4177" y2="78.0347" gradientUnits="userSpaceOnUse">
<stop stop-color="#FFC444"/>
<stop offset="0.9964" stop-color="#F36F56"/>
</linearGradient>
<linearGradient id="paint10_linear_201_571" x1="55.8296" y1="32.0897" x2="78.1916" y2="85.6451" gradientUnits="userSpaceOnUse">
<stop stop-color="#FFC444"/>
<stop offset="0.9964" stop-color="#F36F56"/>
</linearGradient>
<linearGradient id="paint11_linear_201_571" x1="112.721" y1="8.69504" x2="176.145" y2="-46.4942" gradientUnits="userSpaceOnUse">
<stop stop-color="#FF9085"/>
<stop offset="1" stop-color="#FB6FBB"/>
</linearGradient>
<clipPath id="clip0_201_571">
<rect width="135" height="135" fill="white"/>
</clipPath>
</defs>
</svg>
