<svg width="17" height="17" viewBox="0 0 17 17" fill="none" xmlns="http://www.w3.org/2000/svg">
<mask id="path-1-outside-1_421_4823" maskUnits="userSpaceOnUse" x="0.889648" y="1.83347" width="15" height="14" fill="black">
<rect fill="white" x="0.889648" y="1.83347" width="15" height="14"/>
<path d="M8.74023 2.83347C9.34987 2.83347 10.321 3.79809 10.3213 4.94089C10.3213 5.6618 10.0626 6.55972 9.90137 7.04929L13.1572 7.04929C13.8663 7.04943 14.4694 7.57407 14.5313 8.24363C14.5655 8.61916 14.4402 8.98025 14.1943 9.24949C14.4114 9.46714 14.5371 9.76286 14.5371 10.0796C14.537 10.5364 14.2756 10.9382 13.8867 11.1343C13.9673 11.2954 14.0098 11.4742 14.0098 11.6606C14.0097 12.1173 13.7481 12.5188 13.3594 12.7143C13.4795 12.9546 13.5147 13.2322 13.4541 13.5073C13.3359 14.0404 12.8335 14.4272 12.2598 14.4272L7.42285 14.4272C7.05663 14.4272 6.46675 14.308 6.02832 14.0825C5.84494 14.59 5.35771 14.9536 4.78809 14.9536L3.20703 14.9536C2.48037 14.9536 1.88965 14.3629 1.88965 13.6362L1.88965 9.42039C1.88981 8.69385 2.48047 8.10306 3.20703 8.103L5.8418 8.103C5.98723 8.103 6.10545 8.22125 6.10547 8.36668L6.10547 8.46726L6.16797 8.43503L7.68652 5.14695L7.68652 3.36082C7.68652 3.28089 7.72266 3.20484 7.78516 3.15476C7.80148 3.14211 8.19329 2.83351 8.74023 2.83347ZM3.20703 8.63035C2.77133 8.63038 2.41715 8.98472 2.41699 9.42039L2.41699 13.6362C2.41699 14.072 2.77124 14.4272 3.20703 14.4272L4.78809 14.4272C5.22387 14.4272 5.57813 14.072 5.57813 13.6362L5.57813 8.63035L3.20703 8.63035ZM8.74023 3.36082C8.51317 3.36084 8.3225 3.44281 8.21289 3.50339L8.21289 5.20457C8.21289 5.24251 8.20526 5.28111 8.18945 5.31589L6.6084 8.7407C6.58315 8.79487 6.5404 8.83932 6.48731 8.8657L6.10547 9.05613L6.10547 13.5102C6.40159 13.7292 7.03194 13.8999 7.42285 13.8999L12.2598 13.8999C12.5886 13.8999 12.8746 13.6871 12.9395 13.393C12.9916 13.157 12.9223 12.9275 12.749 12.7641C12.6743 12.6936 12.6468 12.5871 12.6787 12.4897C12.7114 12.3922 12.7977 12.3231 12.8994 12.311C13.2318 12.2725 13.4833 11.993 13.4834 11.6606C13.4834 11.4793 13.4092 11.309 13.2754 11.1831C13.2007 11.1126 13.1732 11.0061 13.2051 10.9087C13.2377 10.8112 13.3241 10.7421 13.4258 10.73C13.7588 10.6915 14.0097 10.412 14.0098 10.0796C14.0098 9.83415 13.8721 9.6109 13.6494 9.49753C13.5652 9.45383 13.5096 9.36818 13.5059 9.27292C13.5022 9.17773 13.5505 9.08814 13.6309 9.03855C13.8896 8.87889 14.0348 8.59281 14.0068 8.29246C13.97 7.89098 13.5966 7.57677 13.1572 7.57664L9.53125 7.57664C9.44484 7.57664 9.36301 7.53352 9.31348 7.46238C9.26457 7.39076 9.25465 7.29977 9.28516 7.21921C9.2899 7.20602 9.79395 5.86838 9.79395 4.94089C9.79366 4.07792 9.02897 3.36082 8.74023 3.36082Z"/>
</mask>
<path d="M8.74023 2.83347C9.34987 2.83347 10.321 3.79809 10.3213 4.94089C10.3213 5.6618 10.0626 6.55972 9.90137 7.04929L13.1572 7.04929C13.8663 7.04943 14.4694 7.57407 14.5313 8.24363C14.5655 8.61916 14.4402 8.98025 14.1943 9.24949C14.4114 9.46714 14.5371 9.76286 14.5371 10.0796C14.537 10.5364 14.2756 10.9382 13.8867 11.1343C13.9673 11.2954 14.0098 11.4742 14.0098 11.6606C14.0097 12.1173 13.7481 12.5188 13.3594 12.7143C13.4795 12.9546 13.5147 13.2322 13.4541 13.5073C13.3359 14.0404 12.8335 14.4272 12.2598 14.4272L7.42285 14.4272C7.05663 14.4272 6.46675 14.308 6.02832 14.0825C5.84494 14.59 5.35771 14.9536 4.78809 14.9536L3.20703 14.9536C2.48037 14.9536 1.88965 14.3629 1.88965 13.6362L1.88965 9.42039C1.88981 8.69385 2.48047 8.10306 3.20703 8.103L5.8418 8.103C5.98723 8.103 6.10545 8.22125 6.10547 8.36668L6.10547 8.46726L6.16797 8.43503L7.68652 5.14695L7.68652 3.36082C7.68652 3.28089 7.72266 3.20484 7.78516 3.15476C7.80148 3.14211 8.19329 2.83351 8.74023 2.83347ZM3.20703 8.63035C2.77133 8.63038 2.41715 8.98472 2.41699 9.42039L2.41699 13.6362C2.41699 14.072 2.77124 14.4272 3.20703 14.4272L4.78809 14.4272C5.22387 14.4272 5.57813 14.072 5.57813 13.6362L5.57813 8.63035L3.20703 8.63035ZM8.74023 3.36082C8.51317 3.36084 8.3225 3.44281 8.21289 3.50339L8.21289 5.20457C8.21289 5.24251 8.20526 5.28111 8.18945 5.31589L6.6084 8.7407C6.58315 8.79487 6.5404 8.83932 6.48731 8.8657L6.10547 9.05613L6.10547 13.5102C6.40159 13.7292 7.03194 13.8999 7.42285 13.8999L12.2598 13.8999C12.5886 13.8999 12.8746 13.6871 12.9395 13.393C12.9916 13.157 12.9223 12.9275 12.749 12.7641C12.6743 12.6936 12.6468 12.5871 12.6787 12.4897C12.7114 12.3922 12.7977 12.3231 12.8994 12.311C13.2318 12.2725 13.4833 11.993 13.4834 11.6606C13.4834 11.4793 13.4092 11.309 13.2754 11.1831C13.2007 11.1126 13.1732 11.0061 13.2051 10.9087C13.2377 10.8112 13.3241 10.7421 13.4258 10.73C13.7588 10.6915 14.0097 10.412 14.0098 10.0796C14.0098 9.83415 13.8721 9.6109 13.6494 9.49753C13.5652 9.45383 13.5096 9.36818 13.5059 9.27292C13.5022 9.17773 13.5505 9.08814 13.6309 9.03855C13.8896 8.87889 14.0348 8.59281 14.0068 8.29246C13.97 7.89098 13.5966 7.57677 13.1572 7.57664L9.53125 7.57664C9.44484 7.57664 9.36301 7.53352 9.31348 7.46238C9.26457 7.39076 9.25465 7.29977 9.28516 7.21921C9.2899 7.20602 9.79395 5.86838 9.79395 4.94089C9.79366 4.07792 9.02897 3.36082 8.74023 3.36082Z" fill="#15CF74"/>
<path d="M8.74023 2.83347L8.74023 2.33347L8.7402 2.33347L8.74023 2.83347ZM10.3213 4.94089L10.8213 4.94089L10.8213 4.94077L10.3213 4.94089ZM9.90137 7.04929L9.42647 6.89287L9.21025 7.54929L9.90137 7.54929L9.90137 7.04929ZM13.1572 7.04929L13.1573 6.54929L13.1572 6.54929L13.1572 7.04929ZM14.5313 8.24363L15.0292 8.19822L15.0291 8.19767L14.5313 8.24363ZM14.1943 9.24949L13.8251 8.91232L13.5033 9.26472L13.8403 9.6026L14.1943 9.24949ZM14.5371 10.0796L15.0371 10.0796L15.0371 10.0796L14.5371 10.0796ZM13.8867 11.1343L13.6617 10.6878L13.2167 10.912L13.4395 11.3578L13.8867 11.1343ZM14.0098 11.6606L14.5098 11.6607L14.5098 11.6606L14.0098 11.6606ZM13.3594 12.7143L13.1347 12.2677L12.6891 12.4918L12.9122 12.9379L13.3594 12.7143ZM13.4541 13.5073L13.9422 13.6155L13.9424 13.6149L13.4541 13.5073ZM12.2598 14.4272L12.2598 13.9272L12.2598 14.4272ZM7.42285 14.4272L7.42284 14.9272L7.42285 14.9272L7.42285 14.4272ZM6.02832 14.0825L6.25702 13.6379L5.75134 13.3778L5.55808 13.9126L6.02832 14.0825ZM4.78809 14.9536L4.78809 15.4536L4.78811 15.4536L4.78809 14.9536ZM3.20703 14.9536L3.20701 15.4536L3.20703 15.4536L3.20703 14.9536ZM1.88965 13.6362L1.38965 13.6362L1.88965 13.6362ZM1.88965 9.42039L1.38965 9.42028L1.38965 9.42039L1.88965 9.42039ZM3.20703 8.103L3.20703 7.603L3.207 7.603L3.20703 8.103ZM5.8418 8.103L5.8418 7.603L5.8418 8.103ZM6.10547 8.36668L6.60547 8.36668L6.60547 8.36661L6.10547 8.36668ZM6.10547 8.46726L5.60547 8.46726L5.60547 9.28763L6.33461 8.91166L6.10547 8.46726ZM6.16797 8.43503L6.39711 8.87944L6.54985 8.80068L6.6219 8.64467L6.16797 8.43503ZM7.68652 5.14695L8.14045 5.35659L8.18652 5.25683L8.18652 5.14695L7.68652 5.14695ZM7.68652 3.36082L8.18652 3.36082L7.68652 3.36082ZM7.78516 3.15476L7.47893 2.75942L7.47252 2.76456L7.78516 3.15476ZM3.20703 8.63035L3.20703 8.13035L3.207 8.13035L3.20703 8.63035ZM2.41699 9.42039L1.91699 9.42021L1.91699 9.42039L2.41699 9.42039ZM2.41699 13.6362L1.91699 13.6362L2.41699 13.6362ZM3.20703 14.4272L3.207 14.9272L3.20703 14.9272L3.20703 14.4272ZM4.78809 14.4272L4.78809 14.9272L4.78813 14.9272L4.78809 14.4272ZM5.57813 13.6362L5.07813 13.6362L5.57813 13.6362ZM5.57813 8.63035L6.07813 8.63035L6.07813 8.13035L5.57813 8.13035L5.57813 8.63035ZM8.74023 3.36082L8.74023 2.86082L8.74018 2.86082L8.74023 3.36082ZM8.21289 3.50339L7.97102 3.06579L7.71289 3.20846L7.71289 3.50339L8.21289 3.50339ZM8.21289 5.20457L7.71289 5.20457L8.21289 5.20457ZM8.18945 5.31589L8.64342 5.52547L8.64464 5.5228L8.18945 5.31589ZM6.6084 8.7407L7.06159 8.95193L7.06236 8.95027L6.6084 8.7407ZM6.48731 8.8657L6.26487 8.4179L6.26416 8.41826L6.48731 8.8657ZM6.10547 9.05613L5.88232 8.60869L5.60547 8.74676L5.60547 9.05613L6.10547 9.05613ZM6.10547 13.5102L5.60547 13.5102L5.60547 13.7623L5.80817 13.9122L6.10547 13.5102ZM7.42285 13.8999L7.42283 14.3999L7.42285 14.3999L7.42285 13.8999ZM12.2598 13.8999L12.2598 13.3999L12.2598 13.8999ZM12.9395 13.393L12.4512 13.2852L12.4512 13.2854L12.9395 13.393ZM12.749 12.7641L12.4058 13.1277L12.4061 13.128L12.749 12.7641ZM12.6787 12.4897L12.2046 12.3309L12.2035 12.3341L12.6787 12.4897ZM12.8994 12.311L12.8419 11.8143L12.8402 11.8145L12.8994 12.311ZM13.4834 11.6606L13.9834 11.6608L13.9834 11.6606L13.4834 11.6606ZM13.2754 11.1831L12.9322 11.5467L12.9327 11.5472L13.2754 11.1831ZM13.2051 10.9087L12.731 10.7499L12.73 10.7529L13.2051 10.9087ZM13.4258 10.73L13.3684 10.2333L13.3666 10.2335L13.4258 10.73ZM14.0098 10.0796L14.5098 10.0796L14.5098 10.0796L14.0098 10.0796ZM13.6494 9.49753L13.4191 9.94136L13.4226 9.94311L13.6494 9.49753ZM13.5059 9.27292L13.0062 9.29221L13.0063 9.29276L13.5059 9.27292ZM13.6309 9.03855L13.3683 8.61306L13.6309 9.03855ZM14.0068 8.29246L13.5089 8.33818L13.509 8.33872L14.0068 8.29246ZM13.1572 7.57664L13.1574 7.07664L13.1572 7.07664L13.1572 7.57664ZM9.53125 7.57664L9.53125 8.07664L9.53125 7.57664ZM9.31348 7.46238L8.90055 7.74436L8.90313 7.74806L9.31348 7.46238ZM9.28516 7.21921L9.75282 7.39631L9.75567 7.38839L9.28516 7.21921ZM9.79395 4.94089L10.2939 4.94089L10.2939 4.94073L9.79395 4.94089ZM8.74023 2.83347L8.74023 3.33347C8.76879 3.33347 8.85279 3.3485 8.98325 3.42841C9.1076 3.50459 9.24562 3.62279 9.37468 3.77814C9.63542 4.09199 9.82119 4.50943 9.82129 4.94101L10.3213 4.94089L10.8213 4.94077C10.8211 4.22955 10.5212 3.59328 10.1439 3.13912C9.9539 2.91046 9.73481 2.71609 9.5056 2.57569C9.2825 2.43902 9.01649 2.33347 8.74023 2.33347L8.74023 2.83347ZM10.3213 4.94089L9.82129 4.94089C9.82129 5.57453 9.58698 6.40555 9.42647 6.89287L9.90137 7.04929L10.3763 7.20572C10.5383 6.71389 10.8213 5.74906 10.8213 4.94089L10.3213 4.94089ZM9.90137 7.04929L9.90137 7.54929L13.1572 7.54929L13.1572 7.04929L13.1572 6.54929L9.90137 6.54929L9.90137 7.04929ZM13.1572 7.04929L13.1571 7.54929C13.6297 7.54938 13.9973 7.89834 14.0334 8.28959L14.5313 8.24363L15.0291 8.19767C14.9416 7.24979 14.1029 6.54947 13.1573 6.54929L13.1572 7.04929ZM14.5313 8.24363L14.0333 8.28903C14.0547 8.52354 13.977 8.74605 13.8251 8.91232L14.1943 9.24949L14.5635 9.58666C14.9034 9.21446 15.0763 8.71479 15.0292 8.19822L14.5313 8.24363ZM14.1943 9.24949L13.8403 9.6026C13.9651 9.72766 14.0371 9.89686 14.0371 10.0796L14.5371 10.0796L15.0371 10.0796C15.0371 9.62886 14.8578 9.20662 14.5483 8.89638L14.1943 9.24949ZM14.5371 10.0796L14.0371 10.0795C14.0371 10.3418 13.8871 10.5741 13.6617 10.6878L13.8867 11.1343L14.1118 11.5807C14.6641 11.3024 15.037 10.7309 15.0371 10.0796L14.5371 10.0796ZM13.8867 11.1343L13.4395 11.3578C13.485 11.4489 13.5098 11.551 13.5098 11.6606L14.0098 11.6606L14.5098 11.6606C14.5098 11.3973 14.4495 11.142 14.334 10.9108L13.8867 11.1343ZM14.0098 11.6606L13.5098 11.6605C13.5097 11.9226 13.3598 12.1544 13.1347 12.2677L13.3594 12.7143L13.5841 13.161C14.1364 12.8832 14.5096 12.312 14.5098 11.6607L14.0098 11.6606ZM13.3594 12.7143L12.9122 12.9379C12.9803 13.0741 13.0022 13.2346 12.9658 13.3997L13.4541 13.5073L13.9424 13.6149C14.0272 13.2298 13.9788 12.8351 13.8066 12.4907L13.3594 12.7143ZM13.4541 13.5073L12.966 13.3991C12.9022 13.6868 12.6164 13.9272 12.2598 13.9272L12.2598 14.4272L12.2598 14.9272C13.0506 14.9272 13.7696 14.394 13.9422 13.6155L13.4541 13.5073ZM12.2598 14.4272L12.2598 13.9272L7.42285 13.9272L7.42285 14.4272L7.42285 14.9272L12.2598 14.9272L12.2598 14.4272ZM7.42285 14.4272L7.42287 13.9272C7.1307 13.9272 6.61998 13.8245 6.25702 13.6379L6.02832 14.0825L5.79963 14.5271C6.31352 14.7914 6.98256 14.9272 7.42284 14.9272L7.42285 14.4272ZM6.02832 14.0825L5.55808 13.9126C5.44391 14.2285 5.14018 14.4536 4.78806 14.4536L4.78809 14.9536L4.78811 15.4536C5.57524 15.4535 6.24597 14.9514 6.49856 14.2524L6.02832 14.0825ZM4.78809 14.9536L4.78809 14.4536L3.20703 14.4536L3.20703 14.9536L3.20703 15.4536L4.78809 15.4536L4.78809 14.9536ZM3.20703 14.9536L3.20705 14.4536C2.75649 14.4536 2.38965 14.0867 2.38965 13.6362L1.88965 13.6362L1.38965 13.6362C1.38965 14.6391 2.20425 15.4536 3.20701 15.4536L3.20703 14.9536ZM1.88965 13.6362L2.38965 13.6362L2.38965 9.42039L1.88965 9.42039L1.38965 9.42039L1.38965 13.6362L1.88965 13.6362ZM1.88965 9.42039L2.38965 9.42049C2.38975 8.96994 2.75669 8.60304 3.20707 8.603L3.20703 8.103L3.207 7.603C2.20424 7.60308 1.38986 8.41776 1.38965 9.42028L1.88965 9.42039ZM3.20703 8.103L3.20703 8.603L5.8418 8.603L5.8418 8.103L5.8418 7.603L3.20703 7.603L3.20703 8.103ZM5.8418 8.103L5.8418 8.603C5.71102 8.603 5.60549 8.49734 5.60547 8.36674L6.10547 8.36668L6.60547 8.36661C6.60541 7.94515 6.26344 7.603 5.8418 7.603L5.8418 8.103ZM6.10547 8.36668L5.60547 8.36668L5.60547 8.46726L6.10547 8.46726L6.60547 8.46726L6.60547 8.36668L6.10547 8.36668ZM6.10547 8.46726L6.33461 8.91166L6.39711 8.87944L6.16797 8.43503L5.93883 7.99063L5.87633 8.02286L6.10547 8.46726ZM6.16797 8.43503L6.6219 8.64467L8.14045 5.35659L7.68652 5.14695L7.2326 4.93731L5.71404 8.2254L6.16797 8.43503ZM7.68652 5.14695L8.18652 5.14695L8.18652 3.36082L7.68652 3.36082L7.18652 3.36082L7.18652 5.14695L7.68652 5.14695ZM7.68652 3.36082L8.18652 3.36082C8.18652 3.43118 8.15488 3.49923 8.0978 3.54496L7.78516 3.15476L7.47252 2.76456C7.29044 2.91044 7.18652 3.1306 7.18652 3.36082L7.68652 3.36082ZM7.78516 3.15476L8.09134 3.55005C8.09266 3.54903 8.09513 3.54705 8.10142 3.54251C8.10828 3.53754 8.11979 3.52947 8.13553 3.51931C8.16728 3.49882 8.21503 3.4706 8.27553 3.44231C8.39857 3.38477 8.56007 3.33349 8.74027 3.33347L8.74023 2.83347L8.7402 2.33347C8.37346 2.3335 8.06558 2.43654 7.8519 2.53647C7.74404 2.58691 7.65659 2.63822 7.59319 2.67915C7.56136 2.6997 7.53531 2.71781 7.51548 2.73215C7.50555 2.73933 7.49724 2.74552 7.49061 2.75054C7.48401 2.75554 7.47879 2.75962 7.47897 2.75947L7.78516 3.15476ZM3.20703 8.63035L3.207 8.13035C2.49504 8.13039 1.91725 8.70868 1.91699 9.42021L2.41699 9.42039L2.91699 9.42057C2.91705 9.26075 3.04763 9.13036 3.20706 9.13035L3.20703 8.63035ZM2.41699 9.42039L1.91699 9.42039L1.91699 13.6362L2.41699 13.6362L2.91699 13.6362L2.91699 9.42039L2.41699 9.42039ZM2.41699 13.6362L1.91699 13.6362C1.91699 14.3474 2.49432 14.9272 3.207 14.9272L3.20703 14.4272L3.20707 13.9272C3.04816 13.9272 2.91699 13.7966 2.91699 13.6362L2.41699 13.6362ZM3.20703 14.4272L3.20703 14.9272L4.78809 14.9272L4.78809 14.4272L4.78809 13.9272L3.20703 13.9272L3.20703 14.4272ZM4.78809 14.4272L4.78813 14.9272C5.50079 14.9272 6.07813 14.3474 6.07813 13.6362L5.57813 13.6362L5.07813 13.6362C5.07813 13.7966 4.94696 13.9272 4.78804 13.9272L4.78809 14.4272ZM5.57813 13.6362L6.07813 13.6362L6.07813 8.63035L5.57813 8.63035L5.07813 8.63035L5.07813 13.6362L5.57813 13.6362ZM5.57813 8.63035L5.57813 8.13035L3.20703 8.13035L3.20703 8.63035L3.20703 9.13035L5.57813 9.13035L5.57813 8.63035ZM8.74023 3.36082L8.74018 2.86082C8.39714 2.86086 8.12121 2.98277 7.97102 3.06579L8.21289 3.50339L8.45477 3.941C8.52379 3.90285 8.62921 3.86083 8.74029 3.86082L8.74023 3.36082ZM8.21289 3.50339L7.71289 3.50339L7.71289 5.20457L8.21289 5.20457L8.71289 5.20457L8.71289 3.50339L8.21289 3.50339ZM8.21289 5.20457L7.71289 5.20457C7.71289 5.17741 7.71805 5.14467 7.73427 5.10899L8.18945 5.31589L8.64464 5.5228C8.69247 5.41756 8.71289 5.30761 8.71289 5.20457L8.21289 5.20457ZM8.18945 5.31589L7.73549 5.10632L6.15444 8.53113L6.6084 8.7407L7.06236 8.95027L8.64341 5.52546L8.18945 5.31589ZM6.6084 8.7407L6.15521 8.52947C6.17652 8.48375 6.21369 8.44332 6.26487 8.4179L6.48731 8.8657L6.70974 9.3135C6.86711 9.23533 6.98978 9.10599 7.06159 8.95193L6.6084 8.7407ZM6.48731 8.8657L6.26416 8.41826L5.88232 8.60869L6.10547 9.05613L6.32862 9.50357L6.71045 9.31314L6.48731 8.8657ZM6.10547 9.05613L5.60547 9.05613L5.60547 13.5102L6.10547 13.5102L6.60547 13.5102L6.60547 9.05613L6.10547 9.05613ZM6.10547 13.5102L5.80817 13.9122C6.02586 14.0732 6.32311 14.1908 6.59039 14.2677C6.86336 14.3462 7.1669 14.3999 7.42283 14.3999L7.42285 13.8999L7.42288 13.3999C7.28789 13.3999 7.08081 13.3682 6.86684 13.3067C6.64719 13.2435 6.48121 13.1662 6.40277 13.1082L6.10547 13.5102ZM7.42285 13.8999L7.42285 14.3999L12.2598 14.3999L12.2598 13.8999L12.2598 13.3999L7.42285 13.3999L7.42285 13.8999ZM12.2598 13.8999L12.2598 14.3999C12.7913 14.3999 13.3058 14.0537 13.4277 13.5007L12.9395 13.393L12.4512 13.2854C12.4471 13.3038 12.4339 13.3304 12.3999 13.3558C12.3656 13.3813 12.3167 13.3999 12.2598 13.3999L12.2598 13.8999ZM12.9395 13.393L13.4277 13.5009C13.517 13.0967 13.3961 12.6869 13.092 12.4003L12.749 12.7641L12.4061 13.128C12.4485 13.168 12.4662 13.2173 12.4512 13.2852L12.9395 13.393ZM12.749 12.7641L13.0922 12.4005C13.157 12.4616 13.1829 12.5569 13.1539 12.6453L12.6787 12.4897L12.2035 12.3341C12.1108 12.6173 12.1917 12.9256 12.4058 13.1277L12.749 12.7641ZM12.6787 12.4897L13.1528 12.6485C13.1231 12.7374 13.0456 12.7971 12.9586 12.8075L12.8994 12.311L12.8402 11.8145C12.5498 11.8492 12.2997 12.047 12.2046 12.3309L12.6787 12.4897ZM12.8994 12.311L12.9569 12.8077C13.5379 12.7404 13.9831 12.2505 13.9834 11.6608L13.4834 11.6606L12.9834 11.6604C12.9834 11.7354 12.9257 11.8046 12.8419 11.8143L12.8994 12.311ZM13.4834 11.6606L13.9834 11.6606C13.9834 11.3394 13.8508 11.038 13.6181 10.819L13.2754 11.1831L12.9327 11.5472C12.9677 11.5801 12.9834 11.6193 12.9834 11.6606L13.4834 11.6606ZM13.2754 11.1831L13.6186 10.8195C13.6832 10.8805 13.7093 10.9758 13.6802 11.0644L13.2051 10.9087L12.73 10.7529C12.637 11.0364 12.7181 11.3447 12.9322 11.5467L13.2754 11.1831ZM13.2051 10.9087L13.6792 11.0675C13.6494 11.1564 13.572 11.2161 13.485 11.2264L13.4258 10.73L13.3666 10.2335C13.0762 10.2681 12.8261 10.466 12.731 10.7499L13.2051 10.9087ZM13.4258 10.73L13.4832 11.2267C14.0651 11.1594 14.5097 10.6693 14.5098 10.0796L14.0098 10.0796L13.5098 10.0795C13.5098 10.1547 13.4524 10.2236 13.3684 10.2333L13.4258 10.73ZM14.0098 10.0796L14.5098 10.0796C14.5098 9.643 14.2638 9.24926 13.8763 9.05196L13.6494 9.49753L13.4226 9.94311C13.4804 9.97255 13.5098 10.0253 13.5098 10.0796L14.0098 10.0796ZM13.6494 9.49753L13.8797 9.05373C13.9517 9.09108 14.002 9.16536 14.0055 9.25309L13.5059 9.27292L13.0063 9.29276C13.0173 9.571 13.1787 9.81658 13.4191 9.94134L13.6494 9.49753ZM13.5059 9.27292L14.0055 9.25364C14.0088 9.33984 13.9655 9.4196 13.8935 9.46404L13.6309 9.03855L13.3683 8.61306C13.1356 8.75667 12.9956 9.01562 13.0062 9.29221L13.5059 9.27292ZM13.6309 9.03855L13.8935 9.46404C14.3105 9.20665 14.5505 8.73959 14.5047 8.24619L14.0068 8.29246L13.509 8.33872C13.519 8.44603 13.4686 8.55112 13.3683 8.61306L13.6309 9.03855ZM14.0068 8.29246L14.5047 8.24673C14.441 7.55301 13.8185 7.07683 13.1574 7.07664L13.1572 7.57664L13.1571 8.07664C13.3748 8.0767 13.4989 8.22895 13.5089 8.33818L14.0068 8.29246ZM13.1572 7.57664L13.1572 7.07664L9.53125 7.07664L9.53125 7.57664L9.53125 8.07664L13.1572 8.07664L13.1572 7.57664ZM9.53125 7.57664L9.53125 7.07664C9.6102 7.07664 9.68088 7.11501 9.72383 7.1767L9.31348 7.46238L8.90313 7.74806C9.04513 7.95203 9.27948 8.07664 9.53125 8.07664L9.53125 7.57664ZM9.31348 7.46238L9.72638 7.18041C9.77155 7.24655 9.77886 7.32736 9.75275 7.39629L9.28516 7.21921L8.81756 7.04214C8.73045 7.27218 8.75759 7.53497 8.90057 7.74435L9.31348 7.46238ZM9.28516 7.21921L9.75567 7.38839C9.75489 7.39055 9.79036 7.29601 9.84032 7.14822C9.89036 7.00019 9.95659 6.79414 10.0228 6.55778C10.1519 6.09687 10.2939 5.47609 10.2939 4.94089L9.79395 4.94089L9.29395 4.94089C9.29395 5.33318 9.18397 5.84497 9.05986 6.28806C8.93882 6.72018 8.81765 7.04168 8.81465 7.05004L9.28516 7.21921ZM9.79395 4.94089L10.2939 4.94073C10.2938 4.36437 10.0414 3.86318 9.7673 3.51691C9.62844 3.34149 9.47288 3.19132 9.31846 3.08034C9.18806 2.98661 8.97705 2.86082 8.74023 2.86082L8.74023 3.36082L8.74023 3.86082C8.64779 3.86082 8.64064 3.82466 8.73483 3.89236C8.80501 3.9428 8.89478 4.02584 8.98322 4.13757C9.16372 4.3656 9.29385 4.65444 9.29395 4.94106L9.79395 4.94089Z" fill="#15CF74" mask="url(#path-1-outside-1_421_4823)"/>
</svg>
