<svg width="22" height="20" viewBox="0 0 22 20" fill="none" xmlns="http://www.w3.org/2000/svg">
<path fill-rule="evenodd" clip-rule="evenodd" d="M11.2161 9.16627C10.4857 9.16627 9.89125 8.60544 9.89125 7.91627C9.89125 7.2271 10.4857 6.66627 11.2161 6.66627C11.9466 6.66627 12.541 7.2271 12.541 7.91627C12.541 8.60544 11.9466 9.16627 11.2161 9.16627ZM11.2161 4.9996C9.51145 4.9996 8.12476 6.30794 8.12476 7.91627C8.12476 9.5246 9.51145 10.8329 11.2161 10.8329C12.9208 10.8329 14.3075 9.5246 14.3075 7.91627C14.3075 6.30794 12.9208 4.9996 11.2161 4.9996ZM11.2161 16.3717C9.73668 15.0517 5.91664 11.3459 5.91664 8.26835C5.91664 5.54752 8.29346 3.33335 11.2161 3.33335C14.1388 3.33335 16.5156 5.54752 16.5156 8.26835C16.5156 11.3459 12.6956 15.0517 11.2161 16.3717ZM11.2161 1.66669C7.32012 1.66669 4.15015 4.62752 4.15015 8.26835C4.15015 12.8309 10.3762 17.9175 10.6411 18.1317C10.8072 18.2659 11.0112 18.3334 11.2161 18.3334C11.421 18.3334 11.6251 18.2659 11.7911 18.1317C12.0561 17.9175 18.2821 12.8309 18.2821 8.26835C18.2821 4.62752 15.1121 1.66669 11.2161 1.66669Z" fill="#2E3A59"/>
</svg>
