<svg width="202" height="60" viewBox="0 0 202 60" fill="none" xmlns="http://www.w3.org/2000/svg">
<path d="M194.519 0H7.48148C3.34957 0 0 3.35786 0 7.5V52.5C0 56.6421 3.34957 60 7.48148 60H194.519C198.65 60 202 56.6421 202 52.5V7.5C202 3.35786 198.65 0 194.519 0Z" fill="black"/>
<path d="M194.519 1.2C196.185 1.2 197.784 1.86375 198.962 3.04523C200.141 4.22671 200.803 5.82914 200.803 7.5V52.5C200.803 54.1709 200.141 55.7733 198.962 56.9548C197.784 58.1363 196.185 58.8 194.519 58.8H7.48148C5.81474 58.8 4.21627 58.1363 3.03771 56.9548C1.85915 55.7733 1.19704 54.1709 1.19704 52.5V7.5C1.19704 5.82914 1.85915 4.22671 3.03771 3.04523C4.21627 1.86375 5.81474 1.2 7.48148 1.2H194.519ZM194.519 0H7.48148C5.49727 0 3.59433 0.790176 2.19128 2.1967C0.788225 3.60322 0 5.51088 0 7.5V52.5C0 54.4891 0.788225 56.3968 2.19128 57.8033C3.59433 59.2098 5.49727 60 7.48148 60H194.519C196.503 60 198.406 59.2098 199.809 57.8033C201.212 56.3968 202 54.4891 202 52.5V7.5C202 5.51088 201.212 3.60322 199.809 2.1967C198.406 0.790176 196.503 0 194.519 0Z" fill="#A6A6A6"/>
<path d="M101.958 32.6249C100.701 32.6309 99.4746 33.0098 98.4327 33.7139C97.3909 34.418 96.5805 35.4157 96.1037 36.581C95.627 37.7464 95.5053 39.0273 95.7541 40.2619C96.0028 41.4966 96.6108 42.6297 97.5014 43.5182C98.3919 44.4068 99.5251 45.011 100.758 45.2545C101.991 45.4981 103.268 45.3701 104.428 44.8867C105.588 44.4034 106.58 43.5863 107.277 42.5386C107.975 41.4909 108.347 40.2595 108.347 38.9999C108.359 38.1568 108.202 37.3199 107.885 36.5389C107.567 35.758 107.097 35.049 106.501 34.4542C105.905 33.8594 105.195 33.3909 104.415 33.0766C103.634 32.7624 102.799 32.6087 101.958 32.6249ZM101.958 42.8699C101.185 42.9241 100.414 42.744 99.7445 42.353C99.0752 41.962 98.5388 41.3783 98.2049 40.6776C97.871 39.9769 97.755 39.1918 97.8722 38.4242C97.9893 37.6566 98.3341 36.942 98.8617 36.3735C99.3893 35.8049 100.075 35.4086 100.831 35.2361C101.586 35.0636 102.375 35.1228 103.097 35.4061C103.818 35.6893 104.437 36.1836 104.875 36.8245C105.312 37.4654 105.547 38.2234 105.549 38.9999C105.573 39.492 105.498 39.9838 105.33 40.4466C105.161 40.9093 104.902 41.3335 104.567 41.6942C104.233 42.0549 103.829 42.3447 103.381 42.5467C102.933 42.7486 102.449 42.8585 101.958 42.8699ZM88.027 32.6249C86.7699 32.6279 85.5419 33.0043 84.4981 33.7066C83.4543 34.4089 82.6416 35.4056 82.1625 36.5707C81.6835 37.7358 81.5597 39.0172 81.8068 40.2528C82.0538 41.4884 82.6607 42.623 83.5506 43.513C84.4406 44.4031 85.5737 45.0087 86.8069 45.2535C88.04 45.4983 89.3179 45.3712 90.479 44.8882C91.6402 44.4053 92.6325 43.5882 93.3306 42.5401C94.0287 41.4921 94.4012 40.2601 94.4013 38.9999C94.4135 38.1568 94.2563 37.3199 93.9392 36.5389C93.622 35.758 93.1514 35.049 92.5552 34.4542C91.9591 33.8594 91.2496 33.3909 90.4691 33.0766C89.6886 32.7624 88.853 32.6087 88.0121 32.6249H88.027ZM88.027 42.8699C87.2539 42.9272 86.4816 42.7497 85.8105 42.3608C85.1394 41.9718 84.6006 41.3893 84.2644 40.6891C83.9281 39.9889 83.81 39.2034 83.9252 38.4349C84.0405 37.6665 84.3839 36.9506 84.9107 36.3805C85.4375 35.8104 86.1233 35.4125 86.8789 35.2386C87.6344 35.0647 88.4247 35.1228 89.1468 35.4055C89.8689 35.6881 90.4894 36.1821 90.9275 36.8232C91.3656 37.4643 91.6011 38.2228 91.6032 38.9999C91.6273 39.492 91.5529 39.9838 91.3843 40.4466C91.2158 40.9093 90.9565 41.3335 90.6218 41.6942C90.2871 42.0549 89.8838 42.3447 89.4356 42.5467C88.9874 42.7486 88.5033 42.8585 88.0121 42.8699H88.027ZM71.4331 34.5899V37.2899H77.8971C77.7958 38.5616 77.2684 39.7616 76.4008 40.6949C75.7541 41.3553 74.9767 41.8726 74.1185 42.2136C73.2604 42.5546 72.3405 42.7118 71.4181 42.6749C69.5133 42.6749 67.6865 41.9164 66.3395 40.5661C64.9926 39.2158 64.2359 37.3845 64.2359 35.4749C64.2359 33.5654 64.9926 31.734 66.3395 30.3838C67.6865 29.0335 69.5133 28.2749 71.4181 28.2749C73.2403 28.2451 74.9999 28.941 76.311 30.2099L78.2113 28.3049C77.3262 27.4065 76.2703 26.6953 75.1059 26.2134C73.9416 25.7316 72.6927 25.489 71.4331 25.4999C70.1029 25.448 68.7759 25.6659 67.5317 26.1404C66.2875 26.6149 65.1516 27.3363 64.1922 28.2614C63.2327 29.1866 62.4694 30.2963 61.9481 31.5242C61.4267 32.7521 61.158 34.0729 61.158 35.4074C61.158 36.7419 61.4267 38.0627 61.9481 39.2906C62.4694 40.5185 63.2327 41.6283 64.1922 42.5534C65.1516 43.4785 66.2875 44.2 67.5317 44.6745C68.7759 45.149 70.1029 45.3668 71.4331 45.3149C72.7139 45.3729 73.9922 45.1553 75.182 44.6766C76.3718 44.198 77.4456 43.4694 78.331 42.5399C79.8987 40.8133 80.7356 38.5436 80.6653 36.2099C80.6701 35.6414 80.62 35.0738 80.5156 34.5149L71.4331 34.5899ZM139.23 36.6899C138.84 35.539 138.11 34.5341 137.138 33.8082C136.165 33.0823 134.996 32.6697 133.784 32.6249C132.965 32.6233 132.155 32.79 131.404 33.1147C130.652 33.4394 129.975 33.9152 129.414 34.5127C128.853 35.1102 128.42 35.8167 128.142 36.5885C127.864 37.3603 127.747 38.181 127.799 38.9999C127.78 39.8383 127.931 40.6717 128.241 41.4505C128.552 42.2292 129.015 42.9372 129.605 43.5323C130.194 44.1273 130.897 44.5972 131.672 44.9138C132.446 45.2304 133.277 45.3872 134.113 45.3749C135.16 45.3806 136.191 45.1259 137.116 44.6338C138.04 44.1417 138.828 43.4274 139.41 42.5549L137.24 41.0549C136.916 41.5961 136.458 42.0437 135.91 42.354C135.362 42.6643 134.742 42.8265 134.113 42.8249C133.465 42.8497 132.824 42.6784 132.275 42.3333C131.725 41.9882 131.291 41.4853 131.031 40.8899L139.545 37.3649L139.23 36.6899ZM130.552 38.8199C130.521 38.356 130.584 37.8906 130.735 37.4511C130.886 37.0116 131.124 36.6068 131.433 36.2603C131.742 35.9139 132.118 35.6328 132.537 35.4336C132.956 35.2343 133.41 35.1209 133.874 35.0999C134.356 35.0681 134.838 35.179 135.258 35.419C135.678 35.659 136.019 36.0175 136.238 36.4499L130.552 38.8199ZM123.639 44.9999H126.437V26.2499H123.639V44.9999ZM119.06 34.0499H118.955C118.534 33.5773 118.017 33.1993 117.44 32.9408C116.862 32.6823 116.236 32.5491 115.604 32.5499C113.969 32.6294 112.427 33.3366 111.297 34.5248C110.168 35.713 109.538 37.2913 109.538 38.9324C109.538 40.5736 110.168 42.1518 111.297 43.3401C112.427 44.5283 113.969 45.2354 115.604 45.3149C116.238 45.3256 116.867 45.1969 117.446 44.9377C118.025 44.6785 118.54 44.2953 118.955 43.8149H119.045V44.7299C119.045 47.1749 117.743 48.4799 115.649 48.4799C114.951 48.4636 114.274 48.2394 113.704 47.8361C113.133 47.4327 112.696 46.8684 112.447 46.2149L110.008 47.2349C110.467 48.3545 111.249 49.311 112.254 49.9818C113.259 50.6526 114.441 51.0072 115.649 50.9999C118.926 50.9999 121.634 49.0649 121.634 44.3549V32.9999H119.06V34.0499ZM115.858 42.8699C114.893 42.7847 113.995 42.34 113.34 41.6237C112.686 40.9073 112.323 39.9713 112.323 38.9999C112.323 38.0286 112.686 37.0925 113.34 36.3762C113.995 35.6598 114.893 35.2152 115.858 35.1299C116.337 35.1545 116.805 35.2749 117.237 35.484C117.668 35.693 118.054 35.9865 118.37 36.3472C118.687 36.7078 118.928 37.1283 119.08 37.5839C119.232 38.0395 119.291 38.521 119.255 38.9999C119.296 39.481 119.239 39.9653 119.087 40.4237C118.936 40.882 118.694 41.3049 118.375 41.6666C118.056 42.0284 117.667 42.3215 117.232 42.5284C116.797 42.7352 116.324 42.8514 115.843 42.8699H115.858ZM152.338 26.2499H145.649V44.9999H148.447V37.8899H152.353C153.15 37.9474 153.951 37.8395 154.705 37.573C155.459 37.3066 156.15 36.8872 156.735 36.3412C157.321 35.7951 157.787 35.134 158.107 34.3992C158.426 33.6643 158.59 32.8714 158.59 32.0699C158.59 31.2684 158.426 30.4755 158.107 29.7407C157.787 29.0058 157.321 28.3447 156.735 27.7987C156.15 27.2526 155.459 26.8333 154.705 26.5668C153.951 26.3004 153.15 26.1925 152.353 26.2499H152.338ZM152.338 35.2499H148.433V28.8599H152.398C153.249 28.8599 154.065 29.1989 154.667 29.8023C155.269 30.4057 155.607 31.2241 155.607 32.0774C155.607 32.9308 155.269 33.7492 154.667 34.3525C154.065 34.9559 153.249 35.2949 152.398 35.2949L152.338 35.2499ZM169.59 32.5499C168.571 32.4889 167.557 32.7275 166.672 33.2365C165.787 33.7455 165.069 34.5027 164.607 35.4149L167.091 36.4499C167.336 35.9975 167.707 35.6261 168.159 35.3811C168.61 35.1361 169.123 35.028 169.635 35.0699C169.99 35.0283 170.35 35.0581 170.694 35.1574C171.037 35.2568 171.358 35.4237 171.636 35.6485C171.915 35.8733 172.146 36.1515 172.316 36.4668C172.486 36.7821 172.592 37.1282 172.628 37.4849V37.6799C171.729 37.2029 170.727 36.9556 169.71 36.9599C167.031 36.9599 164.323 38.4599 164.323 41.1749C164.35 41.7538 164.492 42.3216 164.741 42.8445C164.99 43.3675 165.341 43.8351 165.773 44.2196C166.206 44.6042 166.711 44.8979 167.258 45.0835C167.806 45.2691 168.385 45.3426 168.962 45.2999C169.666 45.3507 170.372 45.2103 171.003 44.8936C171.635 44.5769 172.171 44.0955 172.553 43.4999H172.643V44.9999H175.336V37.7849C175.336 34.4999 172.852 32.5949 169.665 32.5949L169.59 32.5499ZM169.246 42.8249C168.333 42.8249 167.061 42.3599 167.061 41.2349C167.061 39.7349 168.647 39.2399 170.054 39.2399C170.943 39.2179 171.821 39.4355 172.598 39.8699C172.504 40.682 172.121 41.4329 171.519 41.9842C170.917 42.5354 170.136 42.85 169.321 42.8699L169.246 42.8249ZM185.152 32.9999L181.95 41.1299H181.86L178.538 32.9999H175.545L180.528 44.3699L177.685 50.6849H180.603L188.264 32.9999H185.152ZM159.999 44.9999H162.797V26.2499H159.999V44.9999Z" fill="white"/>
<path d="M63.0093 21.4051H61.9021V18.4051H62.8447C63.2746 17.9484 63.5992 17.4028 63.7957 16.8067C63.9922 16.2106 64.0557 15.5785 63.9819 14.9551V10.5001H69.9671V18.3901H70.9696V21.3901H69.8624V19.5001H63.0093V21.4051ZM65.0892 15.0001C65.159 16.21 64.8616 17.4128 64.2363 18.4501H68.7252V11.6101H65.0892V15.0001ZM79.9175 18.3301C79.0427 19.2021 77.8593 19.6916 76.6256 19.6916C75.392 19.6916 74.2085 19.2021 73.3338 18.3301C72.4835 17.4278 72.0099 16.2337 72.0099 14.9926C72.0099 13.7514 72.4835 12.5573 73.3338 11.6551C73.7649 11.2197 74.2778 10.8741 74.8427 10.6383C75.4077 10.4025 76.0136 10.2811 76.6256 10.2811C77.2376 10.2811 77.8435 10.4025 78.4085 10.6383C78.9735 10.8741 79.4863 11.2197 79.9175 11.6551C80.7711 12.5555 81.247 13.7503 81.247 14.9926C81.247 16.2348 80.7711 17.4296 79.9175 18.3301ZM74.1867 17.5801C74.8345 18.2267 75.7114 18.5898 76.6256 18.5898C77.5398 18.5898 78.4168 18.2267 79.0646 17.5801C79.7039 16.8736 80.058 15.9539 80.058 15.0001C80.058 14.0462 79.7039 13.1265 79.0646 12.4201C78.4168 11.7734 77.5398 11.4103 76.6256 11.4103C75.7114 11.4103 74.8345 11.7734 74.1867 12.4201C73.5474 13.1265 73.1933 14.0462 73.1933 15.0001C73.1933 15.9539 73.5474 16.8736 74.1867 17.5801ZM87.0548 19.6951C86.4371 19.7074 85.8233 19.5942 85.2504 19.3624C84.6774 19.1307 84.1572 18.785 83.721 18.3464C83.2849 17.9077 82.9418 17.3851 82.7124 16.81C82.483 16.2349 82.3721 15.6192 82.3864 15.0001C82.3721 14.3809 82.483 13.7652 82.7124 13.1901C82.9418 12.615 83.2849 12.0924 83.721 11.6537C84.1572 11.2151 84.6774 10.8694 85.2504 10.6377C85.8233 10.4059 86.4371 10.2927 87.0548 10.3051C87.6809 10.2895 88.3024 10.4164 88.8725 10.6762C89.4427 10.936 89.9467 11.322 90.3467 11.8051L89.5387 12.5851C89.2431 12.2089 88.8621 11.9092 88.4274 11.7108C87.9926 11.5125 87.5169 11.4214 87.0398 11.4451C86.5806 11.4331 86.1236 11.5147 85.6967 11.6848C85.2698 11.855 84.8817 12.1102 84.556 12.4351C83.9072 13.1458 83.5474 14.0742 83.5474 15.0376C83.5474 16.0009 83.9072 16.9294 84.556 17.6401C84.8817 17.9649 85.2698 18.2201 85.6967 18.3903C86.1236 18.5605 86.5806 18.642 87.0398 18.6301C87.5665 18.6253 88.0855 18.5031 88.5592 18.2722C89.0328 18.0412 89.4492 17.7075 89.7781 17.2951L90.5861 18.1051C90.1788 18.6002 89.668 18.9997 89.0898 19.2751C88.4511 19.5651 87.7558 19.7085 87.0548 19.6951ZM95.2844 19.5001H94.1323V11.6101H91.6185V10.5001H97.7832V11.6101H95.2844V19.5001ZM105.714 10.5001L102.317 18.0901C102.181 18.539 101.909 18.9346 101.539 19.2221C101.17 19.5096 100.72 19.6749 100.252 19.6951C99.9429 19.6911 99.6375 19.6248 99.3544 19.5001L99.6536 18.4351C99.8355 18.5412 100.042 18.5981 100.252 18.6001C100.472 18.6167 100.692 18.5642 100.881 18.4501C101.061 18.2971 101.2 18.101 101.285 17.8801L101.614 17.1601L98.6212 10.5151H99.9828L102.197 15.6751L104.352 10.5001H105.714ZM107.015 19.5001V10.5001H113.509V19.5001H112.357V11.6101H108.168V19.5001H107.015ZM115.559 19.5001V10.5001H116.711V14.3551H121.2V10.5001H122.352V19.5001H121.2V15.4351H116.711V19.5001H115.559ZM131.764 18.3301C130.889 19.2021 129.706 19.6916 128.472 19.6916C127.239 19.6916 126.055 19.2021 125.18 18.3301C124.33 17.4278 123.856 16.2337 123.856 14.9926C123.856 13.7514 124.33 12.5573 125.18 11.6551C125.612 11.2197 126.124 10.8741 126.689 10.6383C127.254 10.4025 127.86 10.2811 128.472 10.2811C129.084 10.2811 129.69 10.4025 130.255 10.6383C130.82 10.8741 131.333 11.2197 131.764 11.6551C132.618 12.5555 133.094 13.7503 133.094 14.9926C133.094 16.2348 132.618 17.4296 131.764 18.3301ZM126.033 17.5801C126.681 18.2267 127.558 18.5898 128.472 18.5898C129.386 18.5898 130.263 18.2267 130.911 17.5801C131.551 16.8736 131.905 15.9539 131.905 15.0001C131.905 14.0462 131.551 13.1265 130.911 12.4201C130.263 11.7734 129.386 11.4103 128.472 11.4103C127.558 11.4103 126.681 11.7734 126.033 12.4201C125.394 13.1265 125.04 14.0462 125.04 15.0001C125.04 15.9539 125.394 16.8736 126.033 17.5801ZM137.794 19.5001V10.5001H141.041C141.715 10.4873 142.369 10.7343 142.867 11.1901C143.117 11.4076 143.316 11.6775 143.45 11.9808C143.585 12.2841 143.651 12.6132 143.645 12.9451C143.652 13.3449 143.537 13.7374 143.316 14.0701C143.096 14.3932 142.79 14.6479 142.433 14.8051C142.867 14.9491 143.247 15.2209 143.525 15.5851C143.813 15.9526 143.966 16.4079 143.959 16.8751C143.967 17.2209 143.898 17.5641 143.758 17.8804C143.619 18.1967 143.411 18.4782 143.151 18.7051C142.63 19.1868 141.944 19.4499 141.236 19.4401L137.794 19.5001ZM138.946 14.3551H141.041C141.237 14.3632 141.432 14.3286 141.613 14.2534C141.794 14.1783 141.956 14.0645 142.089 13.9201C142.221 13.7996 142.328 13.6537 142.403 13.4909C142.478 13.3282 142.519 13.152 142.525 12.9728C142.531 12.7936 142.5 12.6151 142.435 12.448C142.371 12.2809 142.273 12.1285 142.148 12.0001C142.023 11.8583 141.869 11.7458 141.696 11.6706C141.522 11.5954 141.335 11.5594 141.146 11.5651H139.006L138.946 14.3551ZM138.946 18.3901H141.266C141.468 18.3969 141.67 18.3587 141.856 18.2783C142.042 18.198 142.209 18.0773 142.343 17.9251C142.607 17.6507 142.757 17.2861 142.762 16.9051C142.762 16.5072 142.604 16.1257 142.324 15.8444C142.043 15.5631 141.662 15.4051 141.266 15.4051H138.991L138.946 18.3901Z" fill="white"/>
<path fill-rule="evenodd" clip-rule="evenodd" d="M76.6256 10.4311C76.0334 10.4311 75.447 10.5486 74.9003 10.7768C74.3541 11.0047 73.8582 11.3387 73.4413 11.7594C72.6181 12.6336 72.1595 13.7903 72.1595 14.9926C72.1595 16.1946 72.618 17.3512 73.4409 18.2253C74.2875 19.0684 75.4323 19.5416 76.6256 19.5416C77.819 19.5416 78.9639 19.0683 79.8104 18.2252C80.6367 17.3528 81.0974 16.1956 81.0974 14.9926C81.0974 13.7893 80.6366 12.632 79.8101 11.7596C79.3931 11.3388 78.8972 11.0048 78.351 10.7768C77.8043 10.5486 77.2179 10.4311 76.6256 10.4311ZM74.7852 10.4998C75.3684 10.2564 75.9939 10.1311 76.6256 10.1311C77.2573 10.1311 77.8828 10.2564 78.466 10.4998C79.0492 10.7432 79.5786 11.0999 80.0237 11.5494L80.026 11.5517C80.906 12.4801 81.3967 13.7119 81.3967 14.9926C81.3967 16.2732 80.906 17.505 80.0259 18.4334L80.023 18.4365C79.1202 19.3364 77.8988 19.8416 76.6256 19.8416C75.3525 19.8416 74.131 19.3364 73.2283 18.4364L73.2249 18.4331C72.3485 17.5031 71.8602 16.272 71.8602 14.9926C71.8602 13.7131 72.3485 12.4821 73.225 11.552L73.2275 11.5493C73.6726 11.0999 74.202 10.7432 74.7852 10.4998ZM128.472 10.4311C127.88 10.4311 127.294 10.5486 126.747 10.7768C126.201 11.0047 125.705 11.3387 125.288 11.7593C124.465 12.6336 124.006 13.7903 124.006 14.9926C124.006 16.1946 124.465 17.3512 125.288 18.2254C126.134 19.0684 127.279 19.5416 128.472 19.5416C129.666 19.5416 130.811 19.0683 131.657 18.2251C132.483 17.3527 132.944 16.1956 132.944 14.9926C132.944 13.7893 132.483 12.6321 131.657 11.7596C131.24 11.3388 130.744 11.0048 130.198 10.7768C129.651 10.5486 129.065 10.4311 128.472 10.4311ZM126.632 10.4998C127.215 10.2564 127.841 10.1311 128.472 10.1311C129.104 10.1311 129.729 10.2564 130.313 10.4998C130.896 10.7432 131.425 11.0999 131.87 11.5494L131.873 11.5517C132.753 12.4801 133.243 13.7119 133.243 14.9926C133.243 16.2732 132.753 17.505 131.873 18.4334L131.87 18.4365C130.967 19.3364 129.745 19.8416 128.472 19.8416C127.199 19.8416 125.978 19.3364 125.075 18.4364L125.072 18.4331C124.195 17.5031 123.707 16.272 123.707 14.9926C123.707 13.7131 124.195 12.4821 125.072 11.552L125.074 11.5493C125.519 11.0999 126.049 10.7432 126.632 10.4998ZM88.8106 10.8128C88.261 10.5623 87.662 10.44 87.0585 10.455L87.0518 10.4552C86.4543 10.4433 85.8606 10.5526 85.3063 10.7768C84.7521 11.001 84.2489 11.3353 83.827 11.7596C83.4051 12.1839 83.0732 12.6895 82.8513 13.2458C82.6294 13.8021 82.5222 14.3976 82.5359 14.9966L82.5361 15.0035C82.5223 15.6025 82.6294 16.198 82.8513 16.7543C83.0732 17.3106 83.4051 17.8162 83.827 18.2405C84.2489 18.6648 84.7521 18.9991 85.3063 19.2233C85.8606 19.4475 86.4543 19.557 87.0518 19.5451L87.0548 19.6951L87.0577 19.5451C87.736 19.5581 88.4087 19.4194 89.0268 19.139C89.5438 18.8925 90.005 18.5434 90.3826 18.1132L89.7878 17.517C89.4635 17.888 89.0682 18.1908 88.6246 18.4071C88.1314 18.6475 87.5909 18.7749 87.0424 18.78C86.5634 18.7923 86.0868 18.7072 85.6414 18.5297C85.1957 18.352 84.7905 18.0855 84.4505 17.7464L84.4455 17.7414C83.7715 17.0031 83.3978 16.0384 83.3978 15.0376C83.3978 14.0367 83.7716 13.0721 84.4456 12.3338L84.4503 12.3286C84.7904 11.9894 85.1957 11.7231 85.6414 11.5454C86.0854 11.3685 86.5605 11.2833 87.0381 11.295C87.5371 11.2711 88.0346 11.3669 88.4893 11.5743C88.8957 11.7597 89.2574 12.0295 89.5508 12.3651L90.141 11.7953C89.771 11.3788 89.318 11.044 88.8106 10.8128ZM87.0549 19.8451C86.418 19.8574 85.7851 19.7405 85.1944 19.5015C84.6027 19.2622 84.0655 18.9053 83.6151 18.4523C83.1646 17.9993 82.8103 17.4596 82.5734 16.8657C82.337 16.2729 82.2225 15.6383 82.2367 15.0001C82.2225 14.3618 82.337 13.7272 82.5734 13.1344C82.8103 12.5405 83.1646 12.0008 83.6151 11.5478C84.0655 11.0948 84.6027 10.7379 85.1944 10.4986C85.785 10.2596 86.4177 10.1428 87.0544 10.155C87.702 10.1395 88.3447 10.2709 88.9344 10.5397C89.5252 10.8088 90.0474 11.2087 90.4618 11.7093L90.5506 11.8165L89.5234 12.808L89.4211 12.6779C89.1403 12.3205 88.7784 12.0358 88.3654 11.8474C87.9524 11.659 87.5004 11.5724 87.0472 11.5949L87.0359 11.5954C86.5969 11.584 86.1601 11.6615 85.752 11.8242C85.3449 11.9864 84.9749 12.2296 84.664 12.5389C84.042 13.2216 83.6971 14.1129 83.6971 15.0376C83.6971 15.9623 84.042 16.8535 84.664 17.5362C84.9749 17.8456 85.3449 18.0887 85.752 18.2509C86.1601 18.4136 86.5969 18.4915 87.036 18.4801L87.0385 18.4801C87.5429 18.4755 88.0401 18.3584 88.4937 18.1373C88.9474 17.9161 89.3462 17.5964 89.6612 17.2014L89.7656 17.0704L90.788 18.0953L90.7015 18.2005C90.2803 18.7126 89.752 19.1257 89.154 19.4105L89.1515 19.4117C88.4934 19.7105 87.7772 19.8585 87.0549 19.8451ZM142.766 11.3008C142.296 10.8709 141.68 10.638 141.044 10.65L141.041 10.6501H137.944V19.3474L141.233 19.2901L141.238 19.2901C141.908 19.2994 142.557 19.0505 143.049 18.5948L143.053 18.5918C143.297 18.3794 143.491 18.1158 143.622 17.8197C143.752 17.5235 143.817 17.2021 143.809 16.8784L143.809 16.8728C143.816 16.44 143.674 16.0181 143.407 15.6777L143.406 15.6761C143.147 15.3359 142.791 15.082 142.386 14.9475L142.016 14.8247L142.373 14.6677C142.704 14.522 142.988 14.2859 143.191 13.9863C143.396 13.6791 143.502 13.3168 143.495 12.9477V12.9421C143.501 12.6323 143.439 12.3249 143.314 12.0417C143.188 11.7585 143.002 11.5065 142.769 11.3033L142.766 11.3008ZM142.966 11.0781C142.441 10.5975 141.751 10.337 141.04 10.3501H137.645V19.6527L141.234 19.59L141.236 19.5901C141.981 19.5998 142.702 19.3231 143.251 18.8168C143.527 18.5758 143.747 18.2768 143.895 17.9411C144.043 17.6055 144.116 17.2414 144.109 16.8746L144.109 16.8773L143.959 16.8751L144.109 16.8717L144.109 16.8746C144.115 16.3744 143.951 15.8868 143.643 15.4932C143.414 15.1933 143.12 14.9522 142.784 14.7874C143.043 14.6244 143.266 14.4093 143.439 14.1545L143.44 14.1533C143.678 13.796 143.801 13.3746 143.794 12.9452L143.794 12.948L143.645 12.9451L143.794 12.9424L143.794 12.9452C143.801 12.5923 143.73 12.2424 143.587 11.9199C143.444 11.5971 143.232 11.3098 142.966 11.0781ZM63.8323 10.3501H70.1167V18.2401H71.1193V21.5401H69.7127V19.6501H63.159V21.5551H61.7524V18.2551H62.7795C63.1727 17.8242 63.4707 17.3146 63.6536 16.7596C63.8432 16.1844 63.9046 15.5744 63.8333 14.9727L63.8323 14.9639V10.3501ZM64.1316 10.6501V14.9463C64.2063 15.5886 64.1402 16.2396 63.9377 16.8538C63.7344 17.4707 63.3984 18.0354 62.9536 18.508L62.9093 18.5551H62.0517V21.2551H62.8597V19.3501H70.012V21.2401H70.82V18.5401H69.8175V10.6501H64.1316ZM91.4689 10.3501H97.9329V11.7601H95.4341V19.6501H93.9827V11.7601H91.4689V10.3501ZM91.7681 10.6501V11.4601H94.2819V19.3501H95.1348V11.4601H97.6336V10.6501H91.7681ZM104.252 10.3501H105.945L102.457 18.1429C102.311 18.6178 102.023 19.0361 101.631 19.3407C101.237 19.6472 100.757 19.8234 100.259 19.8449L100.25 19.8453C99.9209 19.8411 99.5957 19.7702 99.2942 19.6374L99.1751 19.5849L99.562 18.208L99.7289 18.3054C99.8883 18.3985 100.069 18.4483 100.254 18.4501L100.263 18.4502C100.448 18.4641 100.633 18.4216 100.793 18.3277C100.95 18.1922 101.071 18.0199 101.145 17.8262L101.148 17.8174L101.449 17.1596L98.3895 10.3651H100.081L102.195 15.2906L104.252 10.3501ZM104.452 10.6501L102.199 16.0595L99.8843 10.6651H98.8529L101.778 17.1605L101.423 17.9384C101.329 18.1811 101.175 18.3963 100.977 18.5645L100.968 18.5723L100.958 18.5785C100.744 18.7079 100.495 18.7678 100.246 18.75C100.075 18.7478 99.9063 18.7133 99.749 18.6489L99.5347 19.4114C99.7635 19.4961 100.005 19.5414 100.25 19.545C100.685 19.5254 101.104 19.3712 101.448 19.1036C101.793 18.8351 102.047 18.4657 102.174 18.0465L102.177 18.0374L105.482 10.6501H104.452ZM106.866 10.3501H113.659V19.6501H112.208V11.7601H108.317V19.6501H106.866V10.3501ZM107.165 10.6501V19.3501H108.018V11.4601H112.507V19.3501H113.36V10.6501H107.165ZM115.41 10.3501H116.861V14.2051H121.051V10.3501H122.502V19.6501H121.051V15.5851H116.861V19.6501H115.41V10.3501ZM115.709 10.6501V19.3501H116.562V15.2851H121.35V19.3501H122.203V10.6501H121.35V14.5051H116.562V10.6501H115.709ZM74.0811 12.3138C74.7569 11.6391 75.6718 11.2603 76.6256 11.2603C77.5794 11.2603 78.4943 11.6391 79.1702 12.3138L79.1756 12.3191C79.8398 13.0532 80.2076 14.009 80.2076 15.0001C80.2076 15.9911 79.8397 16.9468 79.1754 17.6808L79.1703 17.6865C78.4945 18.3612 77.5794 18.7398 76.6256 18.7398C75.6718 18.7398 74.7569 18.361 74.0811 17.6863L74.1867 17.5801L74.0758 17.6808C73.4116 16.9468 73.0436 15.9911 73.0436 15.0001C73.0436 14.009 73.4116 13.0533 74.0758 12.3193L74.0811 12.3138ZM74.2949 17.4764C74.9144 18.0935 75.7523 18.4398 76.6256 18.4398C77.499 18.4398 78.3368 18.0935 78.9563 17.4764C79.569 16.7979 79.9083 15.9154 79.9083 15.0001C79.9083 14.0848 79.569 13.2022 78.9563 12.5237C78.3368 11.9067 77.499 11.5603 76.6256 11.5603C75.7523 11.5603 74.9144 11.9067 74.2949 12.5237C73.6822 13.2022 73.3429 14.0848 73.3429 15.0001C73.3429 15.9154 73.6822 16.7979 74.2949 17.4764ZM125.928 12.3138C126.604 11.6391 127.519 11.2603 128.472 11.2603C129.426 11.2603 130.341 11.6391 131.017 12.3138L131.022 12.3191C131.686 13.0532 132.054 14.009 132.054 15.0001C132.054 15.9911 131.686 16.9468 131.022 17.6808L131.017 17.6865C130.341 18.3612 129.426 18.7398 128.472 18.7398C127.519 18.7398 126.604 18.361 125.928 17.6863L126.033 17.5801L125.923 17.6808C125.258 16.9468 124.89 15.9911 124.89 15.0001C124.89 14.009 125.258 13.0533 125.923 12.3193L125.928 12.3138ZM126.142 17.4765C126.761 18.0935 127.599 18.4398 128.472 18.4398C129.346 18.4398 130.183 18.0935 130.803 17.4765C131.416 16.798 131.755 15.9154 131.755 15.0001C131.755 14.0847 131.416 13.2021 130.803 12.5236C130.183 11.9066 129.346 11.5603 128.472 11.5603C127.599 11.5603 126.761 11.9066 126.142 12.5236C125.529 13.2021 125.19 14.0847 125.19 15.0001C125.19 15.9154 125.529 16.798 126.142 17.4765ZM141.144 11.4151C141.354 11.4091 141.562 11.4493 141.755 11.533C141.947 11.6164 142.119 11.741 142.258 11.8981C142.396 12.0405 142.503 12.209 142.575 12.3937C142.647 12.5796 142.681 12.7782 142.675 12.9775C142.668 13.1768 142.622 13.3728 142.539 13.5539C142.456 13.7328 142.339 13.8935 142.194 14.0266C142.048 14.1848 141.869 14.3094 141.67 14.392C141.47 14.4751 141.254 14.5136 141.038 14.5051H138.793L138.86 11.4151H141.144ZM141.636 11.8083C141.483 11.7418 141.317 11.71 141.15 11.715L141.146 11.7151H139.153L139.099 14.2051H141.047C141.221 14.2123 141.395 14.1816 141.555 14.1149C141.716 14.0481 141.861 13.9469 141.978 13.8185L141.983 13.8135L141.988 13.8089C142.106 13.702 142.201 13.5725 142.267 13.428C142.334 13.2836 142.371 13.1272 142.376 12.9681C142.38 12.8091 142.353 12.6506 142.296 12.5023C142.239 12.3539 142.152 12.2187 142.041 12.1047L142.036 12.0995C141.926 11.9742 141.789 11.8747 141.636 11.8083ZM64.9396 11.4601H68.8748V18.6001H63.971L64.1082 18.3725C64.718 17.3611 65.0079 16.1884 64.9398 15.0087L64.9393 15.0001L64.9396 11.4601ZM65.2388 11.7601V14.9957C65.3044 16.147 65.0458 17.2917 64.495 18.3001H68.5756V11.7601H65.2388ZM138.844 15.2551H141.266C141.702 15.2551 142.121 15.4289 142.429 15.7383C142.738 16.0478 142.912 16.4674 142.912 16.9051L142.912 16.9072C142.906 17.3252 142.742 17.7254 142.453 18.0269C142.304 18.1946 142.121 18.3274 141.915 18.4161C141.71 18.5049 141.487 18.5472 141.263 18.5401H138.794L138.844 15.2551ZM139.139 15.5551L139.098 18.2401H141.271C141.451 18.2461 141.631 18.2122 141.797 18.1406C141.963 18.0689 142.111 17.9614 142.231 17.8257L142.235 17.8208C142.472 17.5742 142.607 17.2465 142.612 16.904C142.612 16.5463 142.47 16.2034 142.218 15.9505C141.965 15.6973 141.623 15.5551 141.266 15.5551H139.139Z" fill="white"/>
<path d="M15.6211 11.3101C15.1335 11.8967 14.8873 12.6478 14.9329 13.4101V46.5901C14.8873 47.3524 15.1335 48.1034 15.6211 48.6901L15.7259 48.7951L34.265 30.2251V29.7901L15.7259 11.2051L15.6211 11.3101Z" fill="url(#paint0_linear_201_660)"/>
<path d="M40.3997 36.4201L34.2649 30.2251V29.7901L40.3997 23.5801L40.5344 23.6551L47.8812 27.8401C49.976 29.0251 49.976 30.9751 47.8812 32.1751L40.5643 36.3451L40.3997 36.4201Z" fill="url(#paint1_linear_201_660)"/>
<path d="M40.5793 36.33L34.2649 30L15.6211 48.69C16.0481 49.0663 16.5928 49.2812 17.161 49.2976C17.7293 49.3141 18.2855 49.131 18.7334 48.78L40.5943 36.33" fill="url(#paint2_linear_201_660)"/>
<path d="M40.5794 23.6701L18.7185 11.2201C18.2706 10.8691 17.7144 10.686 17.1462 10.7024C16.5779 10.7189 16.0332 10.9338 15.6062 11.3101L34.265 30.0001L40.5794 23.6701Z" fill="url(#paint3_linear_201_660)"/>
<path opacity="0.2" d="M40.3998 36.1951L18.7184 48.5701C18.2864 48.8939 17.7615 49.0688 17.2221 49.0688C16.6827 49.0688 16.1578 48.8939 15.7258 48.5701L15.6211 48.6751L15.7258 48.7801C16.1569 49.1062 16.6821 49.2826 17.2221 49.2826C17.7621 49.2826 18.2874 49.1062 18.7184 48.7801L40.5793 36.3301L40.3998 36.1951Z" fill="black"/>
<path opacity="0.12" d="M15.6211 48.48C15.1335 47.8933 14.8873 47.1423 14.9329 46.38V46.605C14.8873 47.3673 15.1335 48.1183 15.6211 48.705L15.7259 48.6L15.6211 48.48ZM47.8813 31.95L40.3998 36.195L40.5345 36.33L47.8813 32.16C48.2982 31.9637 48.656 31.6606 48.9187 31.2814C49.1814 30.9021 49.3397 30.4602 49.3776 30C49.2934 30.4181 49.1148 30.8112 48.8554 31.1493C48.596 31.4873 48.2628 31.7612 47.8813 31.95Z" fill="black"/>
<path opacity="0.25" d="M18.7186 11.4294L47.8814 28.0494C48.2629 28.2382 48.5961 28.5121 48.8555 28.8502C49.1149 29.1882 49.2935 29.5814 49.3777 29.9994C49.3398 29.5393 49.1815 29.0973 48.9188 28.718C48.6561 28.3388 48.2982 28.0357 47.8814 27.8394L18.7186 11.2194C16.6237 10.0344 14.918 11.0244 14.918 13.4244V13.6494C14.9629 11.2344 16.6387 10.2444 18.7186 11.4294Z" fill="white"/>
<defs>
<linearGradient id="paint0_linear_201_660" x1="32.6191" y1="13.0651" x2="7.44915" y2="38.1729" gradientUnits="userSpaceOnUse">
<stop stop-color="#00A0FF"/>
<stop offset="0.01" stop-color="#00A1FF"/>
<stop offset="0.26" stop-color="#00BEFF"/>
<stop offset="0.51" stop-color="#00D2FF"/>
<stop offset="0.76" stop-color="#00DFFF"/>
<stop offset="1" stop-color="#00E3FF"/>
</linearGradient>
<linearGradient id="paint1_linear_201_660" x1="50.6194" y1="30.0001" x2="14.424" y2="30.0001" gradientUnits="userSpaceOnUse">
<stop stop-color="#FFE000"/>
<stop offset="0.41" stop-color="#FFBD00"/>
<stop offset="0.78" stop-color="#FFA500"/>
<stop offset="1" stop-color="#FF9C00"/>
</linearGradient>
<linearGradient id="paint2_linear_201_660" x1="37.1528" y1="33.45" x2="3.01293" y2="67.4906" gradientUnits="userSpaceOnUse">
<stop stop-color="#FF3A44"/>
<stop offset="1" stop-color="#C31162"/>
</linearGradient>
<linearGradient id="paint3_linear_201_660" x1="10.9228" y1="0.270073" x2="26.1627" y2="15.4724" gradientUnits="userSpaceOnUse">
<stop stop-color="#32A071"/>
<stop offset="0.07" stop-color="#2DA771"/>
<stop offset="0.48" stop-color="#15CF74"/>
<stop offset="0.8" stop-color="#06E775"/>
<stop offset="1" stop-color="#00F076"/>
</linearGradient>
</defs>
</svg>
